{"glyphs":{"0":{"ha":828,"x_min":50,"x_max":768,"o":"m 409 -17 q 243 26 311 -17 q 132 141 174 68 q 69 310 89 215 q 50 510 50 405 q 69 710 50 615 q 132 880 89 806 q 243 997 174 954 q 409 1040 311 1040 q 575 997 507 1040 q 686 880 644 954 q 749 710 729 806 q 768 510 768 615 q 749 310 768 405 q 686 141 729 215 q 575 26 644 68 q 409 -17 507 -17 m 409 151 q 487 186 456 151 q 535 301 519 222 q 551 510 551 381 q 535 718 551 640 q 487 833 519 797 q 409 869 456 869 q 331 833 363 869 q 283 718 299 797 q 267 510 267 640 q 283 301 267 380 q 331 186 299 222 q 409 151 363 151 z "},"1":{"ha":629,"x_min":79,"x_max":487,"o":"m 487 1026 l 487 0 l 273 0 l 273 824 q 234 807 264 817 q 164 786 205 796 q 79 773 123 776 l 79 942 q 165 961 123 948 q 236 992 206 975 q 276 1026 267 1010 l 487 1026 z "},"2":{"ha":857,"x_min":56,"x_max":772,"o":"m 63 0 l 63 176 q 99 222 69 192 q 174 290 130 252 q 266 368 217 328 q 355 442 314 408 q 449 526 403 483 q 525 618 495 569 q 556 722 556 667 q 523 831 556 790 q 421 872 491 872 q 332 847 365 872 q 285 778 299 822 q 271 675 271 734 l 56 675 q 98 869 56 788 q 223 995 141 951 q 424 1040 306 1040 q 617 997 540 1040 q 733 883 694 955 q 772 719 772 810 q 749 605 772 658 q 689 507 726 552 q 609 425 651 462 q 529 358 567 388 q 419 269 466 308 q 345 205 373 231 q 312 165 318 178 l 766 165 l 766 0 l 63 0 z "},"3":{"ha":867,"x_min":69,"x_max":778,"o":"m 583 540 q 687 506 643 538 q 755 422 731 474 q 778 302 778 369 q 741 144 778 217 q 627 27 704 72 q 427 -17 549 -17 q 253 11 323 -17 q 143 86 184 38 q 86 196 103 134 q 69 329 69 258 q 69 331 69 330 q 69 332 69 331 l 284 332 q 284 331 284 331 q 284 329 284 330 q 302 220 284 259 q 352 166 319 181 q 430 151 385 151 q 525 188 489 151 q 562 308 562 224 q 554 371 562 343 q 528 418 546 399 q 481 448 511 438 q 408 458 451 458 l 372 458 l 372 608 l 408 608 q 480 620 451 608 q 528 651 510 631 q 554 696 546 671 q 562 749 562 722 q 526 842 562 813 q 433 872 490 872 q 326 836 369 872 q 284 708 284 801 l 69 708 q 89 834 69 774 q 152 941 109 894 q 264 1013 195 987 q 429 1040 333 1040 q 628 999 551 1040 q 742 895 706 959 q 778 760 778 831 q 755 652 778 701 q 687 573 731 603 q 583 540 643 543 z "},"4":{"ha":841,"x_min":26,"x_max":792,"o":"m 459 0 l 459 197 l 26 197 l 26 346 l 391 1026 l 669 1026 l 669 359 l 792 359 l 792 197 l 669 197 l 669 0 l 459 0 m 188 267 l 130 359 l 459 359 l 459 888 l 503 876 l 188 267 z "},"5":{"ha":850,"x_min":69,"x_max":765,"o":"m 739 862 l 333 862 l 297 594 q 311 613 299 601 q 346 637 324 625 q 402 657 369 649 q 481 665 436 665 q 692 575 619 665 q 765 340 765 485 q 725 144 765 224 q 607 24 685 65 q 413 -17 529 -17 q 253 11 319 -17 q 147 86 188 40 q 88 191 106 133 q 69 307 69 248 q 69 309 69 308 q 69 310 69 309 l 282 310 q 282 309 282 309 q 282 307 282 308 q 317 192 285 233 q 417 151 349 151 q 490 171 460 151 q 534 232 519 191 q 549 335 549 274 q 519 465 549 419 q 426 511 490 511 q 359 497 388 511 q 311 460 330 482 q 285 418 293 439 l 81 472 l 160 1024 l 739 1024 l 739 862 z "},"6":{"ha":872,"x_min":79,"x_max":783,"o":"m 431 -17 q 230 43 308 -17 q 116 212 152 102 q 79 472 79 322 q 103 714 79 608 q 173 892 126 820 q 286 1002 219 965 q 441 1040 353 1040 q 595 1008 535 1040 q 689 929 655 976 q 736 832 722 881 q 749 749 749 783 q 749 747 749 747 q 749 744 749 746 l 549 744 q 549 747 549 746 q 549 749 549 747 q 544 788 549 767 q 528 828 540 809 q 495 860 517 848 q 440 873 474 873 q 358 830 391 873 q 308 698 324 786 q 291 472 291 609 l 251 471 q 282 556 253 515 q 364 623 310 597 q 495 649 418 649 q 655 606 590 649 q 751 492 719 563 q 783 336 783 422 q 743 155 783 235 q 626 29 704 75 q 431 -17 547 -17 m 433 151 q 507 170 478 151 q 551 228 536 190 q 566 322 566 266 q 551 414 566 376 q 508 474 536 453 q 441 494 481 494 q 369 475 400 494 q 320 419 338 456 q 302 330 302 383 q 318 237 302 277 q 364 174 335 197 q 433 151 394 151 z "},"7":{"ha":754,"x_min":49,"x_max":724,"o":"m 496 862 l 496 860 l 49 860 l 49 1024 l 724 1024 l 724 872 q 604 749 654 822 q 521 588 554 676 q 468 402 488 500 q 440 202 449 304 q 432 0 432 100 l 216 0 q 225 211 216 108 q 252 410 233 315 q 304 591 272 506 q 384 744 336 675 q 496 862 431 813 z "},"8":{"ha":906,"x_min":84,"x_max":819,"o":"m 451 -17 q 249 25 331 -17 q 126 136 167 66 q 84 292 84 206 q 115 423 84 371 q 191 504 146 475 q 275 540 235 533 q 202 574 242 548 q 136 650 163 601 q 109 774 109 699 q 153 913 109 853 q 275 1006 197 973 q 451 1040 352 1040 q 628 1006 551 1040 q 749 913 705 973 q 794 774 794 853 q 766 650 794 699 q 700 574 739 601 q 627 540 661 548 q 712 504 667 533 q 788 423 756 475 q 819 292 819 371 q 777 136 819 206 q 653 25 735 66 q 451 -17 572 -17 m 451 151 q 526 169 493 151 q 578 221 559 187 q 598 303 598 255 q 580 385 598 350 q 528 440 561 420 q 451 459 495 459 q 374 440 408 459 q 323 385 341 420 q 304 303 304 349 q 324 221 304 255 q 376 169 343 187 q 451 151 410 151 m 451 621 q 549 656 513 621 q 585 749 585 691 q 568 818 585 790 q 519 858 550 845 q 451 872 489 872 q 383 858 414 872 q 335 818 353 845 q 317 749 317 790 q 354 656 317 691 q 451 621 390 621 z "},"9":{"ha":849,"x_min":72,"x_max":776,"o":"m 413 -17 q 260 15 320 -17 q 166 94 199 47 q 119 191 133 142 q 106 274 106 240 q 106 276 106 276 q 106 278 106 277 l 306 278 q 306 276 306 277 q 306 274 306 276 q 310 235 306 256 q 326 194 315 214 q 359 163 338 175 q 414 150 381 150 q 497 193 464 150 q 547 326 531 237 q 563 551 563 415 l 603 552 q 573 467 601 508 q 491 400 544 426 q 360 374 438 374 q 200 417 264 374 q 104 531 136 460 q 72 687 72 601 q 111 868 72 788 q 229 994 151 948 q 424 1040 307 1040 q 625 980 547 1040 q 739 811 702 921 q 776 551 776 702 q 752 309 776 415 q 682 131 728 203 q 568 21 636 58 q 413 -17 501 -17 m 414 528 q 486 548 455 528 q 534 604 517 567 q 552 693 552 640 q 536 786 552 747 q 491 849 520 826 q 422 872 461 872 q 348 853 377 872 q 303 795 318 833 q 288 701 288 758 q 303 609 288 648 q 346 549 318 570 q 414 528 374 528 z "},"A":{"ha":927,"x_min":38,"x_max":889,"o":"m 38 0 l 294 1026 l 635 1026 l 889 0 l 668 0 l 464 894 l 465 894 l 259 0 l 38 0 m 222 238 l 222 406 l 708 406 l 708 238 l 222 238 z "},"Á":{"ha":927,"x_min":38,"x_max":889,"o":"m 38 0 l 294 1026 l 635 1026 l 889 0 l 668 0 l 464 894 l 465 894 l 259 0 l 38 0 m 222 238 l 222 406 l 708 406 l 708 238 l 222 238 m 349 1082 l 538 1226 l 710 1226 l 499 1082 l 349 1082 z "},"Ă":{"ha":927,"x_min":38,"x_max":889,"o":"m 38 0 l 294 1026 l 635 1026 l 889 0 l 668 0 l 464 894 l 465 894 l 259 0 l 38 0 m 222 238 l 222 406 l 708 406 l 708 238 l 222 238 m 263 1213 l 390 1213 q 409 1168 390 1187 q 465 1149 429 1149 q 520 1168 501 1149 q 540 1213 540 1187 l 666 1213 q 609 1107 666 1147 q 465 1066 551 1066 q 320 1107 378 1066 q 263 1213 263 1147 z "},"Ắ":{"ha":927,"x_min":38,"x_max":889,"o":"m 38 0 l 294 1026 l 635 1026 l 889 0 l 668 0 l 464 894 l 465 894 l 259 0 l 38 0 m 222 238 l 222 406 l 708 406 l 708 238 l 222 238 m 263 1213 l 390 1213 q 409 1168 390 1187 q 465 1149 429 1149 q 520 1168 501 1149 q 540 1213 540 1187 l 666 1213 q 609 1107 666 1147 q 465 1066 551 1066 q 320 1107 378 1066 q 263 1213 263 1147 m 349 1265 l 538 1409 l 710 1409 l 499 1265 l 349 1265 z "},"Ặ":{"ha":927,"x_min":38,"x_max":889,"o":"m 38 0 l 294 1026 l 635 1026 l 889 0 l 668 0 l 464 894 l 465 894 l 259 0 l 38 0 m 222 238 l 222 406 l 708 406 l 708 238 l 222 238 m 463 -286 q 376 -260 414 -286 q 339 -185 339 -233 q 376 -110 339 -137 q 463 -84 414 -84 q 551 -110 513 -84 q 588 -185 588 -137 q 551 -260 588 -234 q 463 -286 513 -286 m 263 1213 l 390 1213 q 409 1168 390 1187 q 465 1149 429 1149 q 520 1168 501 1149 q 540 1213 540 1187 l 666 1213 q 609 1107 666 1147 q 465 1066 551 1066 q 320 1107 378 1066 q 263 1213 263 1147 z "},"Ằ":{"ha":927,"x_min":38,"x_max":889,"o":"m 38 0 l 294 1026 l 635 1026 l 889 0 l 668 0 l 464 894 l 465 894 l 259 0 l 38 0 m 222 238 l 222 406 l 708 406 l 708 238 l 222 238 m 263 1213 l 390 1213 q 409 1168 390 1187 q 465 1149 429 1149 q 520 1168 501 1149 q 540 1213 540 1187 l 666 1213 q 609 1107 666 1147 q 465 1066 551 1066 q 320 1107 378 1066 q 263 1213 263 1147 m 582 1265 l 431 1265 l 220 1409 l 392 1409 l 582 1265 z "},"Ẳ":{"ha":927,"x_min":38,"x_max":889,"o":"m 38 0 l 294 1026 l 635 1026 l 889 0 l 668 0 l 464 894 l 465 894 l 259 0 l 38 0 m 222 238 l 222 406 l 708 406 l 708 238 l 222 238 m 263 1213 l 390 1213 q 409 1168 390 1187 q 465 1149 429 1149 q 520 1168 501 1149 q 540 1213 540 1187 l 666 1213 q 609 1107 666 1147 q 465 1066 551 1066 q 320 1107 378 1066 q 263 1213 263 1147 m 315 1438 q 459 1432 393 1438 q 564 1406 524 1426 q 604 1343 604 1385 q 578 1283 604 1306 q 507 1249 551 1260 q 406 1238 462 1238 l 384 1294 q 433 1299 406 1296 q 480 1311 460 1303 q 500 1335 500 1320 q 452 1364 500 1357 q 315 1370 403 1370 l 315 1438 z "},"Ẵ":{"ha":927,"x_min":38,"x_max":889,"o":"m 38 0 l 294 1026 l 635 1026 l 889 0 l 668 0 l 464 894 l 465 894 l 259 0 l 38 0 m 222 238 l 222 406 l 708 406 l 708 238 l 222 238 m 263 1213 l 390 1213 q 409 1168 390 1187 q 465 1149 429 1149 q 520 1168 501 1149 q 540 1213 540 1187 l 666 1213 q 609 1107 666 1147 q 465 1066 551 1066 q 320 1107 378 1066 q 263 1213 263 1147 m 700 1413 q 685 1342 700 1378 q 640 1281 670 1306 q 562 1256 610 1256 q 500 1271 525 1256 q 459 1299 475 1285 q 430 1323 444 1313 q 395 1333 415 1333 q 360 1315 372 1333 q 349 1271 349 1298 l 240 1271 q 256 1343 240 1307 q 303 1405 272 1380 q 383 1430 335 1430 q 443 1415 418 1430 q 483 1387 467 1401 q 515 1363 499 1373 q 549 1353 531 1353 q 580 1369 570 1353 q 591 1413 590 1386 l 700 1413 z "},"Ǎ":{"ha":927,"x_min":38,"x_max":889,"o":"m 38 0 l 294 1026 l 635 1026 l 889 0 l 668 0 l 464 894 l 465 894 l 259 0 l 38 0 m 222 238 l 222 406 l 708 406 l 708 238 l 222 238 m 227 1224 l 365 1224 l 492 1113 l 435 1113 l 563 1224 l 702 1224 l 535 1081 l 394 1081 l 227 1224 z "},"Â":{"ha":927,"x_min":38,"x_max":889,"o":"m 38 0 l 294 1026 l 635 1026 l 889 0 l 668 0 l 464 894 l 465 894 l 259 0 l 38 0 m 222 238 l 222 406 l 708 406 l 708 238 l 222 238 m 227 1081 l 394 1224 l 535 1224 l 702 1081 l 563 1081 l 435 1194 l 492 1194 l 365 1081 l 227 1081 z "},"Ấ":{"ha":927,"x_min":38,"x_max":917,"o":"m 38 0 l 294 1026 l 635 1026 l 889 0 l 668 0 l 464 894 l 465 894 l 259 0 l 38 0 m 222 238 l 222 406 l 708 406 l 708 238 l 222 238 m 227 1081 l 394 1224 l 535 1224 l 702 1081 l 563 1081 l 435 1194 l 492 1194 l 365 1081 l 227 1081 m 622 1190 l 776 1334 l 917 1334 l 751 1190 l 622 1190 z "},"Ậ":{"ha":927,"x_min":38,"x_max":889,"o":"m 38 0 l 294 1026 l 635 1026 l 889 0 l 668 0 l 464 894 l 465 894 l 259 0 l 38 0 m 222 238 l 222 406 l 708 406 l 708 238 l 222 238 m 463 -286 q 376 -260 414 -286 q 339 -185 339 -233 q 376 -110 339 -137 q 463 -84 414 -84 q 551 -110 513 -84 q 588 -185 588 -137 q 551 -260 588 -234 q 463 -286 513 -286 m 227 1081 l 394 1224 l 535 1224 l 702 1081 l 563 1081 l 435 1194 l 492 1194 l 365 1081 l 227 1081 z "},"Ầ":{"ha":927,"x_min":38,"x_max":889,"o":"m 38 0 l 294 1026 l 635 1026 l 889 0 l 668 0 l 464 894 l 465 894 l 259 0 l 38 0 m 222 238 l 222 406 l 708 406 l 708 238 l 222 238 m 229 1081 l 397 1224 l 538 1224 l 704 1081 l 565 1081 l 438 1194 l 494 1194 l 367 1081 l 229 1081 m 817 1190 l 687 1190 l 522 1334 l 662 1334 l 817 1190 z "},"Ẩ":{"ha":927,"x_min":38,"x_max":889,"o":"m 38 0 l 294 1026 l 635 1026 l 889 0 l 668 0 l 464 894 l 465 894 l 259 0 l 38 0 m 222 238 l 222 406 l 708 406 l 708 238 l 222 238 m 228 1081 l 395 1224 l 536 1224 l 703 1081 l 564 1081 l 436 1194 l 493 1194 l 366 1081 l 228 1081 m 549 1386 q 692 1380 626 1386 q 797 1354 758 1374 q 837 1292 837 1334 q 811 1232 837 1256 q 740 1198 785 1209 q 639 1187 695 1187 l 617 1243 q 666 1248 639 1244 q 714 1260 694 1252 q 733 1283 733 1269 q 685 1313 733 1306 q 549 1319 636 1319 l 549 1386 z "},"Ẫ":{"ha":927,"x_min":38,"x_max":889,"o":"m 38 0 l 294 1026 l 635 1026 l 889 0 l 668 0 l 464 894 l 465 894 l 259 0 l 38 0 m 222 238 l 222 406 l 708 406 l 708 238 l 222 238 m 227 1081 l 394 1224 l 535 1224 l 702 1081 l 563 1081 l 435 1194 l 492 1194 l 365 1081 l 227 1081 m 700 1430 q 685 1358 700 1394 q 640 1298 670 1322 q 562 1273 610 1273 q 500 1288 525 1273 q 459 1315 475 1302 q 430 1339 444 1329 q 395 1349 415 1349 q 360 1332 372 1349 q 349 1288 349 1315 l 240 1288 q 256 1360 240 1324 q 303 1422 272 1397 q 383 1447 335 1447 q 443 1432 418 1447 q 483 1403 467 1417 q 515 1380 499 1390 q 549 1369 531 1369 q 580 1386 570 1369 q 591 1430 590 1403 l 700 1430 z "},"Ȁ":{"ha":927,"x_min":38,"x_max":889,"o":"m 38 0 l 294 1026 l 635 1026 l 889 0 l 668 0 l 464 894 l 465 894 l 259 0 l 38 0 m 222 238 l 222 406 l 708 406 l 708 238 l 222 238 m 641 1081 l 524 1081 l 381 1226 l 513 1226 l 641 1081 m 410 1081 l 294 1081 l 135 1226 l 267 1226 l 410 1081 z "},"Ä":{"ha":927,"x_min":38,"x_max":889,"o":"m 38 0 l 294 1026 l 635 1026 l 889 0 l 668 0 l 464 894 l 465 894 l 259 0 l 38 0 m 222 238 l 222 406 l 708 406 l 708 238 l 222 238 m 298 1071 q 218 1095 252 1071 q 183 1164 183 1119 q 218 1233 183 1208 q 298 1257 252 1257 q 377 1233 343 1257 q 412 1164 412 1208 q 377 1095 412 1119 q 298 1071 343 1071 m 633 1071 q 553 1095 588 1071 q 519 1164 519 1119 q 553 1233 519 1208 q 633 1257 588 1257 q 713 1233 678 1257 q 747 1164 747 1208 q 713 1095 747 1119 q 633 1071 678 1071 z "},"Ǟ":{"ha":927,"x_min":38,"x_max":889,"o":"m 38 0 l 294 1026 l 635 1026 l 889 0 l 668 0 l 464 894 l 465 894 l 259 0 l 38 0 m 222 238 l 222 406 l 708 406 l 708 238 l 222 238 m 298 1071 q 218 1095 252 1071 q 183 1164 183 1119 q 218 1233 183 1208 q 298 1257 252 1257 q 377 1233 343 1257 q 412 1164 412 1208 q 377 1095 412 1119 q 298 1071 343 1071 m 633 1071 q 553 1095 588 1071 q 519 1164 519 1119 q 553 1233 519 1208 q 633 1257 588 1257 q 713 1233 678 1257 q 747 1164 747 1208 q 713 1095 747 1119 q 633 1071 678 1071 m 248 1322 l 248 1412 l 681 1412 l 681 1322 l 248 1322 z "},"Ạ":{"ha":927,"x_min":38,"x_max":889,"o":"m 38 0 l 294 1026 l 635 1026 l 889 0 l 668 0 l 464 894 l 465 894 l 259 0 l 38 0 m 222 238 l 222 406 l 708 406 l 708 238 l 222 238 m 463 -286 q 376 -260 414 -286 q 339 -185 339 -233 q 376 -110 339 -137 q 463 -84 414 -84 q 551 -110 513 -84 q 588 -185 588 -137 q 551 -260 588 -234 q 463 -286 513 -286 z "},"À":{"ha":927,"x_min":38,"x_max":889,"o":"m 38 0 l 294 1026 l 635 1026 l 889 0 l 668 0 l 464 894 l 465 894 l 259 0 l 38 0 m 222 238 l 222 406 l 708 406 l 708 238 l 222 238 m 582 1082 l 431 1082 l 220 1226 l 392 1226 l 582 1082 z "},"Ả":{"ha":927,"x_min":38,"x_max":889,"o":"m 38 0 l 294 1026 l 635 1026 l 889 0 l 668 0 l 464 894 l 465 894 l 259 0 l 38 0 m 222 238 l 222 406 l 708 406 l 708 238 l 222 238 m 315 1254 q 459 1248 393 1254 q 564 1222 524 1242 q 604 1160 604 1202 q 578 1100 604 1123 q 507 1065 551 1076 q 406 1054 462 1054 l 384 1111 q 433 1116 406 1113 q 480 1128 460 1119 q 500 1151 500 1137 q 452 1180 500 1174 q 315 1187 403 1187 l 315 1254 z "},"Ȃ":{"ha":927,"x_min":38,"x_max":889,"o":"m 38 0 l 294 1026 l 635 1026 l 889 0 l 668 0 l 464 894 l 465 894 l 259 0 l 38 0 m 222 238 l 222 406 l 708 406 l 708 238 l 222 238 m 263 1078 q 320 1184 263 1144 q 465 1223 378 1223 q 609 1184 551 1223 q 666 1078 666 1144 l 540 1078 q 520 1123 540 1104 q 465 1141 501 1141 q 409 1123 429 1141 q 389 1078 389 1104 l 263 1078 z "},"Ā":{"ha":927,"x_min":38,"x_max":889,"o":"m 38 0 l 294 1026 l 635 1026 l 889 0 l 668 0 l 464 894 l 465 894 l 259 0 l 38 0 m 222 238 l 222 406 l 708 406 l 708 238 l 222 238 m 248 1117 l 248 1207 l 681 1207 l 681 1117 l 248 1117 z "},"Ą":{"ha":927,"x_min":38,"x_max":889,"o":"m 38 0 l 294 1026 l 635 1026 l 889 0 l 668 0 l 464 894 l 465 894 l 259 0 l 38 0 m 222 238 l 222 406 l 708 406 l 708 238 l 222 238 m 889 -206 l 889 -308 q 858 -311 875 -310 q 824 -312 842 -312 q 737 -301 778 -312 q 670 -265 696 -290 q 644 -198 644 -240 q 669 -117 644 -156 q 727 -47 694 -78 q 783 0 760 -17 l 889 0 q 841 -47 869 -17 q 791 -109 813 -77 q 769 -165 769 -141 q 789 -201 769 -191 q 836 -210 808 -210 q 864 -209 849 -210 q 889 -206 878 -207 z "},"Å":{"ha":927,"x_min":38,"x_max":889,"o":"m 38 0 l 294 1026 l 635 1026 l 889 0 l 668 0 l 464 894 l 465 894 l 259 0 l 38 0 m 222 238 l 222 406 l 708 406 l 708 238 l 222 238 m 465 1147 q 511 1166 492 1147 q 531 1213 531 1185 q 511 1260 531 1240 q 465 1279 492 1279 q 418 1260 438 1279 q 399 1213 399 1240 q 418 1166 399 1185 q 465 1147 438 1147 m 465 1053 q 385 1075 422 1053 q 327 1133 349 1097 q 306 1213 306 1169 q 327 1293 306 1257 q 385 1350 349 1328 q 465 1372 421 1372 q 545 1350 509 1372 q 602 1293 581 1328 q 624 1213 624 1257 q 602 1133 624 1169 q 545 1075 581 1097 q 465 1053 509 1053 z "},"Ǻ":{"ha":927,"x_min":38,"x_max":889,"o":"m 38 0 l 294 1026 l 635 1026 l 889 0 l 668 0 l 464 894 l 465 894 l 259 0 l 38 0 m 222 238 l 222 406 l 708 406 l 708 238 l 222 238 m 465 1147 q 511 1166 492 1147 q 531 1213 531 1185 q 511 1260 531 1240 q 465 1279 492 1279 q 418 1260 438 1279 q 399 1213 399 1240 q 418 1166 399 1185 q 465 1147 438 1147 m 465 1053 q 385 1075 422 1053 q 327 1133 349 1097 q 306 1213 306 1169 q 327 1293 306 1257 q 385 1350 349 1328 q 465 1372 421 1372 q 545 1350 509 1372 q 602 1293 581 1328 q 624 1213 624 1257 q 602 1133 624 1169 q 545 1075 581 1097 q 465 1053 509 1053 m 349 1407 l 538 1551 l 710 1551 l 499 1407 l 349 1407 z "},"Ã":{"ha":927,"x_min":38,"x_max":889,"o":"m 38 0 l 294 1026 l 635 1026 l 889 0 l 668 0 l 464 894 l 465 894 l 259 0 l 38 0 m 222 238 l 222 406 l 708 406 l 708 238 l 222 238 m 700 1230 q 685 1158 700 1194 q 640 1098 670 1122 q 562 1073 610 1073 q 500 1088 525 1073 q 459 1115 475 1102 q 430 1139 444 1129 q 395 1149 415 1149 q 360 1132 372 1149 q 349 1088 349 1115 l 240 1088 q 256 1160 240 1124 q 303 1222 272 1197 q 383 1247 335 1247 q 443 1232 418 1247 q 483 1203 467 1217 q 515 1180 499 1190 q 549 1169 531 1169 q 580 1186 570 1169 q 591 1230 590 1203 l 700 1230 z "},"Æ":{"ha":1381,"x_min":0,"x_max":1295,"o":"m 0 0 l 588 1024 l 1295 1024 l 1295 858 l 808 858 l 879 928 l 879 533 l 817 597 l 1218 597 l 1218 431 l 822 431 l 879 489 l 879 105 l 817 167 l 1295 167 l 1295 0 l 672 0 l 672 848 l 689 835 l 234 0 l 0 0 m 283 199 l 326 359 l 771 359 l 771 199 l 283 199 z "},"Ǽ":{"ha":1381,"x_min":0,"x_max":1295,"o":"m 0 0 l 588 1024 l 1295 1024 l 1295 858 l 808 858 l 879 928 l 879 533 l 817 597 l 1218 597 l 1218 431 l 822 431 l 879 489 l 879 105 l 817 167 l 1295 167 l 1295 0 l 672 0 l 672 848 l 689 835 l 234 0 l 0 0 m 283 199 l 326 359 l 771 359 l 771 199 l 283 199 m 717 1082 l 907 1226 l 1079 1226 l 867 1082 l 717 1082 z "},"B":{"ha":890,"x_min":85,"x_max":828,"o":"m 490 1024 q 666 994 597 1024 q 769 909 735 965 q 802 777 802 853 q 772 648 802 701 q 697 566 742 595 q 603 534 651 538 q 705 509 653 533 q 792 432 757 485 q 828 290 828 378 q 794 141 828 207 q 686 38 760 76 q 488 0 612 0 l 85 0 l 85 1024 l 490 1024 m 291 550 l 219 610 l 424 610 q 547 645 506 610 q 588 740 588 681 q 570 807 588 781 q 519 845 553 833 q 435 858 485 858 l 194 858 l 291 960 l 291 550 m 446 167 q 566 204 525 167 q 608 303 608 240 q 595 365 608 338 q 561 409 583 391 q 507 436 539 426 q 438 445 476 445 l 219 445 l 291 505 l 291 65 l 194 167 l 446 167 z "},"C":{"ha":980,"x_min":57,"x_max":923,"o":"m 923 374 q 898 239 923 308 q 821 113 872 170 q 692 19 770 55 q 507 -17 614 -17 q 264 51 365 -17 q 110 238 163 119 q 57 513 57 358 q 110 786 57 667 q 264 972 163 905 q 507 1040 365 1040 q 709 997 626 1040 q 843 885 793 953 q 912 740 894 816 q 923 650 923 693 l 707 650 q 703 690 707 671 q 672 781 697 741 q 605 843 647 820 q 507 867 564 867 q 388 828 440 867 q 306 712 336 790 q 276 513 276 633 q 306 312 276 391 q 388 195 336 233 q 507 156 440 156 q 592 174 555 156 q 655 222 629 191 q 693 292 680 252 q 707 374 707 331 l 923 374 z "},"Ć":{"ha":980,"x_min":57,"x_max":923,"o":"m 923 374 q 898 239 923 308 q 821 113 872 170 q 692 19 770 55 q 507 -17 614 -17 q 264 51 365 -17 q 110 238 163 119 q 57 513 57 358 q 110 786 57 667 q 264 972 163 905 q 507 1040 365 1040 q 709 997 626 1040 q 843 885 793 953 q 912 740 894 816 q 923 650 923 693 l 707 650 q 703 690 707 671 q 672 781 697 741 q 605 843 647 820 q 507 867 564 867 q 388 828 440 867 q 306 712 336 790 q 276 513 276 633 q 306 312 276 391 q 388 195 336 233 q 507 156 440 156 q 592 174 555 156 q 655 222 629 191 q 693 292 680 252 q 707 374 707 331 l 923 374 m 385 1082 l 575 1226 l 747 1226 l 535 1082 l 385 1082 z "},"Č":{"ha":980,"x_min":57,"x_max":923,"o":"m 923 374 q 898 239 923 308 q 821 113 872 170 q 692 19 770 55 q 507 -17 614 -17 q 264 51 365 -17 q 110 238 163 119 q 57 513 57 358 q 110 786 57 667 q 264 972 163 905 q 507 1040 365 1040 q 709 997 626 1040 q 843 885 793 953 q 912 740 894 816 q 923 650 923 693 l 707 650 q 703 690 707 671 q 672 781 697 741 q 605 843 647 820 q 507 867 564 867 q 388 828 440 867 q 306 712 336 790 q 276 513 276 633 q 306 312 276 391 q 388 195 336 233 q 507 156 440 156 q 592 174 555 156 q 655 222 629 191 q 693 292 680 252 q 707 374 707 331 l 923 374 m 264 1224 l 402 1224 l 529 1113 l 472 1113 l 600 1224 l 739 1224 l 572 1081 l 431 1081 l 264 1224 z "},"Ç":{"ha":980,"x_min":57,"x_max":923,"o":"m 923 374 q 898 239 923 308 q 821 113 872 170 q 692 19 770 55 q 507 -17 614 -17 q 315 24 399 -17 q 174 136 231 65 q 87 305 117 208 q 57 513 57 401 q 87 720 57 624 q 174 888 117 816 q 315 999 231 959 q 507 1040 399 1040 q 709 997 626 1040 q 843 885 793 953 q 912 740 894 816 q 923 650 923 693 l 707 650 q 703 690 707 671 q 672 781 697 741 q 605 843 647 820 q 507 867 564 867 q 388 828 440 867 q 306 712 336 790 q 276 513 276 633 q 306 312 276 391 q 388 195 336 233 q 507 156 440 156 q 592 174 555 156 q 655 222 629 191 q 693 292 680 252 q 707 374 707 331 l 923 374 m 580 -51 q 629 -62 604 -51 q 670 -95 653 -72 q 686 -155 686 -117 q 658 -231 686 -201 q 586 -275 631 -260 q 494 -289 542 -289 q 406 -278 450 -289 q 344 -255 362 -267 l 386 -176 q 432 -196 399 -184 q 501 -208 465 -208 q 566 -194 540 -208 q 592 -151 592 -179 q 579 -118 592 -128 q 546 -108 565 -108 q 513 -114 530 -108 q 488 -132 496 -120 l 406 -109 l 456 0 l 548 0 l 506 -90 l 499 -88 q 527 -62 505 -72 q 580 -51 549 -51 z "},"Ḉ":{"ha":980,"x_min":57,"x_max":923,"o":"m 923 374 q 898 239 923 308 q 821 113 872 170 q 692 19 770 55 q 507 -17 614 -17 q 315 24 399 -17 q 174 136 231 65 q 87 305 117 208 q 57 513 57 401 q 87 720 57 624 q 174 888 117 816 q 315 999 231 959 q 507 1040 399 1040 q 709 997 626 1040 q 843 885 793 953 q 912 740 894 816 q 923 650 923 693 l 707 650 q 703 690 707 671 q 672 781 697 741 q 605 843 647 820 q 507 867 564 867 q 388 828 440 867 q 306 712 336 790 q 276 513 276 633 q 306 312 276 391 q 388 195 336 233 q 507 156 440 156 q 592 174 555 156 q 655 222 629 191 q 693 292 680 252 q 707 374 707 331 l 923 374 m 580 -51 q 629 -62 604 -51 q 670 -95 653 -72 q 686 -155 686 -117 q 658 -231 686 -201 q 586 -275 631 -260 q 494 -289 542 -289 q 406 -278 450 -289 q 344 -255 362 -267 l 386 -176 q 432 -196 399 -184 q 501 -208 465 -208 q 566 -194 540 -208 q 592 -151 592 -179 q 579 -118 592 -128 q 546 -108 565 -108 q 513 -114 530 -108 q 488 -132 496 -120 l 406 -109 l 456 0 l 548 0 l 506 -90 l 499 -88 q 527 -62 505 -72 q 580 -51 549 -51 m 385 1082 l 575 1226 l 747 1226 l 535 1082 l 385 1082 z "},"Ĉ":{"ha":980,"x_min":57,"x_max":923,"o":"m 923 374 q 898 239 923 308 q 821 113 872 170 q 692 19 770 55 q 507 -17 614 -17 q 264 51 365 -17 q 110 238 163 119 q 57 513 57 358 q 110 786 57 667 q 264 972 163 905 q 507 1040 365 1040 q 709 997 626 1040 q 843 885 793 953 q 912 740 894 816 q 923 650 923 693 l 707 650 q 703 690 707 671 q 672 781 697 741 q 605 843 647 820 q 507 867 564 867 q 388 828 440 867 q 306 712 336 790 q 276 513 276 633 q 306 312 276 391 q 388 195 336 233 q 507 156 440 156 q 592 174 555 156 q 655 222 629 191 q 693 292 680 252 q 707 374 707 331 l 923 374 m 264 1081 l 431 1224 l 572 1224 l 739 1081 l 600 1081 l 472 1194 l 529 1194 l 402 1081 l 264 1081 z "},"Ċ":{"ha":980,"x_min":57,"x_max":923,"o":"m 923 374 q 898 239 923 308 q 821 113 872 170 q 692 19 770 55 q 507 -17 614 -17 q 264 51 365 -17 q 110 238 163 119 q 57 513 57 358 q 110 786 57 667 q 264 972 163 905 q 507 1040 365 1040 q 709 997 626 1040 q 843 885 793 953 q 912 740 894 816 q 923 650 923 693 l 707 650 q 703 690 707 671 q 672 781 697 741 q 605 843 647 820 q 507 867 564 867 q 388 828 440 867 q 306 712 336 790 q 276 513 276 633 q 306 312 276 391 q 388 195 336 233 q 507 156 440 156 q 592 174 555 156 q 655 222 629 191 q 693 292 680 252 q 707 374 707 331 l 923 374 m 503 1085 q 416 1112 453 1085 q 379 1186 379 1138 q 416 1261 379 1235 q 503 1287 453 1287 q 591 1261 553 1287 q 628 1186 628 1235 q 591 1111 628 1138 q 503 1085 553 1085 z "},"D":{"ha":932,"x_min":85,"x_max":874,"o":"m 85 0 l 85 1024 l 416 1024 q 603 987 519 1024 q 748 882 688 950 q 842 721 809 815 q 874 514 874 627 q 842 306 874 401 q 748 143 809 212 q 603 38 688 75 q 416 0 519 0 l 85 0 m 301 64 l 204 167 l 388 167 q 524 209 463 167 q 620 329 585 251 q 656 514 656 407 q 620 698 656 622 q 524 816 585 775 q 388 858 463 858 l 204 858 l 301 960 l 301 64 z "},"Ǆ":{"ha":1679,"x_min":85,"x_max":1618,"o":"m 85 0 l 85 1024 l 416 1024 q 603 987 519 1024 q 748 882 688 950 q 842 721 809 815 q 874 514 874 627 q 842 306 874 401 q 748 143 809 212 q 603 38 688 75 q 416 0 519 0 l 85 0 m 301 64 l 204 167 l 388 167 q 524 209 463 167 q 620 329 585 251 q 656 514 656 407 q 620 698 656 622 q 524 816 585 775 q 388 858 463 858 l 204 858 l 301 960 l 301 64 m 1169 167 l 1611 167 l 1611 0 l 928 0 l 928 144 l 1378 859 l 1379 858 l 960 858 l 960 1024 l 1618 1024 l 1618 882 l 1169 169 l 1169 167 m 1039 1224 l 1177 1224 l 1304 1113 l 1247 1113 l 1375 1224 l 1514 1224 l 1347 1081 l 1206 1081 l 1039 1224 z "},"Ð":{"ha":932,"x_min":7,"x_max":874,"o":"m 7 462 l 7 560 l 513 560 l 513 462 l 7 462 m 85 0 l 85 1024 l 416 1024 q 603 987 519 1024 q 748 882 688 950 q 842 721 809 815 q 874 514 874 627 q 842 306 874 401 q 748 143 809 212 q 603 38 688 75 q 416 0 519 0 l 85 0 m 301 64 l 204 167 l 388 167 q 524 209 463 167 q 620 329 585 251 q 656 514 656 407 q 620 698 656 622 q 524 816 585 775 q 388 858 463 858 l 204 858 l 301 960 l 301 64 z "},"Ď":{"ha":932,"x_min":85,"x_max":874,"o":"m 85 0 l 85 1024 l 416 1024 q 603 987 519 1024 q 748 882 688 950 q 842 721 809 815 q 874 514 874 627 q 842 306 874 401 q 748 143 809 212 q 603 38 688 75 q 416 0 519 0 l 85 0 m 301 64 l 204 167 l 388 167 q 524 209 463 167 q 620 329 585 251 q 656 514 656 407 q 620 698 656 622 q 524 816 585 775 q 388 858 463 858 l 204 858 l 301 960 l 301 64 m 204 1224 l 342 1224 l 469 1113 l 413 1113 l 540 1224 l 679 1224 l 513 1081 l 372 1081 l 204 1224 z "},"Đ":{"ha":932,"x_min":7,"x_max":874,"o":"m 85 0 l 85 1024 l 416 1024 q 603 987 519 1024 q 748 882 688 950 q 842 721 809 815 q 874 514 874 627 q 842 306 874 401 q 748 143 809 212 q 603 38 688 75 q 416 0 519 0 l 85 0 m 301 64 l 204 167 l 388 167 q 524 209 463 167 q 620 329 585 251 q 656 514 656 407 q 620 698 656 622 q 524 816 585 775 q 388 858 463 858 l 204 858 l 301 960 l 301 64 m 7 462 l 7 560 l 513 560 l 513 462 l 7 462 z "},"Ḍ":{"ha":932,"x_min":85,"x_max":874,"o":"m 85 0 l 85 1024 l 416 1024 q 603 987 519 1024 q 748 882 688 950 q 842 721 809 815 q 874 514 874 627 q 842 306 874 401 q 748 143 809 212 q 603 38 688 75 q 416 0 519 0 l 85 0 m 301 64 l 204 167 l 388 167 q 524 209 463 167 q 620 329 585 251 q 656 514 656 407 q 620 698 656 622 q 524 816 585 775 q 388 858 463 858 l 204 858 l 301 960 l 301 64 m 442 -286 q 355 -260 392 -286 q 317 -185 317 -233 q 355 -110 317 -137 q 442 -84 392 -84 q 529 -110 492 -84 q 567 -185 567 -137 q 529 -260 567 -234 q 442 -286 492 -286 z "},"Ḏ":{"ha":932,"x_min":85,"x_max":874,"o":"m 85 0 l 85 1024 l 416 1024 q 603 987 519 1024 q 748 882 688 950 q 842 721 809 815 q 874 514 874 627 q 842 306 874 401 q 748 143 809 212 q 603 38 688 75 q 416 0 519 0 l 85 0 m 301 64 l 204 167 l 388 167 q 524 209 463 167 q 620 329 585 251 q 656 514 656 407 q 620 698 656 622 q 524 816 585 775 q 388 858 463 858 l 204 858 l 301 960 l 301 64 m 215 -210 l 215 -121 l 667 -121 l 667 -210 l 215 -210 z "},"ǅ":{"ha":1647,"x_min":85,"x_max":1604,"o":"m 85 0 l 85 1024 l 416 1024 q 603 987 519 1024 q 748 882 688 950 q 842 721 809 815 q 874 514 874 627 q 842 306 874 401 q 748 143 809 212 q 603 38 688 75 q 416 0 519 0 l 85 0 m 301 64 l 204 167 l 388 167 q 524 209 463 167 q 620 329 585 251 q 656 514 656 407 q 620 698 656 622 q 524 816 585 775 q 388 858 463 858 l 204 858 l 301 960 l 301 64 m 1204 169 l 1604 169 l 1604 0 l 974 0 l 974 160 l 1364 577 l 1369 569 l 988 569 l 988 738 l 1596 738 l 1596 578 l 1209 162 l 1204 169 m 1056 1024 l 1192 1024 l 1320 875 l 1263 875 l 1391 1024 l 1528 1024 l 1362 835 l 1223 835 l 1056 1024 z "},"E":{"ha":792,"x_min":85,"x_max":708,"o":"m 204 858 l 301 960 l 301 536 l 253 597 l 631 597 l 631 431 l 253 431 l 301 492 l 301 64 l 204 167 l 708 167 l 708 0 l 85 0 l 85 1024 l 708 1024 l 708 858 l 204 858 z "},"É":{"ha":792,"x_min":85,"x_max":708,"o":"m 204 858 l 301 960 l 301 536 l 253 597 l 631 597 l 631 431 l 253 431 l 301 492 l 301 64 l 204 167 l 708 167 l 708 0 l 85 0 l 85 1024 l 708 1024 l 708 858 l 204 858 m 290 1082 l 479 1226 l 651 1226 l 440 1082 l 290 1082 z "},"Ĕ":{"ha":792,"x_min":85,"x_max":708,"o":"m 204 858 l 301 960 l 301 536 l 253 597 l 631 597 l 631 431 l 253 431 l 301 492 l 301 64 l 204 167 l 708 167 l 708 0 l 85 0 l 85 1024 l 708 1024 l 708 858 l 204 858 m 204 1213 l 331 1213 q 350 1168 331 1187 q 406 1149 370 1149 q 461 1168 442 1149 q 481 1213 481 1187 l 607 1213 q 550 1107 607 1147 q 406 1066 492 1066 q 261 1107 319 1066 q 204 1213 204 1147 z "},"Ě":{"ha":792,"x_min":85,"x_max":708,"o":"m 204 858 l 301 960 l 301 536 l 253 597 l 631 597 l 631 431 l 253 431 l 301 492 l 301 64 l 204 167 l 708 167 l 708 0 l 85 0 l 85 1024 l 708 1024 l 708 858 l 204 858 m 168 1224 l 306 1224 l 433 1113 l 376 1113 l 504 1224 l 643 1224 l 476 1081 l 335 1081 l 168 1224 z "},"Ȩ":{"ha":792,"x_min":85,"x_max":708,"o":"m 204 858 l 301 960 l 301 536 l 253 597 l 631 597 l 631 431 l 253 431 l 301 492 l 301 64 l 204 167 l 708 167 l 708 0 l 85 0 l 85 1024 l 708 1024 l 708 858 l 204 858 m 485 -51 q 534 -62 510 -51 q 575 -95 558 -72 q 592 -155 592 -117 q 564 -231 592 -201 q 492 -275 536 -260 q 399 -289 448 -289 q 311 -278 356 -289 q 249 -255 267 -267 l 291 -176 q 338 -196 305 -184 q 406 -208 371 -208 q 471 -194 445 -208 q 497 -151 497 -179 q 484 -118 497 -128 q 451 -108 471 -108 q 418 -114 435 -108 q 393 -132 401 -120 l 312 -109 l 362 0 l 453 0 l 412 -90 l 404 -88 q 432 -62 410 -72 q 485 -51 453 -51 z "},"Ḝ":{"ha":792,"x_min":85,"x_max":708,"o":"m 204 858 l 301 960 l 301 536 l 253 597 l 631 597 l 631 431 l 253 431 l 301 492 l 301 64 l 204 167 l 708 167 l 708 0 l 85 0 l 85 1024 l 708 1024 l 708 858 l 204 858 m 485 -51 q 534 -62 510 -51 q 575 -95 558 -72 q 592 -155 592 -117 q 564 -231 592 -201 q 492 -275 536 -260 q 399 -289 448 -289 q 311 -278 356 -289 q 249 -255 267 -267 l 291 -176 q 338 -196 305 -184 q 406 -208 371 -208 q 471 -194 445 -208 q 497 -151 497 -179 q 484 -118 497 -128 q 451 -108 471 -108 q 418 -114 435 -108 q 393 -132 401 -120 l 312 -109 l 362 0 l 453 0 l 412 -90 l 404 -88 q 432 -62 410 -72 q 485 -51 453 -51 m 204 1213 l 331 1213 q 350 1168 331 1187 q 406 1149 370 1149 q 461 1168 442 1149 q 481 1213 481 1187 l 607 1213 q 550 1107 607 1147 q 406 1066 492 1066 q 261 1107 319 1066 q 204 1213 204 1147 z "},"Ê":{"ha":792,"x_min":85,"x_max":708,"o":"m 204 858 l 301 960 l 301 536 l 253 597 l 631 597 l 631 431 l 253 431 l 301 492 l 301 64 l 204 167 l 708 167 l 708 0 l 85 0 l 85 1024 l 708 1024 l 708 858 l 204 858 m 168 1081 l 335 1224 l 476 1224 l 643 1081 l 504 1081 l 376 1194 l 433 1194 l 306 1081 l 168 1081 z "},"Ế":{"ha":792,"x_min":85,"x_max":858,"o":"m 204 858 l 301 960 l 301 536 l 253 597 l 631 597 l 631 431 l 253 431 l 301 492 l 301 64 l 204 167 l 708 167 l 708 0 l 85 0 l 85 1024 l 708 1024 l 708 858 l 204 858 m 168 1081 l 335 1224 l 476 1224 l 643 1081 l 504 1081 l 376 1194 l 433 1194 l 306 1081 l 168 1081 m 563 1190 l 717 1334 l 858 1334 l 692 1190 l 563 1190 z "},"Ệ":{"ha":792,"x_min":85,"x_max":708,"o":"m 204 858 l 301 960 l 301 536 l 253 597 l 631 597 l 631 431 l 253 431 l 301 492 l 301 64 l 204 167 l 708 167 l 708 0 l 85 0 l 85 1024 l 708 1024 l 708 858 l 204 858 m 410 -286 q 324 -260 361 -286 q 286 -185 286 -233 q 324 -110 286 -137 q 410 -84 361 -84 q 498 -110 460 -84 q 535 -185 535 -137 q 498 -260 535 -234 q 410 -286 460 -286 m 168 1081 l 335 1224 l 476 1224 l 643 1081 l 504 1081 l 376 1194 l 433 1194 l 306 1081 l 168 1081 z "},"Ề":{"ha":792,"x_min":85,"x_max":758,"o":"m 204 858 l 301 960 l 301 536 l 253 597 l 631 597 l 631 431 l 253 431 l 301 492 l 301 64 l 204 167 l 708 167 l 708 0 l 85 0 l 85 1024 l 708 1024 l 708 858 l 204 858 m 170 1081 l 338 1224 l 478 1224 l 645 1081 l 506 1081 l 378 1194 l 435 1194 l 308 1081 l 170 1081 m 758 1190 l 628 1190 l 463 1334 l 603 1334 l 758 1190 z "},"Ể":{"ha":792,"x_min":85,"x_max":778,"o":"m 204 858 l 301 960 l 301 536 l 253 597 l 631 597 l 631 431 l 253 431 l 301 492 l 301 64 l 204 167 l 708 167 l 708 0 l 85 0 l 85 1024 l 708 1024 l 708 858 l 204 858 m 169 1081 l 336 1224 l 477 1224 l 644 1081 l 505 1081 l 377 1194 l 434 1194 l 307 1081 l 169 1081 m 490 1386 q 633 1380 567 1386 q 738 1354 699 1374 q 778 1292 778 1334 q 752 1232 778 1256 q 681 1198 726 1209 q 580 1187 636 1187 l 558 1243 q 607 1248 580 1244 q 655 1260 635 1252 q 674 1283 674 1269 q 626 1313 674 1306 q 490 1319 577 1319 l 490 1386 z "},"Ễ":{"ha":792,"x_min":85,"x_max":708,"o":"m 204 858 l 301 960 l 301 536 l 253 597 l 631 597 l 631 431 l 253 431 l 301 492 l 301 64 l 204 167 l 708 167 l 708 0 l 85 0 l 85 1024 l 708 1024 l 708 858 l 204 858 m 168 1081 l 335 1224 l 476 1224 l 643 1081 l 504 1081 l 376 1194 l 433 1194 l 306 1081 l 168 1081 m 641 1430 q 626 1358 641 1394 q 581 1298 611 1322 q 503 1273 551 1273 q 441 1288 466 1273 q 400 1315 416 1302 q 370 1339 385 1329 q 336 1349 356 1349 q 301 1332 313 1349 q 290 1288 290 1315 l 181 1288 q 197 1360 181 1324 q 244 1422 213 1397 q 324 1447 276 1447 q 384 1432 359 1447 q 424 1403 408 1417 q 456 1380 440 1390 q 490 1369 472 1369 q 521 1386 511 1369 q 532 1430 531 1403 l 641 1430 z "},"Ȅ":{"ha":792,"x_min":75,"x_max":708,"o":"m 204 858 l 301 960 l 301 536 l 253 597 l 631 597 l 631 431 l 253 431 l 301 492 l 301 64 l 204 167 l 708 167 l 708 0 l 85 0 l 85 1024 l 708 1024 l 708 858 l 204 858 m 582 1081 l 465 1081 l 322 1226 l 454 1226 l 582 1081 m 351 1081 l 235 1081 l 76 1226 l 208 1226 l 351 1081 z "},"Ë":{"ha":792,"x_min":85,"x_max":708,"o":"m 204 858 l 301 960 l 301 536 l 253 597 l 631 597 l 631 431 l 253 431 l 301 492 l 301 64 l 204 167 l 708 167 l 708 0 l 85 0 l 85 1024 l 708 1024 l 708 858 l 204 858 m 239 1071 q 159 1095 193 1071 q 124 1164 124 1119 q 159 1233 124 1208 q 239 1257 193 1257 q 318 1233 284 1257 q 353 1164 353 1208 q 318 1095 353 1119 q 239 1071 284 1071 m 574 1071 q 494 1095 528 1071 q 460 1164 460 1119 q 494 1233 460 1208 q 574 1257 528 1257 q 654 1233 619 1257 q 688 1164 688 1208 q 654 1095 688 1119 q 574 1071 619 1071 z "},"Ė":{"ha":792,"x_min":85,"x_max":708,"o":"m 204 858 l 301 960 l 301 536 l 253 597 l 631 597 l 631 431 l 253 431 l 301 492 l 301 64 l 204 167 l 708 167 l 708 0 l 85 0 l 85 1024 l 708 1024 l 708 858 l 204 858 m 408 1085 q 320 1112 358 1085 q 283 1186 283 1138 q 320 1261 283 1235 q 408 1287 358 1287 q 495 1261 458 1287 q 532 1186 532 1235 q 495 1111 532 1138 q 408 1085 458 1085 z "},"Ẹ":{"ha":792,"x_min":85,"x_max":708,"o":"m 204 858 l 301 960 l 301 536 l 253 597 l 631 597 l 631 431 l 253 431 l 301 492 l 301 64 l 204 167 l 708 167 l 708 0 l 85 0 l 85 1024 l 708 1024 l 708 858 l 204 858 m 410 -286 q 324 -260 361 -286 q 286 -185 286 -233 q 324 -110 286 -137 q 410 -84 361 -84 q 498 -110 460 -84 q 535 -185 535 -137 q 498 -260 535 -234 q 410 -286 460 -286 z "},"È":{"ha":792,"x_min":85,"x_max":708,"o":"m 204 858 l 301 960 l 301 536 l 253 597 l 631 597 l 631 431 l 253 431 l 301 492 l 301 64 l 204 167 l 708 167 l 708 0 l 85 0 l 85 1024 l 708 1024 l 708 858 l 204 858 m 523 1082 l 372 1082 l 161 1226 l 333 1226 l 523 1082 z "},"Ẻ":{"ha":792,"x_min":85,"x_max":708,"o":"m 204 858 l 301 960 l 301 536 l 253 597 l 631 597 l 631 431 l 253 431 l 301 492 l 301 64 l 204 167 l 708 167 l 708 0 l 85 0 l 85 1024 l 708 1024 l 708 858 l 204 858 m 256 1254 q 400 1248 334 1254 q 505 1222 465 1242 q 545 1160 545 1202 q 519 1100 545 1123 q 448 1065 492 1076 q 347 1054 403 1054 l 325 1111 q 374 1116 347 1113 q 421 1128 401 1119 q 441 1151 441 1137 q 393 1180 441 1174 q 256 1187 344 1187 l 256 1254 z "},"Ȇ":{"ha":792,"x_min":85,"x_max":708,"o":"m 204 858 l 301 960 l 301 536 l 253 597 l 631 597 l 631 431 l 253 431 l 301 492 l 301 64 l 204 167 l 708 167 l 708 0 l 85 0 l 85 1024 l 708 1024 l 708 858 l 204 858 m 204 1078 q 261 1184 204 1144 q 406 1223 319 1223 q 550 1184 492 1223 q 607 1078 607 1144 l 481 1078 q 461 1123 481 1104 q 406 1141 442 1141 q 350 1123 370 1141 q 330 1078 330 1104 l 204 1078 z "},"Ē":{"ha":792,"x_min":85,"x_max":708,"o":"m 204 858 l 301 960 l 301 536 l 253 597 l 631 597 l 631 431 l 253 431 l 301 492 l 301 64 l 204 167 l 708 167 l 708 0 l 85 0 l 85 1024 l 708 1024 l 708 858 l 204 858 m 189 1117 l 189 1207 l 622 1207 l 622 1117 l 189 1117 z "},"Ḗ":{"ha":792,"x_min":85,"x_max":708,"o":"m 204 858 l 301 960 l 301 536 l 253 597 l 631 597 l 631 431 l 253 431 l 301 492 l 301 64 l 204 167 l 708 167 l 708 0 l 85 0 l 85 1024 l 708 1024 l 708 858 l 204 858 m 189 1117 l 189 1207 l 622 1207 l 622 1117 l 189 1117 m 290 1265 l 479 1408 l 651 1408 l 440 1265 l 290 1265 z "},"Ḕ":{"ha":792,"x_min":85,"x_max":708,"o":"m 204 858 l 301 960 l 301 536 l 253 597 l 631 597 l 631 431 l 253 431 l 301 492 l 301 64 l 204 167 l 708 167 l 708 0 l 85 0 l 85 1024 l 708 1024 l 708 858 l 204 858 m 189 1117 l 189 1207 l 622 1207 l 622 1117 l 189 1117 m 523 1265 l 372 1265 l 161 1408 l 333 1408 l 523 1265 z "},"Ę":{"ha":792,"x_min":85,"x_max":708,"o":"m 204 858 l 301 960 l 301 536 l 253 597 l 631 597 l 631 431 l 253 431 l 301 492 l 301 64 l 204 167 l 708 167 l 708 0 l 85 0 l 85 1024 l 708 1024 l 708 858 l 204 858 m 708 -206 l 708 -308 q 677 -311 694 -310 q 643 -312 660 -312 q 556 -301 597 -312 q 489 -265 515 -290 q 463 -198 463 -240 q 488 -117 463 -156 q 546 -47 513 -78 q 602 0 579 -17 l 708 0 q 659 -47 688 -17 q 610 -109 631 -77 q 588 -165 588 -141 q 608 -201 588 -191 q 655 -210 627 -210 q 682 -209 668 -210 q 708 -206 697 -207 z "},"Ẽ":{"ha":792,"x_min":85,"x_max":708,"o":"m 204 858 l 301 960 l 301 536 l 253 597 l 631 597 l 631 431 l 253 431 l 301 492 l 301 64 l 204 167 l 708 167 l 708 0 l 85 0 l 85 1024 l 708 1024 l 708 858 l 204 858 m 641 1230 q 626 1158 641 1194 q 581 1098 611 1122 q 503 1073 551 1073 q 441 1088 466 1073 q 400 1115 416 1102 q 370 1139 385 1129 q 336 1149 356 1149 q 301 1132 313 1149 q 290 1088 290 1115 l 181 1088 q 197 1160 181 1124 q 244 1222 213 1197 q 324 1247 276 1247 q 384 1232 359 1247 q 424 1203 408 1217 q 456 1180 440 1190 q 490 1169 472 1169 q 521 1186 511 1169 q 532 1230 531 1203 l 641 1230 z "},"Ʒ":{"ha":867,"x_min":69,"x_max":778,"o":"m 427 -17 q 253 11 323 -17 q 143 87 184 39 q 86 198 103 135 q 69 329 69 260 q 69 331 69 330 q 69 332 69 331 l 284 332 q 284 331 284 331 q 284 329 284 330 q 323 188 284 226 q 430 151 363 151 q 525 184 489 151 q 562 301 562 217 q 543 389 562 356 q 479 435 524 422 q 357 449 434 449 l 281 449 l 530 858 l 104 858 l 104 1024 l 749 1024 l 749 870 l 561 576 q 679 543 631 576 q 752 453 727 511 q 778 319 778 395 q 741 147 778 222 q 627 27 704 71 q 427 -17 549 -17 z "},"Ǯ":{"ha":867,"x_min":69,"x_max":778,"o":"m 427 -17 q 253 11 323 -17 q 143 87 184 39 q 86 198 103 135 q 69 329 69 260 q 69 331 69 330 q 69 332 69 331 l 284 332 q 284 331 284 331 q 284 329 284 330 q 323 188 284 226 q 430 151 363 151 q 525 184 489 151 q 562 301 562 217 q 543 389 562 356 q 479 435 524 422 q 357 449 434 449 l 281 449 l 530 858 l 104 858 l 104 1024 l 749 1024 l 749 870 l 561 576 q 679 543 631 576 q 752 453 727 511 q 778 319 778 395 q 741 147 778 222 q 627 27 704 71 q 427 -17 549 -17 m 197 1224 l 335 1224 l 462 1113 l 405 1113 l 533 1224 l 672 1224 l 505 1081 l 364 1081 l 197 1224 z "},"F":{"ha":778,"x_min":85,"x_max":714,"o":"m 203 858 l 300 960 l 300 529 l 233 583 l 652 583 l 652 417 l 233 417 l 300 475 l 300 0 l 85 0 l 85 1024 l 714 1024 l 714 858 l 203 858 z "},"G":{"ha":997,"x_min":57,"x_max":913,"o":"m 495 -17 q 274 44 374 -17 q 116 222 174 105 q 57 510 57 339 q 119 798 57 680 q 285 978 181 916 q 519 1040 390 1040 q 701 1005 626 1040 q 823 916 776 970 q 891 802 869 862 q 913 691 913 742 q 913 687 913 689 q 913 683 913 685 l 703 683 q 703 687 703 685 q 703 691 703 689 q 691 755 703 723 q 656 811 679 786 q 598 851 633 836 q 519 867 564 867 q 402 832 458 867 q 311 719 347 797 q 276 510 276 641 q 295 342 276 410 q 349 233 315 274 q 425 174 382 192 q 513 156 467 156 q 619 177 576 156 q 686 230 662 199 q 717 292 710 261 l 717 358 l 515 358 l 515 514 l 908 514 l 908 0 l 795 0 l 776 113 q 752 78 770 100 q 701 35 734 57 q 617 -2 668 13 q 495 -17 566 -17 z "},"Ğ":{"ha":997,"x_min":57,"x_max":913,"o":"m 495 -17 q 274 44 374 -17 q 116 222 174 105 q 57 510 57 339 q 119 798 57 680 q 285 978 181 916 q 519 1040 390 1040 q 701 1005 626 1040 q 823 916 776 970 q 891 802 869 862 q 913 691 913 742 q 913 687 913 689 q 913 683 913 685 l 703 683 q 703 687 703 685 q 703 691 703 689 q 691 755 703 723 q 656 811 679 786 q 598 851 633 836 q 519 867 564 867 q 402 832 458 867 q 311 719 347 797 q 276 510 276 641 q 295 342 276 410 q 349 233 315 274 q 425 174 382 192 q 513 156 467 156 q 619 177 576 156 q 686 230 662 199 q 717 292 710 261 l 717 358 l 515 358 l 515 514 l 908 514 l 908 0 l 795 0 l 776 113 q 752 78 770 100 q 701 35 734 57 q 617 -2 668 13 q 495 -17 566 -17 m 312 1213 l 438 1213 q 458 1168 438 1187 q 513 1149 478 1149 q 569 1168 549 1149 q 588 1213 588 1187 l 715 1213 q 657 1107 715 1147 q 513 1066 600 1066 q 369 1107 426 1066 q 312 1213 312 1147 z "},"Ǧ":{"ha":997,"x_min":57,"x_max":913,"o":"m 495 -17 q 274 44 374 -17 q 116 222 174 105 q 57 510 57 339 q 119 798 57 680 q 285 978 181 916 q 519 1040 390 1040 q 701 1005 626 1040 q 823 916 776 970 q 891 802 869 862 q 913 691 913 742 q 913 687 913 689 q 913 683 913 685 l 703 683 q 703 687 703 685 q 703 691 703 689 q 691 755 703 723 q 656 811 679 786 q 598 851 633 836 q 519 867 564 867 q 402 832 458 867 q 311 719 347 797 q 276 510 276 641 q 295 342 276 410 q 349 233 315 274 q 425 174 382 192 q 513 156 467 156 q 619 177 576 156 q 686 230 662 199 q 717 292 710 261 l 717 358 l 515 358 l 515 514 l 908 514 l 908 0 l 795 0 l 776 113 q 752 78 770 100 q 701 35 734 57 q 617 -2 668 13 q 495 -17 566 -17 m 275 1224 l 413 1224 l 540 1113 l 483 1113 l 611 1224 l 750 1224 l 583 1081 l 442 1081 l 275 1224 z "},"Ĝ":{"ha":997,"x_min":57,"x_max":913,"o":"m 495 -17 q 274 44 374 -17 q 116 222 174 105 q 57 510 57 339 q 119 798 57 680 q 285 978 181 916 q 519 1040 390 1040 q 701 1005 626 1040 q 823 916 776 970 q 891 802 869 862 q 913 691 913 742 q 913 687 913 689 q 913 683 913 685 l 703 683 q 703 687 703 685 q 703 691 703 689 q 691 755 703 723 q 656 811 679 786 q 598 851 633 836 q 519 867 564 867 q 402 832 458 867 q 311 719 347 797 q 276 510 276 641 q 295 342 276 410 q 349 233 315 274 q 425 174 382 192 q 513 156 467 156 q 619 177 576 156 q 686 230 662 199 q 717 292 710 261 l 717 358 l 515 358 l 515 514 l 908 514 l 908 0 l 795 0 l 776 113 q 752 78 770 100 q 701 35 734 57 q 617 -2 668 13 q 495 -17 566 -17 m 275 1081 l 442 1224 l 583 1224 l 750 1081 l 611 1081 l 483 1194 l 540 1194 l 413 1081 l 275 1081 z "},"Ģ":{"ha":997,"x_min":57,"x_max":913,"o":"m 495 -17 q 274 44 374 -17 q 116 222 174 105 q 57 510 57 339 q 119 798 57 680 q 285 978 181 916 q 519 1040 390 1040 q 701 1005 626 1040 q 823 916 776 970 q 891 802 869 862 q 913 691 913 742 q 913 687 913 689 q 913 683 913 685 l 703 683 q 703 687 703 685 q 703 691 703 689 q 691 755 703 723 q 656 811 679 786 q 598 851 633 836 q 519 867 564 867 q 402 832 458 867 q 311 719 347 797 q 276 510 276 641 q 295 342 276 410 q 349 233 315 274 q 425 174 382 192 q 513 156 467 156 q 619 177 576 156 q 686 230 662 199 q 717 292 710 261 l 717 358 l 515 358 l 515 514 l 908 514 l 908 0 l 795 0 l 776 113 q 752 78 770 100 q 701 35 734 57 q 617 -2 668 13 q 495 -17 566 -17 m 491 -186 q 440 -169 459 -186 q 421 -122 421 -151 q 448 -70 421 -86 q 507 -55 476 -55 q 546 -63 526 -55 q 580 -89 566 -71 q 594 -140 594 -108 q 571 -227 594 -192 q 516 -284 548 -263 q 458 -316 485 -306 l 445 -283 q 489 -259 466 -274 q 527 -221 511 -244 q 542 -166 542 -198 q 523 -181 538 -176 q 491 -186 508 -186 z "},"Ġ":{"ha":997,"x_min":57,"x_max":913,"o":"m 495 -17 q 274 44 374 -17 q 116 222 174 105 q 57 510 57 339 q 119 798 57 680 q 285 978 181 916 q 519 1040 390 1040 q 701 1005 626 1040 q 823 916 776 970 q 891 802 869 862 q 913 691 913 742 q 913 687 913 689 q 913 683 913 685 l 703 683 q 703 687 703 685 q 703 691 703 689 q 691 755 703 723 q 656 811 679 786 q 598 851 633 836 q 519 867 564 867 q 402 832 458 867 q 311 719 347 797 q 276 510 276 641 q 295 342 276 410 q 349 233 315 274 q 425 174 382 192 q 513 156 467 156 q 619 177 576 156 q 686 230 662 199 q 717 292 710 261 l 717 358 l 515 358 l 515 514 l 908 514 l 908 0 l 795 0 l 776 113 q 752 78 770 100 q 701 35 734 57 q 617 -2 668 13 q 495 -17 566 -17 m 515 1085 q 427 1112 465 1085 q 390 1186 390 1138 q 427 1261 390 1235 q 515 1287 465 1287 q 602 1261 565 1287 q 639 1186 639 1235 q 602 1111 639 1138 q 515 1085 565 1085 z "},"Ḡ":{"ha":997,"x_min":57,"x_max":913,"o":"m 495 -17 q 274 44 374 -17 q 116 222 174 105 q 57 510 57 339 q 119 798 57 680 q 285 978 181 916 q 519 1040 390 1040 q 701 1005 626 1040 q 823 916 776 970 q 891 802 869 862 q 913 691 913 742 q 913 687 913 689 q 913 683 913 685 l 703 683 q 703 687 703 685 q 703 691 703 689 q 691 755 703 723 q 656 811 679 786 q 598 851 633 836 q 519 867 564 867 q 402 832 458 867 q 311 719 347 797 q 276 510 276 641 q 295 342 276 410 q 349 233 315 274 q 425 174 382 192 q 513 156 467 156 q 619 177 576 156 q 686 230 662 199 q 717 292 710 261 l 717 358 l 515 358 l 515 514 l 908 514 l 908 0 l 795 0 l 776 113 q 752 78 770 100 q 701 35 734 57 q 617 -2 668 13 q 495 -17 566 -17 m 296 1117 l 296 1207 l 728 1207 l 728 1117 l 296 1117 z "},"Ǥ":{"ha":976,"x_min":57,"x_max":975,"o":"m 502 231 l 502 349 l 975 349 l 975 231 l 502 231 m 483 -17 q 264 44 360 -17 q 112 222 167 105 q 57 510 57 339 q 117 798 57 680 q 278 978 176 916 q 507 1040 380 1040 q 689 1004 615 1040 q 811 914 764 969 q 879 798 858 858 q 901 687 901 738 q 901 683 901 685 q 901 678 901 681 l 691 678 q 691 683 691 681 q 691 687 691 685 q 679 751 691 719 q 644 809 667 783 q 586 851 621 835 q 507 867 552 867 q 393 832 446 867 q 307 719 340 797 q 274 510 274 641 q 292 338 274 406 q 342 230 310 269 q 415 173 374 190 q 501 156 456 156 q 607 177 565 156 q 674 228 650 198 q 706 288 699 259 l 706 400 l 503 400 l 503 539 l 897 539 l 897 0 l 783 0 l 764 113 q 740 78 758 100 q 689 35 722 57 q 605 -2 656 13 q 483 -17 554 -17 z "},"H":{"ha":973,"x_min":85,"x_max":888,"o":"m 888 1024 l 888 0 l 672 0 l 672 492 l 769 426 l 203 426 l 301 489 l 301 0 l 85 0 l 85 1024 l 301 1024 l 301 529 l 203 594 l 769 594 l 672 529 l 672 1024 l 888 1024 z "},"Ħ":{"ha":973,"x_min":26,"x_max":945,"o":"m 26 752 l 26 863 l 945 863 l 945 752 l 26 752 m 888 1024 l 888 0 l 672 0 l 672 492 l 769 426 l 203 426 l 301 489 l 301 0 l 85 0 l 85 1024 l 301 1024 l 301 529 l 203 594 l 769 594 l 672 529 l 672 1024 l 888 1024 z "},"Ḫ":{"ha":973,"x_min":85,"x_max":888,"o":"m 888 1024 l 888 0 l 672 0 l 672 492 l 769 426 l 203 426 l 301 489 l 301 0 l 85 0 l 85 1024 l 301 1024 l 301 529 l 203 594 l 769 594 l 672 529 l 672 1024 l 888 1024 m 285 -83 l 412 -83 q 432 -148 412 -125 q 487 -172 451 -172 q 543 -148 523 -172 q 563 -83 563 -125 l 688 -83 q 631 -211 688 -168 q 487 -254 574 -254 q 343 -211 400 -254 q 285 -83 285 -168 z "},"Ĥ":{"ha":973,"x_min":85,"x_max":888,"o":"m 888 1024 l 888 0 l 672 0 l 672 492 l 769 426 l 203 426 l 301 489 l 301 0 l 85 0 l 85 1024 l 301 1024 l 301 529 l 203 594 l 769 594 l 672 529 l 672 1024 l 888 1024 m 249 1081 l 417 1224 l 558 1224 l 724 1081 l 585 1081 l 458 1194 l 515 1194 l 388 1081 l 249 1081 z "},"Ḥ":{"ha":973,"x_min":85,"x_max":888,"o":"m 888 1024 l 888 0 l 672 0 l 672 492 l 769 426 l 203 426 l 301 489 l 301 0 l 85 0 l 85 1024 l 301 1024 l 301 529 l 203 594 l 769 594 l 672 529 l 672 1024 l 888 1024 m 487 -286 q 400 -260 438 -286 q 363 -185 363 -233 q 400 -110 363 -137 q 487 -84 438 -84 q 574 -110 537 -84 q 612 -185 612 -137 q 574 -260 612 -234 q 487 -286 537 -286 z "},"I":{"ha":382,"x_min":85,"x_max":297,"o":"m 85 0 l 85 1024 l 297 1024 l 297 0 l 85 0 z "},"Í":{"ha":382,"x_min":76,"x_max":437,"o":"m 85 0 l 85 1024 l 297 1024 l 297 0 l 85 0 m 76 1082 l 265 1226 l 438 1226 l 226 1082 l 76 1082 z "},"Ĭ":{"ha":382,"x_min":-10,"x_max":393,"o":"m 85 0 l 85 1024 l 297 1024 l 297 0 l 85 0 m -10 1213 l 117 1213 q 136 1168 117 1187 q 192 1149 156 1149 q 247 1168 228 1149 q 267 1213 267 1187 l 393 1213 q 336 1107 393 1147 q 192 1066 278 1066 q 48 1107 105 1066 q -10 1213 -10 1147 z "},"Ǐ":{"ha":382,"x_min":-46,"x_max":429,"o":"m 85 0 l 85 1024 l 297 1024 l 297 0 l 85 0 m -46 1224 l 92 1224 l 219 1113 l 163 1113 l 290 1224 l 429 1224 l 263 1081 l 122 1081 l -46 1224 z "},"Î":{"ha":382,"x_min":-46,"x_max":429,"o":"m 85 0 l 85 1024 l 297 1024 l 297 0 l 85 0 m -46 1081 l 122 1224 l 263 1224 l 429 1081 l 290 1081 l 163 1194 l 219 1194 l 92 1081 l -46 1081 z "},"Ȉ":{"ha":382,"x_min":-139,"x_max":368,"o":"m 85 0 l 85 1024 l 297 1024 l 297 0 l 85 0 m 368 1081 l 251 1081 l 108 1226 l 240 1226 l 368 1081 m 138 1081 l 21 1081 l -138 1226 l -6 1226 l 138 1081 z "},"Ï":{"ha":382,"x_min":-51,"x_max":437,"o":"m 85 0 l 85 1024 l 297 1024 l 297 0 l 85 0 m 63 1074 q -16 1099 18 1074 q -51 1167 -51 1123 q -16 1236 -51 1212 q 63 1260 18 1260 q 143 1236 109 1260 q 177 1167 177 1212 q 143 1098 177 1122 q 63 1074 109 1074 m 322 1074 q 243 1099 277 1074 q 208 1167 208 1123 q 243 1236 208 1212 q 322 1260 277 1260 q 402 1236 368 1260 q 437 1167 437 1212 q 402 1098 437 1122 q 322 1074 368 1074 z "},"Ḯ":{"ha":382,"x_min":-51,"x_max":441,"o":"m 85 0 l 85 1024 l 297 1024 l 297 0 l 85 0 m 63 1074 q -16 1099 18 1074 q -51 1167 -51 1123 q -16 1236 -51 1212 q 63 1260 18 1260 q 143 1236 109 1260 q 177 1167 177 1212 q 143 1098 177 1122 q 63 1074 109 1074 m 322 1074 q 243 1099 277 1074 q 208 1167 208 1123 q 243 1236 208 1212 q 322 1260 277 1260 q 402 1236 368 1260 q 437 1167 437 1212 q 402 1098 437 1122 q 322 1074 368 1074 m 80 1303 l 269 1447 l 442 1447 l 230 1303 l 80 1303 z "},"İ":{"ha":382,"x_min":69,"x_max":318,"o":"m 85 0 l 85 1024 l 297 1024 l 297 0 l 85 0 m 194 1085 q 107 1112 144 1085 q 69 1186 69 1138 q 107 1261 69 1235 q 194 1287 144 1287 q 281 1261 244 1287 q 318 1186 318 1235 q 281 1111 318 1138 q 194 1085 244 1085 z "},"Ị":{"ha":382,"x_min":67,"x_max":316,"o":"m 85 0 l 85 1024 l 297 1024 l 297 0 l 85 0 m 191 -286 q 104 -260 142 -286 q 67 -185 67 -233 q 104 -110 67 -137 q 191 -84 142 -84 q 278 -110 241 -84 q 316 -185 316 -137 q 278 -260 316 -234 q 191 -286 241 -286 z "},"Ì":{"ha":382,"x_min":-53,"x_max":309,"o":"m 85 0 l 85 1024 l 297 1024 l 297 0 l 85 0 m 309 1082 l 158 1082 l -53 1226 l 119 1226 l 309 1082 z "},"Ỉ":{"ha":382,"x_min":42,"x_max":331,"o":"m 85 0 l 85 1024 l 297 1024 l 297 0 l 85 0 m 42 1254 q 186 1248 120 1254 q 291 1222 251 1242 q 331 1160 331 1202 q 305 1100 331 1123 q 234 1065 278 1076 q 133 1054 189 1054 l 111 1111 q 160 1116 133 1113 q 207 1128 188 1119 q 227 1151 227 1137 q 179 1180 227 1174 q 42 1187 131 1187 l 42 1254 z "},"Ȋ":{"ha":382,"x_min":-10,"x_max":393,"o":"m 85 0 l 85 1024 l 297 1024 l 297 0 l 85 0 m -10 1078 q 48 1184 -10 1144 q 192 1223 105 1223 q 336 1184 278 1223 q 393 1078 393 1144 l 267 1078 q 248 1123 267 1104 q 192 1141 228 1141 q 136 1123 156 1141 q 116 1078 116 1104 l -10 1078 z "},"Ī":{"ha":382,"x_min":-25,"x_max":408,"o":"m 85 0 l 85 1024 l 297 1024 l 297 0 l 85 0 m -25 1117 l -25 1207 l 408 1207 l 408 1117 l -25 1117 z "},"Į":{"ha":382,"x_min":53,"x_max":297,"o":"m 85 0 l 85 1024 l 297 1024 l 297 0 l 85 0 m 297 -206 l 297 -308 q 267 -311 283 -310 q 233 -312 250 -312 q 145 -301 186 -312 q 78 -265 104 -290 q 53 -198 53 -240 q 77 -117 53 -156 q 135 -47 102 -78 q 192 0 169 -17 l 297 0 q 249 -47 277 -17 q 199 -109 221 -77 q 178 -165 178 -141 q 197 -201 178 -191 q 244 -210 217 -210 q 272 -209 258 -210 q 297 -206 286 -207 z "},"Ĩ":{"ha":382,"x_min":-33,"x_max":428,"o":"m 85 0 l 85 1024 l 297 1024 l 297 0 l 85 0 m 427 1230 q 412 1158 427 1194 q 367 1098 397 1122 q 289 1073 337 1073 q 227 1088 252 1073 q 186 1115 202 1102 q 157 1139 171 1129 q 122 1149 142 1149 q 88 1132 99 1149 q 76 1088 76 1115 l -33 1088 q -17 1160 -33 1124 q 31 1222 -1 1197 q 110 1247 63 1247 q 170 1232 145 1247 q 210 1203 194 1217 q 242 1180 226 1190 q 276 1169 258 1169 q 307 1186 297 1169 q 318 1230 317 1203 l 427 1230 z "},"J":{"ha":810,"x_min":40,"x_max":725,"o":"m 383 -17 q 182 27 258 -17 q 73 151 107 72 q 40 333 40 230 q 40 358 40 346 q 40 381 40 369 l 253 381 q 253 368 253 376 q 253 353 253 360 q 264 257 253 302 q 303 184 275 212 q 383 156 332 156 q 463 185 436 156 q 500 261 490 213 q 510 367 510 309 l 510 1024 l 725 1024 l 725 337 q 709 201 725 265 q 654 88 692 137 q 549 11 615 39 q 383 -17 483 -17 z "},"Ĵ":{"ha":810,"x_min":40,"x_max":853,"o":"m 383 -17 q 182 27 258 -17 q 73 151 107 72 q 40 333 40 230 q 40 358 40 346 q 40 381 40 369 l 253 381 q 253 368 253 376 q 253 353 253 360 q 264 257 253 302 q 303 184 275 212 q 383 156 332 156 q 463 185 436 156 q 500 261 490 213 q 510 367 510 309 l 510 1024 l 725 1024 l 725 337 q 709 201 725 265 q 654 88 692 137 q 549 11 615 39 q 383 -17 483 -17 m 378 1081 l 545 1224 l 686 1224 l 853 1081 l 714 1081 l 586 1194 l 643 1194 l 516 1081 l 378 1081 z "},"K":{"ha":917,"x_min":85,"x_max":883,"o":"m 467 497 l 474 662 l 883 0 l 647 0 l 353 497 l 450 484 l 282 258 l 301 394 l 301 0 l 85 0 l 85 1024 l 301 1024 l 301 492 l 260 515 l 635 1024 l 863 1024 l 467 497 z "},"Ǩ":{"ha":917,"x_min":85,"x_max":883,"o":"m 467 497 l 474 662 l 883 0 l 647 0 l 353 497 l 450 484 l 282 258 l 301 394 l 301 0 l 85 0 l 85 1024 l 301 1024 l 301 492 l 260 515 l 635 1024 l 863 1024 l 467 497 m 228 1224 l 366 1224 l 493 1113 l 436 1113 l 564 1224 l 703 1224 l 536 1081 l 395 1081 l 228 1224 z "},"Ķ":{"ha":917,"x_min":85,"x_max":883,"o":"m 467 497 l 474 662 l 883 0 l 647 0 l 353 497 l 450 484 l 282 258 l 301 394 l 301 0 l 85 0 l 85 1024 l 301 1024 l 301 492 l 260 515 l 635 1024 l 863 1024 l 467 497 m 445 -186 q 394 -169 413 -186 q 375 -122 375 -151 q 402 -70 375 -86 q 461 -55 430 -55 q 500 -63 480 -55 q 534 -89 520 -71 q 548 -140 548 -108 q 525 -227 548 -192 q 470 -284 502 -263 q 412 -316 439 -306 l 399 -283 q 443 -259 420 -274 q 481 -221 465 -244 q 497 -166 497 -198 q 477 -181 492 -176 q 445 -186 462 -186 z "},"L":{"ha":733,"x_min":85,"x_max":682,"o":"m 85 0 l 85 1024 l 301 1024 l 301 65 l 203 176 l 682 176 l 682 0 l 85 0 z "},"Ǉ":{"ha":1529,"x_min":85,"x_max":1444,"o":"m 85 0 l 85 1024 l 301 1024 l 301 65 l 203 176 l 682 176 l 682 0 l 85 0 m 1102 -17 q 901 27 976 -17 q 792 151 826 72 q 758 333 758 230 q 758 358 758 346 q 758 381 758 369 l 972 381 q 972 368 972 376 q 972 353 972 360 q 983 257 972 302 q 1022 184 994 212 q 1102 156 1051 156 q 1182 185 1155 156 q 1219 261 1209 213 q 1228 367 1228 309 l 1228 1024 l 1444 1024 l 1444 337 q 1427 201 1444 265 q 1373 88 1411 137 q 1268 11 1334 39 q 1102 -17 1202 -17 z "},"Ĺ":{"ha":733,"x_min":75,"x_max":682,"o":"m 85 0 l 85 1024 l 301 1024 l 301 65 l 203 176 l 682 176 l 682 0 l 85 0 m 75 1082 l 265 1226 l 437 1226 l 225 1082 l 75 1082 z "},"Ľ":{"ha":733,"x_min":85,"x_max":682,"o":"m 85 0 l 85 1024 l 301 1024 l 301 65 l 203 176 l 682 176 l 682 0 l 85 0 m 635 1024 q 627 903 635 963 q 610 798 619 844 q 597 733 601 753 l 497 733 q 508 799 502 753 q 517 903 513 844 q 521 1024 521 962 l 635 1024 z "},"Ļ":{"ha":733,"x_min":85,"x_max":682,"o":"m 85 0 l 85 1024 l 301 1024 l 301 65 l 203 176 l 682 176 l 682 0 l 85 0 m 378 -186 q 327 -169 346 -186 q 308 -122 308 -151 q 335 -70 308 -86 q 394 -55 363 -55 q 433 -63 413 -55 q 467 -89 453 -71 q 481 -140 481 -108 q 458 -227 481 -192 q 403 -284 435 -263 q 344 -316 372 -306 l 332 -283 q 375 -259 353 -274 q 414 -221 398 -244 q 429 -166 429 -198 q 409 -181 424 -176 q 378 -186 394 -186 z "},"Ŀ":{"ha":733,"x_min":85,"x_max":682,"o":"m 85 0 l 85 1024 l 301 1024 l 301 65 l 203 176 l 682 176 l 682 0 l 85 0 m 560 450 q 478 483 512 450 q 445 564 445 516 q 478 644 445 611 q 560 678 512 678 q 640 644 607 678 q 674 564 674 611 q 640 483 674 516 q 560 450 607 450 z "},"Ḷ":{"ha":733,"x_min":85,"x_max":682,"o":"m 85 0 l 85 1024 l 301 1024 l 301 65 l 203 176 l 682 176 l 682 0 l 85 0 m 394 -286 q 308 -260 345 -286 q 270 -185 270 -233 q 308 -110 270 -137 q 394 -84 345 -84 q 482 -110 444 -84 q 519 -185 519 -137 q 482 -260 519 -234 q 394 -286 444 -286 z "},"ǈ":{"ha":1108,"x_min":85,"x_max":1050,"o":"m 85 0 l 85 1024 l 301 1024 l 301 65 l 203 176 l 682 176 l 682 0 l 85 0 m 710 -317 q 670 -316 690 -317 q 639 -314 651 -315 l 639 -155 q 670 -159 651 -157 q 710 -160 690 -160 q 765 -151 744 -160 q 797 -127 786 -142 q 811 -94 808 -112 q 815 -59 815 -76 l 815 738 l 1030 738 l 1030 -64 q 1019 -155 1030 -110 q 975 -236 1008 -199 q 878 -295 942 -273 q 710 -317 815 -317 m 925 858 q 838 884 875 858 q 801 958 801 910 q 838 1033 801 1007 q 925 1060 875 1060 q 1012 1033 975 1060 q 1049 958 1049 1007 q 1012 884 1049 910 q 925 858 975 858 z "},"Ḻ":{"ha":733,"x_min":85,"x_max":682,"o":"m 85 0 l 85 1024 l 301 1024 l 301 65 l 203 176 l 682 176 l 682 0 l 85 0 m 169 -210 l 169 -121 l 621 -121 l 621 -210 l 169 -210 z "},"Ł":{"ha":810,"x_min":-11,"x_max":758,"o":"m 601 554 l 60 263 l -11 410 l 529 702 l 601 554 m 162 0 l 162 1024 l 377 1024 l 377 65 l 280 176 l 758 176 l 758 0 l 162 0 z "},"M":{"ha":1274,"x_min":94,"x_max":1180,"o":"m 815 1024 l 1180 1024 l 1180 0 l 976 0 l 976 897 l 980 894 l 780 0 l 498 0 l 294 897 l 299 899 l 299 0 l 94 0 l 94 1024 l 458 1024 l 645 102 l 627 102 l 815 1024 z "},"Ṃ":{"ha":1274,"x_min":94,"x_max":1180,"o":"m 815 1024 l 1180 1024 l 1180 0 l 976 0 l 976 897 l 980 894 l 780 0 l 498 0 l 294 897 l 299 899 l 299 0 l 94 0 l 94 1024 l 458 1024 l 645 102 l 627 102 l 815 1024 m 638 -286 q 551 -260 588 -286 q 513 -185 513 -233 q 551 -110 513 -137 q 638 -84 588 -84 q 725 -110 688 -84 q 763 -185 763 -137 q 725 -260 763 -234 q 638 -286 688 -286 z "},"N":{"ha":1022,"x_min":85,"x_max":936,"o":"m 295 0 l 85 0 l 85 1024 l 419 1024 l 763 78 l 726 69 l 726 1024 l 936 1024 l 936 0 l 599 0 l 256 944 l 295 953 l 295 0 z "},"Ǌ":{"ha":1831,"x_min":85,"x_max":1747,"o":"m 295 0 l 85 0 l 85 1024 l 419 1024 l 763 78 l 726 69 l 726 1024 l 936 1024 l 936 0 l 599 0 l 256 944 l 295 953 l 295 0 m 1405 -17 q 1204 27 1279 -17 q 1095 151 1128 72 q 1061 333 1061 230 q 1061 358 1061 346 q 1061 381 1061 369 l 1275 381 q 1275 368 1275 376 q 1275 353 1275 360 q 1286 257 1275 302 q 1325 184 1297 212 q 1405 156 1353 156 q 1485 185 1458 156 q 1522 261 1512 213 q 1531 367 1531 309 l 1531 1024 l 1747 1024 l 1747 337 q 1730 201 1747 265 q 1675 88 1714 137 q 1571 11 1637 39 q 1405 -17 1505 -17 z "},"Ń":{"ha":1022,"x_min":85,"x_max":936,"o":"m 295 0 l 85 0 l 85 1024 l 419 1024 l 763 78 l 726 69 l 726 1024 l 936 1024 l 936 0 l 599 0 l 256 944 l 295 953 l 295 0 m 406 1082 l 596 1226 l 768 1226 l 556 1082 l 406 1082 z "},"Ň":{"ha":1022,"x_min":85,"x_max":936,"o":"m 295 0 l 85 0 l 85 1024 l 419 1024 l 763 78 l 726 69 l 726 1024 l 936 1024 l 936 0 l 599 0 l 256 944 l 295 953 l 295 0 m 285 1224 l 424 1224 l 551 1113 l 494 1113 l 622 1224 l 760 1224 l 594 1081 l 453 1081 l 285 1224 z "},"Ņ":{"ha":1022,"x_min":85,"x_max":936,"o":"m 295 0 l 85 0 l 85 1024 l 419 1024 l 763 78 l 726 69 l 726 1024 l 936 1024 l 936 0 l 599 0 l 256 944 l 295 953 l 295 0 m 506 -186 q 455 -169 474 -186 q 435 -122 435 -151 q 463 -70 435 -86 q 522 -55 490 -55 q 560 -63 540 -55 q 594 -89 581 -71 q 608 -140 608 -108 q 585 -227 608 -192 q 531 -284 563 -263 q 472 -316 499 -306 l 460 -283 q 503 -259 481 -274 q 541 -221 526 -244 q 557 -166 557 -198 q 537 -181 552 -176 q 506 -186 522 -186 z "},"Ṅ":{"ha":1022,"x_min":85,"x_max":936,"o":"m 295 0 l 85 0 l 85 1024 l 419 1024 l 763 78 l 726 69 l 726 1024 l 936 1024 l 936 0 l 599 0 l 256 944 l 295 953 l 295 0 m 525 1085 q 438 1112 475 1085 q 401 1186 401 1138 q 438 1261 401 1235 q 525 1287 475 1287 q 612 1261 575 1287 q 649 1186 649 1235 q 612 1111 649 1138 q 525 1085 575 1085 z "},"Ṇ":{"ha":1022,"x_min":85,"x_max":936,"o":"m 295 0 l 85 0 l 85 1024 l 419 1024 l 763 78 l 726 69 l 726 1024 l 936 1024 l 936 0 l 599 0 l 256 944 l 295 953 l 295 0 m 522 -286 q 435 -260 473 -286 q 398 -185 398 -233 q 435 -110 398 -137 q 522 -84 473 -84 q 610 -110 572 -84 q 647 -185 647 -137 q 610 -260 647 -234 q 522 -286 572 -286 z "},"Ŋ":{"ha":1022,"x_min":85,"x_max":936,"o":"m 555 -317 q 509 -314 532 -317 q 478 -310 485 -311 l 478 -153 q 512 -159 488 -156 q 556 -162 536 -162 q 625 -154 594 -162 q 678 -128 656 -145 q 712 -87 700 -112 q 724 -31 724 -62 l 724 0 l 597 0 l 271 902 l 295 906 l 295 0 l 85 0 l 85 1024 l 425 1024 l 753 110 l 726 106 l 726 1024 l 936 1024 l 936 -26 q 914 -159 936 -104 q 847 -249 892 -215 q 728 -300 801 -284 q 555 -317 656 -317 z "},"Ɲ":{"ha":1022,"x_min":-48,"x_max":936,"o":"m -48 -323 l -48 -169 q 11 -158 -14 -168 q 52 -128 35 -147 q 77 -84 69 -110 q 85 -24 85 -58 l 85 1024 l 428 1024 l 750 108 l 726 103 l 726 1024 l 936 1024 l 936 0 l 591 0 l 271 905 l 295 909 l 295 -24 q 285 -130 295 -78 q 241 -225 275 -182 q 139 -294 208 -267 q -48 -323 70 -320 z "},"ǋ":{"ha":1370,"x_min":85,"x_max":1313,"o":"m 295 0 l 85 0 l 85 1024 l 419 1024 l 763 78 l 726 69 l 726 1024 l 936 1024 l 936 0 l 599 0 l 256 944 l 295 953 l 295 0 m 972 -317 q 933 -316 952 -317 q 901 -314 914 -315 l 901 -155 q 933 -159 914 -157 q 972 -160 952 -160 q 1027 -151 1006 -160 q 1059 -127 1049 -142 q 1074 -94 1070 -112 q 1078 -59 1078 -76 l 1078 738 l 1292 738 l 1292 -64 q 1281 -155 1292 -110 q 1237 -236 1270 -199 q 1141 -295 1204 -273 q 972 -317 1077 -317 m 1188 858 q 1100 884 1138 858 q 1063 958 1063 910 q 1100 1033 1063 1007 q 1188 1060 1138 1060 q 1275 1033 1238 1060 q 1312 958 1312 1007 q 1275 884 1312 910 q 1188 858 1238 858 z "},"Ṉ":{"ha":1022,"x_min":85,"x_max":936,"o":"m 295 0 l 85 0 l 85 1024 l 419 1024 l 763 78 l 726 69 l 726 1024 l 936 1024 l 936 0 l 599 0 l 256 944 l 295 953 l 295 0 m 297 -210 l 297 -121 l 749 -121 l 749 -210 l 297 -210 z "},"Ñ":{"ha":1022,"x_min":85,"x_max":936,"o":"m 295 0 l 85 0 l 85 1024 l 419 1024 l 763 78 l 726 69 l 726 1024 l 936 1024 l 936 0 l 599 0 l 256 944 l 295 953 l 295 0 m 758 1230 q 743 1158 758 1194 q 698 1098 728 1122 q 620 1073 668 1073 q 558 1088 583 1073 q 517 1115 533 1102 q 488 1139 502 1129 q 453 1149 474 1149 q 419 1132 430 1149 q 407 1088 408 1115 l 298 1088 q 314 1160 298 1124 q 362 1222 330 1197 q 442 1247 394 1247 q 501 1232 476 1247 q 542 1203 526 1217 q 574 1180 558 1190 q 607 1169 590 1169 q 639 1186 628 1169 q 649 1230 649 1203 l 758 1230 z "},"O":{"ha":1036,"x_min":57,"x_max":978,"o":"m 518 -17 q 339 18 422 -17 q 192 120 256 53 q 93 286 129 188 q 57 513 57 385 q 93 740 57 642 q 192 905 128 838 q 338 1006 255 972 q 518 1040 422 1040 q 698 1006 614 1040 q 844 905 781 972 q 943 740 908 838 q 978 513 978 642 q 943 286 978 385 q 843 120 907 188 q 696 18 780 53 q 518 -17 613 -17 m 518 156 q 638 192 583 156 q 726 306 693 227 q 760 513 760 385 q 726 720 760 642 q 638 832 692 798 q 518 867 583 867 q 398 832 453 867 q 310 720 343 798 q 276 513 276 642 q 310 306 276 384 q 398 192 343 227 q 518 156 453 156 z "},"Ó":{"ha":1036,"x_min":57,"x_max":978,"o":"m 518 -17 q 339 18 422 -17 q 192 120 256 53 q 93 286 129 188 q 57 513 57 385 q 93 740 57 642 q 192 905 128 838 q 338 1006 255 972 q 518 1040 422 1040 q 698 1006 614 1040 q 844 905 781 972 q 943 740 908 838 q 978 513 978 642 q 943 286 978 385 q 843 120 907 188 q 696 18 780 53 q 518 -17 613 -17 m 518 156 q 638 192 583 156 q 726 306 693 227 q 760 513 760 385 q 726 720 760 642 q 638 832 692 798 q 518 867 583 867 q 398 832 453 867 q 310 720 343 798 q 276 513 276 642 q 310 306 276 384 q 398 192 343 227 q 518 156 453 156 m 401 1082 l 591 1226 l 763 1226 l 551 1082 l 401 1082 z "},"Ŏ":{"ha":1036,"x_min":57,"x_max":978,"o":"m 518 -17 q 339 18 422 -17 q 192 120 256 53 q 93 286 129 188 q 57 513 57 385 q 93 740 57 642 q 192 905 128 838 q 338 1006 255 972 q 518 1040 422 1040 q 698 1006 614 1040 q 844 905 781 972 q 943 740 908 838 q 978 513 978 642 q 943 286 978 385 q 843 120 907 188 q 696 18 780 53 q 518 -17 613 -17 m 518 156 q 638 192 583 156 q 726 306 693 227 q 760 513 760 385 q 726 720 760 642 q 638 832 692 798 q 518 867 583 867 q 398 832 453 867 q 310 720 343 798 q 276 513 276 642 q 310 306 276 384 q 398 192 343 227 q 518 156 453 156 m 317 1213 l 443 1213 q 463 1168 443 1187 q 518 1149 483 1149 q 574 1168 554 1149 q 593 1213 593 1187 l 719 1213 q 662 1107 719 1147 q 518 1066 605 1066 q 374 1107 431 1066 q 317 1213 317 1147 z "},"Ǒ":{"ha":1036,"x_min":57,"x_max":978,"o":"m 518 -17 q 339 18 422 -17 q 192 120 256 53 q 93 286 129 188 q 57 513 57 385 q 93 740 57 642 q 192 905 128 838 q 338 1006 255 972 q 518 1040 422 1040 q 698 1006 614 1040 q 844 905 781 972 q 943 740 908 838 q 978 513 978 642 q 943 286 978 385 q 843 120 907 188 q 696 18 780 53 q 518 -17 613 -17 m 518 156 q 638 192 583 156 q 726 306 693 227 q 760 513 760 385 q 726 720 760 642 q 638 832 692 798 q 518 867 583 867 q 398 832 453 867 q 310 720 343 798 q 276 513 276 642 q 310 306 276 384 q 398 192 343 227 q 518 156 453 156 m 280 1224 l 418 1224 l 545 1113 l 488 1113 l 616 1224 l 755 1224 l 588 1081 l 447 1081 l 280 1224 z "},"Ô":{"ha":1036,"x_min":57,"x_max":978,"o":"m 518 -17 q 339 18 422 -17 q 192 120 256 53 q 93 286 129 188 q 57 513 57 385 q 93 740 57 642 q 192 905 128 838 q 338 1006 255 972 q 518 1040 422 1040 q 698 1006 614 1040 q 844 905 781 972 q 943 740 908 838 q 978 513 978 642 q 943 286 978 385 q 843 120 907 188 q 696 18 780 53 q 518 -17 613 -17 m 518 156 q 638 192 583 156 q 726 306 693 227 q 760 513 760 385 q 726 720 760 642 q 638 832 692 798 q 518 867 583 867 q 398 832 453 867 q 310 720 343 798 q 276 513 276 642 q 310 306 276 384 q 398 192 343 227 q 518 156 453 156 m 280 1081 l 447 1224 l 588 1224 l 755 1081 l 616 1081 l 488 1194 l 545 1194 l 418 1081 l 280 1081 z "},"Ố":{"ha":1036,"x_min":57,"x_max":978,"o":"m 518 -17 q 339 18 422 -17 q 192 120 256 53 q 93 286 129 188 q 57 513 57 385 q 93 740 57 642 q 192 905 128 838 q 338 1006 255 972 q 518 1040 422 1040 q 698 1006 614 1040 q 844 905 781 972 q 943 740 908 838 q 978 513 978 642 q 943 286 978 385 q 843 120 907 188 q 696 18 780 53 q 518 -17 613 -17 m 518 156 q 638 192 583 156 q 726 306 693 227 q 760 513 760 385 q 726 720 760 642 q 638 832 692 798 q 518 867 583 867 q 398 832 453 867 q 310 720 343 798 q 276 513 276 642 q 310 306 276 384 q 398 192 343 227 q 518 156 453 156 m 280 1081 l 447 1224 l 588 1224 l 755 1081 l 616 1081 l 488 1194 l 545 1194 l 417 1081 l 280 1081 m 674 1190 l 829 1334 l 969 1334 l 804 1190 l 674 1190 z "},"Ộ":{"ha":1036,"x_min":57,"x_max":978,"o":"m 518 -17 q 339 18 422 -17 q 192 120 256 53 q 93 286 129 188 q 57 513 57 385 q 93 740 57 642 q 192 905 128 838 q 338 1006 255 972 q 518 1040 422 1040 q 698 1006 614 1040 q 844 905 781 972 q 943 740 908 838 q 978 513 978 642 q 943 286 978 385 q 843 120 907 188 q 696 18 780 53 q 518 -17 613 -17 m 518 156 q 638 192 583 156 q 726 306 693 227 q 760 513 760 385 q 726 720 760 642 q 638 832 692 798 q 518 867 583 867 q 398 832 453 867 q 310 720 343 798 q 276 513 276 642 q 310 306 276 384 q 398 192 343 227 q 518 156 453 156 m 517 -286 q 431 -260 468 -286 q 393 -185 393 -233 q 431 -110 393 -137 q 517 -84 468 -84 q 605 -110 567 -84 q 642 -185 642 -137 q 605 -260 642 -234 q 517 -286 567 -286 m 280 1081 l 447 1224 l 588 1224 l 755 1081 l 616 1081 l 488 1194 l 545 1194 l 418 1081 l 280 1081 z "},"Ồ":{"ha":1036,"x_min":57,"x_max":978,"o":"m 518 -17 q 339 18 422 -17 q 192 120 256 53 q 93 286 129 188 q 57 513 57 385 q 93 740 57 642 q 192 905 128 838 q 338 1006 255 972 q 518 1040 422 1040 q 698 1006 614 1040 q 844 905 781 972 q 943 740 908 838 q 978 513 978 642 q 943 286 978 385 q 843 120 907 188 q 696 18 780 53 q 518 -17 613 -17 m 518 156 q 638 192 583 156 q 726 306 693 227 q 760 513 760 385 q 726 720 760 642 q 638 832 692 798 q 518 867 583 867 q 398 832 453 867 q 310 720 343 798 q 276 513 276 642 q 310 306 276 384 q 398 192 343 227 q 518 156 453 156 m 282 1081 l 449 1224 l 590 1224 l 757 1081 l 618 1081 l 490 1194 l 547 1194 l 420 1081 l 282 1081 m 869 1190 l 740 1190 l 574 1334 l 715 1334 l 869 1190 z "},"Ổ":{"ha":1036,"x_min":57,"x_max":978,"o":"m 518 -17 q 339 18 422 -17 q 192 120 256 53 q 93 286 129 188 q 57 513 57 385 q 93 740 57 642 q 192 905 128 838 q 338 1006 255 972 q 518 1040 422 1040 q 698 1006 614 1040 q 844 905 781 972 q 943 740 908 838 q 978 513 978 642 q 943 286 978 385 q 843 120 907 188 q 696 18 780 53 q 518 -17 613 -17 m 518 156 q 638 192 583 156 q 726 306 693 227 q 760 513 760 385 q 726 720 760 642 q 638 832 692 798 q 518 867 583 867 q 398 832 453 867 q 310 720 343 798 q 276 513 276 642 q 310 306 276 384 q 398 192 343 227 q 518 156 453 156 m 281 1081 l 448 1224 l 589 1224 l 756 1081 l 617 1081 l 489 1194 l 546 1194 l 419 1081 l 281 1081 m 601 1386 q 745 1380 679 1386 q 850 1354 810 1374 q 890 1292 890 1334 q 864 1232 890 1256 q 793 1198 838 1209 q 692 1187 748 1187 l 670 1243 q 719 1248 692 1244 q 766 1260 747 1252 q 786 1283 786 1269 q 738 1313 786 1306 q 601 1319 689 1319 l 601 1386 z "},"Ỗ":{"ha":1036,"x_min":57,"x_max":978,"o":"m 518 -17 q 339 18 422 -17 q 192 120 256 53 q 93 286 129 188 q 57 513 57 385 q 93 740 57 642 q 192 905 128 838 q 338 1006 255 972 q 518 1040 422 1040 q 698 1006 614 1040 q 844 905 781 972 q 943 740 908 838 q 978 513 978 642 q 943 286 978 385 q 843 120 907 188 q 696 18 780 53 q 518 -17 613 -17 m 518 156 q 638 192 583 156 q 726 306 693 227 q 760 513 760 385 q 726 720 760 642 q 638 832 692 798 q 518 867 583 867 q 398 832 453 867 q 310 720 343 798 q 276 513 276 642 q 310 306 276 384 q 398 192 343 227 q 518 156 453 156 m 280 1081 l 447 1224 l 588 1224 l 755 1081 l 616 1081 l 488 1194 l 545 1194 l 418 1081 l 280 1081 m 753 1430 q 739 1358 753 1394 q 693 1298 724 1322 q 615 1273 663 1273 q 553 1288 578 1273 q 513 1315 528 1302 q 483 1339 497 1329 q 449 1349 469 1349 q 414 1332 425 1349 q 402 1288 403 1315 l 293 1288 q 309 1360 293 1324 q 357 1422 325 1397 q 437 1447 389 1447 q 496 1432 472 1447 q 537 1403 521 1417 q 569 1380 553 1390 q 602 1369 585 1369 q 634 1386 624 1369 q 644 1430 644 1403 l 753 1430 z "},"Ȍ":{"ha":1036,"x_min":57,"x_max":978,"o":"m 518 -17 q 339 18 422 -17 q 192 120 256 53 q 93 286 129 188 q 57 513 57 385 q 93 740 57 642 q 192 905 128 838 q 338 1006 255 972 q 518 1040 422 1040 q 698 1006 614 1040 q 844 905 781 972 q 943 740 908 838 q 978 513 978 642 q 943 286 978 385 q 843 120 907 188 q 696 18 780 53 q 518 -17 613 -17 m 518 156 q 638 192 583 156 q 726 306 693 227 q 760 513 760 385 q 726 720 760 642 q 638 832 692 798 q 518 867 583 867 q 398 832 453 867 q 310 720 343 798 q 276 513 276 642 q 310 306 276 384 q 398 192 343 227 q 518 156 453 156 m 694 1081 l 577 1081 l 433 1226 l 566 1226 l 694 1081 m 463 1081 l 347 1081 l 188 1226 l 320 1226 l 463 1081 z "},"Ö":{"ha":1036,"x_min":57,"x_max":978,"o":"m 518 -17 q 339 18 422 -17 q 192 120 256 53 q 93 286 129 188 q 57 513 57 385 q 93 740 57 642 q 192 905 128 838 q 338 1006 255 972 q 518 1040 422 1040 q 698 1006 614 1040 q 844 905 781 972 q 943 740 908 838 q 978 513 978 642 q 943 286 978 385 q 843 120 907 188 q 696 18 780 53 q 518 -17 613 -17 m 518 156 q 638 192 583 156 q 726 306 693 227 q 760 513 760 385 q 726 720 760 642 q 638 832 692 798 q 518 867 583 867 q 398 832 453 867 q 310 720 343 798 q 276 513 276 642 q 310 306 276 384 q 398 192 343 227 q 518 156 453 156 m 351 1071 q 270 1095 305 1071 q 236 1164 236 1119 q 270 1233 236 1208 q 351 1257 305 1257 q 430 1233 396 1257 q 465 1164 465 1208 q 430 1095 465 1119 q 351 1071 396 1071 m 685 1071 q 606 1095 640 1071 q 572 1164 572 1119 q 606 1233 572 1208 q 685 1257 640 1257 q 766 1233 731 1257 q 800 1164 800 1208 q 766 1095 800 1119 q 685 1071 731 1071 z "},"Ȫ":{"ha":1036,"x_min":57,"x_max":978,"o":"m 518 -17 q 339 18 422 -17 q 192 120 256 53 q 93 286 129 188 q 57 513 57 385 q 93 740 57 642 q 192 905 128 838 q 338 1006 255 972 q 518 1040 422 1040 q 698 1006 614 1040 q 844 905 781 972 q 943 740 908 838 q 978 513 978 642 q 943 286 978 385 q 843 120 907 188 q 696 18 780 53 q 518 -17 613 -17 m 518 156 q 638 192 583 156 q 726 306 693 227 q 760 513 760 385 q 726 720 760 642 q 638 832 692 798 q 518 867 583 867 q 398 832 453 867 q 310 720 343 798 q 276 513 276 642 q 310 306 276 384 q 398 192 343 227 q 518 156 453 156 m 351 1071 q 270 1095 305 1071 q 236 1164 236 1119 q 270 1233 236 1208 q 351 1257 305 1257 q 430 1233 396 1257 q 465 1164 465 1208 q 430 1095 465 1119 q 351 1071 396 1071 m 685 1071 q 606 1095 640 1071 q 572 1164 572 1119 q 606 1233 572 1208 q 685 1257 640 1257 q 766 1233 731 1257 q 800 1164 800 1208 q 766 1095 800 1119 q 685 1071 731 1071 m 301 1322 l 301 1412 l 733 1412 l 733 1322 l 301 1322 z "},"Ȱ":{"ha":1036,"x_min":57,"x_max":978,"o":"m 518 -17 q 339 18 422 -17 q 192 120 256 53 q 93 286 129 188 q 57 513 57 385 q 93 740 57 642 q 192 905 128 838 q 338 1006 255 972 q 518 1040 422 1040 q 698 1006 614 1040 q 844 905 781 972 q 943 740 908 838 q 978 513 978 642 q 943 286 978 385 q 843 120 907 188 q 696 18 780 53 q 518 -17 613 -17 m 518 156 q 638 192 583 156 q 726 306 693 227 q 760 513 760 385 q 726 720 760 642 q 638 832 692 798 q 518 867 583 867 q 398 832 453 867 q 310 720 343 798 q 276 513 276 642 q 310 306 276 384 q 398 192 343 227 q 518 156 453 156 m 519 1085 q 432 1112 469 1085 q 395 1186 395 1138 q 432 1261 395 1235 q 519 1287 469 1287 q 607 1261 569 1287 q 644 1186 644 1235 q 607 1111 644 1138 q 519 1085 569 1085 m 303 1380 l 303 1469 l 735 1469 l 735 1380 l 303 1380 z "},"Ọ":{"ha":1036,"x_min":57,"x_max":978,"o":"m 518 -17 q 339 18 422 -17 q 192 120 256 53 q 93 286 129 188 q 57 513 57 385 q 93 740 57 642 q 192 905 128 838 q 338 1006 255 972 q 518 1040 422 1040 q 698 1006 614 1040 q 844 905 781 972 q 943 740 908 838 q 978 513 978 642 q 943 286 978 385 q 843 120 907 188 q 696 18 780 53 q 518 -17 613 -17 m 518 156 q 638 192 583 156 q 726 306 693 227 q 760 513 760 385 q 726 720 760 642 q 638 832 692 798 q 518 867 583 867 q 398 832 453 867 q 310 720 343 798 q 276 513 276 642 q 310 306 276 384 q 398 192 343 227 q 518 156 453 156 m 517 -286 q 431 -260 468 -286 q 393 -185 393 -233 q 431 -110 393 -137 q 517 -84 468 -84 q 605 -110 567 -84 q 642 -185 642 -137 q 605 -260 642 -234 q 517 -286 567 -286 z "},"Ò":{"ha":1036,"x_min":57,"x_max":978,"o":"m 518 -17 q 339 18 422 -17 q 192 120 256 53 q 93 286 129 188 q 57 513 57 385 q 93 740 57 642 q 192 905 128 838 q 338 1006 255 972 q 518 1040 422 1040 q 698 1006 614 1040 q 844 905 781 972 q 943 740 908 838 q 978 513 978 642 q 943 286 978 385 q 843 120 907 188 q 696 18 780 53 q 518 -17 613 -17 m 518 156 q 638 192 583 156 q 726 306 693 227 q 760 513 760 385 q 726 720 760 642 q 638 832 692 798 q 518 867 583 867 q 398 832 453 867 q 310 720 343 798 q 276 513 276 642 q 310 306 276 384 q 398 192 343 227 q 518 156 453 156 m 635 1082 l 484 1082 l 273 1226 l 445 1226 l 635 1082 z "},"Ỏ":{"ha":1036,"x_min":57,"x_max":978,"o":"m 518 -17 q 339 18 422 -17 q 192 120 256 53 q 93 286 129 188 q 57 513 57 385 q 93 740 57 642 q 192 905 128 838 q 338 1006 255 972 q 518 1040 422 1040 q 698 1006 614 1040 q 844 905 781 972 q 943 740 908 838 q 978 513 978 642 q 943 286 978 385 q 843 120 907 188 q 696 18 780 53 q 518 -17 613 -17 m 518 156 q 638 192 583 156 q 726 306 693 227 q 760 513 760 385 q 726 720 760 642 q 638 832 692 798 q 518 867 583 867 q 398 832 453 867 q 310 720 343 798 q 276 513 276 642 q 310 306 276 384 q 398 192 343 227 q 518 156 453 156 m 368 1254 q 511 1248 446 1254 q 617 1222 577 1242 q 657 1160 657 1202 q 631 1100 657 1123 q 559 1065 604 1076 q 459 1054 515 1054 l 437 1111 q 486 1116 459 1113 q 533 1128 513 1119 q 553 1151 553 1137 q 505 1180 553 1174 q 368 1187 456 1187 l 368 1254 z "},"Ơ":{"ha":1044,"x_min":57,"x_max":1013,"o":"m 774 957 q 855 1002 830 957 q 881 1137 881 1048 l 1013 1137 q 949 922 1013 990 q 774 853 885 853 l 774 957 m 518 -17 q 339 18 422 -17 q 192 120 256 53 q 93 286 129 188 q 57 513 57 385 q 93 740 57 642 q 192 905 128 838 q 338 1006 255 972 q 518 1040 422 1040 q 698 1006 614 1040 q 844 905 781 972 q 943 740 908 838 q 978 513 978 642 q 943 286 978 385 q 843 120 907 188 q 696 18 780 53 q 518 -17 613 -17 m 518 156 q 638 192 583 156 q 726 306 693 227 q 760 513 760 385 q 726 720 760 642 q 638 832 692 798 q 518 867 583 867 q 398 832 453 867 q 310 720 343 798 q 276 513 276 642 q 310 306 276 384 q 398 192 343 227 q 518 156 453 156 z "},"Ớ":{"ha":1044,"x_min":57,"x_max":1013,"o":"m 774 957 q 855 1002 830 957 q 881 1137 881 1048 l 1013 1137 q 949 922 1013 990 q 774 853 885 853 l 774 957 m 518 -17 q 339 18 422 -17 q 192 120 256 53 q 93 286 129 188 q 57 513 57 385 q 93 740 57 642 q 192 905 128 838 q 338 1006 255 972 q 518 1040 422 1040 q 698 1006 614 1040 q 844 905 781 972 q 943 740 908 838 q 978 513 978 642 q 943 286 978 385 q 843 120 907 188 q 696 18 780 53 q 518 -17 613 -17 m 518 156 q 638 192 583 156 q 726 306 693 227 q 760 513 760 385 q 726 720 760 642 q 638 832 692 798 q 518 867 583 867 q 398 832 453 867 q 310 720 343 798 q 276 513 276 642 q 310 306 276 384 q 398 192 343 227 q 518 156 453 156 m 401 1082 l 591 1226 l 763 1226 l 551 1082 l 401 1082 z "},"Ợ":{"ha":1044,"x_min":57,"x_max":1013,"o":"m 774 957 q 855 1002 830 957 q 881 1137 881 1048 l 1013 1137 q 949 922 1013 990 q 774 853 885 853 l 774 957 m 518 -17 q 339 18 422 -17 q 192 120 256 53 q 93 286 129 188 q 57 513 57 385 q 93 740 57 642 q 192 905 128 838 q 338 1006 255 972 q 518 1040 422 1040 q 698 1006 614 1040 q 844 905 781 972 q 943 740 908 838 q 978 513 978 642 q 943 286 978 385 q 843 120 907 188 q 696 18 780 53 q 518 -17 613 -17 m 518 156 q 638 192 583 156 q 726 306 693 227 q 760 513 760 385 q 726 720 760 642 q 638 832 692 798 q 518 867 583 867 q 398 832 453 867 q 310 720 343 798 q 276 513 276 642 q 310 306 276 384 q 398 192 343 227 q 518 156 453 156 m 518 -286 q 431 -260 469 -286 q 394 -185 394 -233 q 431 -110 394 -137 q 518 -84 469 -84 q 606 -110 568 -84 q 643 -185 643 -137 q 606 -260 643 -234 q 518 -286 568 -286 z "},"Ờ":{"ha":1044,"x_min":57,"x_max":1013,"o":"m 774 957 q 855 1002 830 957 q 881 1137 881 1048 l 1013 1137 q 949 922 1013 990 q 774 853 885 853 l 774 957 m 518 -17 q 339 18 422 -17 q 192 120 256 53 q 93 286 129 188 q 57 513 57 385 q 93 740 57 642 q 192 905 128 838 q 338 1006 255 972 q 518 1040 422 1040 q 698 1006 614 1040 q 844 905 781 972 q 943 740 908 838 q 978 513 978 642 q 943 286 978 385 q 843 120 907 188 q 696 18 780 53 q 518 -17 613 -17 m 518 156 q 638 192 583 156 q 726 306 693 227 q 760 513 760 385 q 726 720 760 642 q 638 832 692 798 q 518 867 583 867 q 398 832 453 867 q 310 720 343 798 q 276 513 276 642 q 310 306 276 384 q 398 192 343 227 q 518 156 453 156 m 635 1082 l 485 1082 l 274 1226 l 446 1226 l 635 1082 z "},"Ở":{"ha":1044,"x_min":57,"x_max":1013,"o":"m 774 957 q 855 1002 830 957 q 881 1137 881 1048 l 1013 1137 q 949 922 1013 990 q 774 853 885 853 l 774 957 m 518 -17 q 339 18 422 -17 q 192 120 256 53 q 93 286 129 188 q 57 513 57 385 q 93 740 57 642 q 192 905 128 838 q 338 1006 255 972 q 518 1040 422 1040 q 698 1006 614 1040 q 844 905 781 972 q 943 740 908 838 q 978 513 978 642 q 943 286 978 385 q 843 120 907 188 q 696 18 780 53 q 518 -17 613 -17 m 518 156 q 638 192 583 156 q 726 306 693 227 q 760 513 760 385 q 726 720 760 642 q 638 832 692 798 q 518 867 583 867 q 398 832 453 867 q 310 720 343 798 q 276 513 276 642 q 310 306 276 384 q 398 192 343 227 q 518 156 453 156 m 369 1254 q 512 1248 447 1254 q 618 1222 578 1242 q 658 1160 658 1202 q 631 1100 658 1123 q 560 1065 605 1076 q 460 1054 515 1054 l 438 1111 q 487 1116 460 1113 q 534 1128 514 1119 q 553 1151 553 1137 q 505 1180 553 1174 q 369 1187 457 1187 l 369 1254 z "},"Ỡ":{"ha":1044,"x_min":57,"x_max":1013,"o":"m 774 957 q 855 1002 830 957 q 881 1137 881 1048 l 1013 1137 q 949 922 1013 990 q 774 853 885 853 l 774 957 m 518 -17 q 339 18 422 -17 q 192 120 256 53 q 93 286 129 188 q 57 513 57 385 q 93 740 57 642 q 192 905 128 838 q 338 1006 255 972 q 518 1040 422 1040 q 698 1006 614 1040 q 844 905 781 972 q 943 740 908 838 q 978 513 978 642 q 943 286 978 385 q 843 120 907 188 q 696 18 780 53 q 518 -17 613 -17 m 518 156 q 638 192 583 156 q 726 306 693 227 q 760 513 760 385 q 726 720 760 642 q 638 832 692 798 q 518 867 583 867 q 398 832 453 867 q 310 720 343 798 q 276 513 276 642 q 310 306 276 384 q 398 192 343 227 q 518 156 453 156 m 753 1230 q 739 1158 753 1194 q 693 1098 724 1122 q 615 1073 663 1073 q 553 1088 578 1073 q 513 1115 528 1102 q 483 1139 497 1129 q 449 1149 469 1149 q 414 1132 425 1149 q 402 1088 403 1115 l 293 1088 q 309 1160 293 1124 q 357 1222 325 1197 q 437 1247 389 1247 q 496 1232 472 1247 q 537 1203 521 1217 q 569 1180 553 1190 q 602 1169 585 1169 q 634 1186 624 1169 q 644 1230 644 1203 l 753 1230 z "},"Ő":{"ha":1036,"x_min":57,"x_max":978,"o":"m 518 -17 q 339 18 422 -17 q 192 120 256 53 q 93 286 129 188 q 57 513 57 385 q 93 740 57 642 q 192 905 128 838 q 338 1006 255 972 q 518 1040 422 1040 q 698 1006 614 1040 q 844 905 781 972 q 943 740 908 838 q 978 513 978 642 q 943 286 978 385 q 843 120 907 188 q 696 18 780 53 q 518 -17 613 -17 m 518 156 q 638 192 583 156 q 726 306 693 227 q 760 513 760 385 q 726 720 760 642 q 638 832 692 798 q 518 867 583 867 q 398 832 453 867 q 310 720 343 798 q 276 513 276 642 q 310 306 276 384 q 398 192 343 227 q 518 156 453 156 m 333 1082 l 504 1226 l 641 1226 l 456 1082 l 333 1082 m 572 1082 l 743 1226 l 880 1226 l 695 1082 l 572 1082 z "},"Ȏ":{"ha":1036,"x_min":57,"x_max":978,"o":"m 518 -17 q 339 18 422 -17 q 192 120 256 53 q 93 286 129 188 q 57 513 57 385 q 93 740 57 642 q 192 905 128 838 q 338 1006 255 972 q 518 1040 422 1040 q 698 1006 614 1040 q 844 905 781 972 q 943 740 908 838 q 978 513 978 642 q 943 286 978 385 q 843 120 907 188 q 696 18 780 53 q 518 -17 613 -17 m 518 156 q 638 192 583 156 q 726 306 693 227 q 760 513 760 385 q 726 720 760 642 q 638 832 692 798 q 518 867 583 867 q 398 832 453 867 q 310 720 343 798 q 276 513 276 642 q 310 306 276 384 q 398 192 343 227 q 518 156 453 156 m 317 1078 q 374 1184 317 1144 q 518 1223 431 1223 q 662 1184 605 1223 q 719 1078 719 1144 l 594 1078 q 574 1123 594 1104 q 518 1141 554 1141 q 463 1123 483 1141 q 442 1078 442 1104 l 317 1078 z "},"Ō":{"ha":1036,"x_min":57,"x_max":978,"o":"m 518 -17 q 339 18 422 -17 q 192 120 256 53 q 93 286 129 188 q 57 513 57 385 q 93 740 57 642 q 192 905 128 838 q 338 1006 255 972 q 518 1040 422 1040 q 698 1006 614 1040 q 844 905 781 972 q 943 740 908 838 q 978 513 978 642 q 943 286 978 385 q 843 120 907 188 q 696 18 780 53 q 518 -17 613 -17 m 518 156 q 638 192 583 156 q 726 306 693 227 q 760 513 760 385 q 726 720 760 642 q 638 832 692 798 q 518 867 583 867 q 398 832 453 867 q 310 720 343 798 q 276 513 276 642 q 310 306 276 384 q 398 192 343 227 q 518 156 453 156 m 301 1117 l 301 1207 l 733 1207 l 733 1117 l 301 1117 z "},"Ṓ":{"ha":1036,"x_min":57,"x_max":978,"o":"m 518 -17 q 339 18 422 -17 q 192 120 256 53 q 93 286 129 188 q 57 513 57 385 q 93 740 57 642 q 192 905 128 838 q 338 1006 255 972 q 518 1040 422 1040 q 698 1006 614 1040 q 844 905 781 972 q 943 740 908 838 q 978 513 978 642 q 943 286 978 385 q 843 120 907 188 q 696 18 780 53 q 518 -17 613 -17 m 518 156 q 638 192 583 156 q 726 306 693 227 q 760 513 760 385 q 726 720 760 642 q 638 832 692 798 q 518 867 583 867 q 398 832 453 867 q 310 720 343 798 q 276 513 276 642 q 310 306 276 384 q 398 192 343 227 q 518 156 453 156 m 301 1117 l 301 1207 l 733 1207 l 733 1117 l 301 1117 m 401 1265 l 591 1408 l 763 1408 l 551 1265 l 401 1265 z "},"Ṑ":{"ha":1036,"x_min":57,"x_max":978,"o":"m 518 -17 q 339 18 422 -17 q 192 120 256 53 q 93 286 129 188 q 57 513 57 385 q 93 740 57 642 q 192 905 128 838 q 338 1006 255 972 q 518 1040 422 1040 q 698 1006 614 1040 q 844 905 781 972 q 943 740 908 838 q 978 513 978 642 q 943 286 978 385 q 843 120 907 188 q 696 18 780 53 q 518 -17 613 -17 m 518 156 q 638 192 583 156 q 726 306 693 227 q 760 513 760 385 q 726 720 760 642 q 638 832 692 798 q 518 867 583 867 q 398 832 453 867 q 310 720 343 798 q 276 513 276 642 q 310 306 276 384 q 398 192 343 227 q 518 156 453 156 m 301 1117 l 301 1207 l 733 1207 l 733 1117 l 301 1117 m 635 1265 l 484 1265 l 273 1408 l 445 1408 l 635 1265 z "},"Ǫ":{"ha":1036,"x_min":57,"x_max":978,"o":"m 697 -174 l 697 -278 q 667 -280 683 -279 q 632 -281 650 -281 q 545 -270 586 -281 q 478 -234 504 -260 q 453 -167 453 -209 q 477 -86 453 -125 q 535 -16 502 -47 q 592 31 568 15 l 697 31 q 649 -16 677 14 q 599 -78 620 -47 q 577 -133 577 -110 q 597 -169 577 -160 q 644 -179 617 -179 q 672 -178 658 -179 q 697 -174 686 -176 m 518 -17 q 339 18 422 -17 q 192 120 256 53 q 93 286 129 188 q 57 513 57 385 q 93 740 57 642 q 192 905 128 838 q 338 1006 255 972 q 518 1040 422 1040 q 698 1006 614 1040 q 844 905 781 972 q 943 740 908 838 q 978 513 978 642 q 943 286 978 385 q 843 120 907 188 q 696 18 780 53 q 518 -17 613 -17 m 518 156 q 638 192 583 156 q 726 306 693 227 q 760 513 760 385 q 726 720 760 642 q 638 832 692 798 q 518 867 583 867 q 398 832 453 867 q 310 720 343 798 q 276 513 276 642 q 310 306 276 384 q 398 192 343 227 q 518 156 453 156 z "},"Ø":{"ha":1036,"x_min":57,"x_max":978,"o":"m 909 1036 l 238 -74 l 127 -11 l 797 1099 l 909 1036 m 518 -17 q 339 18 422 -17 q 192 120 256 53 q 93 286 129 188 q 57 513 57 385 q 93 740 57 642 q 192 905 128 838 q 338 1006 255 972 q 518 1040 422 1040 q 698 1006 614 1040 q 844 905 781 972 q 943 740 908 838 q 978 513 978 642 q 943 286 978 385 q 843 120 907 188 q 696 18 780 53 q 518 -17 613 -17 m 518 156 q 638 192 583 156 q 726 306 693 227 q 760 513 760 385 q 726 720 760 642 q 638 832 692 798 q 518 867 583 867 q 398 832 453 867 q 310 720 343 798 q 276 513 276 642 q 310 306 276 384 q 398 192 343 227 q 518 156 453 156 z "},"Ǿ":{"ha":1036,"x_min":57,"x_max":978,"o":"m 909 1036 l 238 -74 l 127 -11 l 797 1099 l 909 1036 m 518 -17 q 339 18 422 -17 q 192 120 256 53 q 93 286 129 188 q 57 513 57 385 q 93 740 57 642 q 192 905 128 838 q 338 1006 255 972 q 518 1040 422 1040 q 698 1006 614 1040 q 844 905 781 972 q 943 740 908 838 q 978 513 978 642 q 943 286 978 385 q 843 120 907 188 q 696 18 780 53 q 518 -17 613 -17 m 518 156 q 638 192 583 156 q 726 306 693 227 q 760 513 760 385 q 726 720 760 642 q 638 832 692 798 q 518 867 583 867 q 398 832 453 867 q 310 720 343 798 q 276 513 276 642 q 310 306 276 384 q 398 192 343 227 q 518 156 453 156 m 393 1082 l 583 1226 l 755 1226 l 543 1082 l 393 1082 z "},"Õ":{"ha":1036,"x_min":57,"x_max":978,"o":"m 518 -17 q 339 18 422 -17 q 192 120 256 53 q 93 286 129 188 q 57 513 57 385 q 93 740 57 642 q 192 905 128 838 q 338 1006 255 972 q 518 1040 422 1040 q 698 1006 614 1040 q 844 905 781 972 q 943 740 908 838 q 978 513 978 642 q 943 286 978 385 q 843 120 907 188 q 696 18 780 53 q 518 -17 613 -17 m 518 156 q 638 192 583 156 q 726 306 693 227 q 760 513 760 385 q 726 720 760 642 q 638 832 692 798 q 518 867 583 867 q 398 832 453 867 q 310 720 343 798 q 276 513 276 642 q 310 306 276 384 q 398 192 343 227 q 518 156 453 156 m 753 1230 q 739 1158 753 1194 q 693 1098 724 1122 q 615 1073 663 1073 q 553 1088 578 1073 q 513 1115 528 1102 q 483 1139 497 1129 q 449 1149 469 1149 q 414 1132 425 1149 q 402 1088 403 1115 l 293 1088 q 309 1160 293 1124 q 357 1222 325 1197 q 437 1247 389 1247 q 496 1232 472 1247 q 537 1203 521 1217 q 569 1180 553 1190 q 602 1169 585 1169 q 634 1186 624 1169 q 644 1230 644 1203 l 753 1230 z "},"Ṍ":{"ha":960,"x_min":70,"x_max":890,"o":"m 670 1173 q 658 1129 669 1153 q 625 1087 648 1105 q 565 1069 602 1069 q 514 1081 535 1069 q 476 1105 492 1092 q 445 1124 461 1115 q 408 1133 429 1133 q 372 1118 382 1133 q 361 1086 363 1102 l 296 1086 q 310 1132 297 1108 q 347 1175 323 1157 q 408 1192 372 1192 q 459 1181 438 1192 q 494 1158 479 1170 q 526 1137 510 1147 q 560 1127 542 1127 q 596 1142 588 1127 q 606 1173 604 1156 l 670 1173 m 405 1237 l 577 1348 l 680 1348 l 499 1237 l 405 1237 m 480 -14 q 316 22 390 -14 q 186 125 241 57 q 100 290 131 192 q 70 513 70 388 q 100 736 70 638 q 186 900 131 833 q 316 1002 241 967 q 480 1037 391 1037 q 644 1002 569 1037 q 775 900 719 967 q 860 736 830 833 q 890 513 890 638 q 860 290 890 388 q 775 125 830 192 q 644 22 719 57 q 480 -14 569 -14 m 480 93 q 631 140 565 93 q 733 280 696 186 q 769 513 769 373 q 732 747 769 654 q 630 884 695 839 q 480 929 565 929 q 330 884 396 929 q 227 747 265 839 q 190 513 190 654 q 227 279 190 372 q 330 139 265 185 q 480 93 396 93 z "},"Ṏ":{"ha":1036,"x_min":57,"x_max":978,"o":"m 518 -17 q 339 18 422 -17 q 192 120 256 53 q 93 286 129 188 q 57 513 57 385 q 93 740 57 642 q 192 905 128 838 q 338 1006 255 972 q 518 1040 422 1040 q 698 1006 614 1040 q 844 905 781 972 q 943 740 908 838 q 978 513 978 642 q 943 286 978 385 q 843 120 907 188 q 696 18 780 53 q 518 -17 613 -17 m 518 156 q 638 192 583 156 q 726 306 693 227 q 760 513 760 385 q 726 720 760 642 q 638 832 692 798 q 518 867 583 867 q 398 832 453 867 q 310 720 343 798 q 276 513 276 642 q 310 306 276 384 q 398 192 343 227 q 518 156 453 156 m 753 1230 q 739 1158 753 1194 q 693 1098 724 1122 q 615 1073 663 1073 q 553 1088 578 1073 q 513 1115 528 1102 q 483 1139 497 1129 q 449 1149 469 1149 q 414 1132 425 1149 q 402 1088 403 1115 l 293 1088 q 309 1160 293 1124 q 357 1222 325 1197 q 437 1247 389 1247 q 496 1232 472 1247 q 537 1203 521 1217 q 569 1180 553 1190 q 602 1169 585 1169 q 634 1186 624 1169 q 644 1230 644 1203 l 753 1230 m 351 1294 q 270 1318 305 1294 q 236 1387 236 1342 q 270 1456 236 1431 q 351 1480 305 1480 q 430 1456 396 1480 q 465 1387 465 1431 q 430 1318 465 1342 q 351 1294 396 1294 m 685 1294 q 606 1318 640 1294 q 572 1387 572 1342 q 606 1456 572 1431 q 685 1480 640 1480 q 766 1456 731 1480 q 800 1387 800 1431 q 766 1318 800 1342 q 685 1294 731 1294 z "},"Ȭ":{"ha":1036,"x_min":57,"x_max":978,"o":"m 518 -17 q 339 18 422 -17 q 192 120 256 53 q 93 286 129 188 q 57 513 57 385 q 93 740 57 642 q 192 905 128 838 q 338 1006 255 972 q 518 1040 422 1040 q 698 1006 614 1040 q 844 905 781 972 q 943 740 908 838 q 978 513 978 642 q 943 286 978 385 q 843 120 907 188 q 696 18 780 53 q 518 -17 613 -17 m 518 156 q 638 192 583 156 q 726 306 693 227 q 760 513 760 385 q 726 720 760 642 q 638 832 692 798 q 518 867 583 867 q 398 832 453 867 q 310 720 343 798 q 276 513 276 642 q 310 306 276 384 q 398 192 343 227 q 518 156 453 156 m 753 1230 q 739 1158 753 1194 q 693 1098 724 1122 q 615 1073 663 1073 q 553 1088 578 1073 q 513 1115 528 1102 q 483 1139 497 1129 q 449 1149 469 1149 q 414 1132 425 1149 q 402 1088 403 1115 l 293 1088 q 309 1160 293 1124 q 357 1222 325 1197 q 437 1247 389 1247 q 496 1232 472 1247 q 537 1203 521 1217 q 569 1180 553 1190 q 602 1169 585 1169 q 634 1186 624 1169 q 644 1230 644 1203 l 753 1230 m 301 1340 l 301 1430 l 733 1430 l 733 1340 l 301 1340 z "},"Œ":{"ha":1452,"x_min":57,"x_max":1367,"o":"m 507 -17 q 278 44 380 -17 q 116 224 176 106 q 57 513 57 342 q 116 801 57 684 q 277 979 176 919 q 507 1040 378 1040 q 647 1015 583 1040 q 744 953 710 990 l 744 1024 l 1367 1024 l 1367 858 l 853 858 l 951 960 l 951 543 l 899 597 l 1301 597 l 1301 431 l 898 431 l 951 486 l 951 64 l 853 167 l 1367 167 l 1367 0 l 744 0 l 744 76 q 647 10 710 38 q 507 -17 583 -17 m 507 156 q 625 192 572 156 q 711 306 679 227 q 743 513 743 385 q 711 720 743 642 q 625 832 678 798 q 507 867 572 867 q 390 832 442 867 q 307 720 338 798 q 276 513 276 642 q 307 306 276 384 q 390 192 338 227 q 507 156 442 156 z "},"P":{"ha":859,"x_min":85,"x_max":808,"o":"m 301 0 l 85 0 l 85 1024 l 435 1024 q 636 979 553 1024 q 764 856 720 933 q 808 681 808 778 q 764 505 808 585 q 635 376 719 424 q 435 328 552 328 l 301 328 l 301 0 m 301 394 l 203 494 l 413 494 q 507 516 467 494 q 569 580 547 538 q 592 681 592 622 q 570 780 592 741 q 508 839 548 819 q 413 858 468 858 l 203 858 l 301 960 l 301 394 z "},"Þ":{"ha":828,"x_min":85,"x_max":771,"o":"m 85 0 l 85 1023 l 300 1023 l 300 733 l 235 799 l 434 799 q 610 766 535 799 q 728 668 686 733 q 771 506 771 603 q 728 343 771 408 q 609 246 685 278 q 434 213 533 213 l 235 213 l 300 279 l 300 0 l 85 0 m 300 323 l 249 380 l 413 380 q 487 394 455 380 q 538 437 519 409 q 557 506 557 465 q 538 576 557 549 q 487 618 519 604 q 413 632 454 632 l 244 632 l 300 693 l 300 323 z "},"Q":{"ha":1036,"x_min":57,"x_max":978,"o":"m 421 10 l 604 10 q 627 -46 604 -24 q 683 -82 651 -69 q 745 -101 716 -95 q 786 -109 775 -108 l 725 -253 q 681 -246 715 -252 q 603 -225 647 -240 q 517 -181 559 -210 q 448 -106 476 -152 q 421 10 421 -59 m 518 -17 q 339 18 422 -17 q 192 120 256 53 q 93 286 129 188 q 57 513 57 385 q 93 740 57 642 q 192 905 128 838 q 338 1006 255 972 q 518 1040 422 1040 q 698 1006 614 1040 q 844 905 781 972 q 943 740 908 838 q 978 513 978 642 q 943 286 978 385 q 843 120 907 188 q 696 18 780 53 q 518 -17 613 -17 m 518 156 q 638 192 583 156 q 726 306 693 227 q 760 513 760 385 q 726 720 760 642 q 638 832 692 798 q 518 867 583 867 q 398 832 453 867 q 310 720 343 798 q 276 513 276 642 q 310 306 276 384 q 398 192 343 227 q 518 156 453 156 z "},"R":{"ha":885,"x_min":85,"x_max":820,"o":"m 85 0 l 85 1024 l 500 1024 q 741 951 661 1024 q 820 740 820 878 q 790 605 820 661 q 716 519 760 549 q 631 485 672 488 q 711 464 673 482 q 773 406 749 445 q 797 299 797 366 q 797 202 797 250 q 797 104 797 154 q 802 41 797 70 q 818 0 808 13 l 602 0 q 588 42 593 14 q 582 104 582 70 q 582 189 582 149 q 582 274 582 230 q 551 368 582 335 q 451 401 519 401 l 238 401 l 296 469 l 296 0 l 85 0 m 296 489 l 238 567 l 453 567 q 528 586 495 567 q 580 640 560 605 q 599 721 599 674 q 559 822 599 786 q 449 858 520 858 l 233 858 l 296 928 l 296 489 z "},"Ŕ":{"ha":885,"x_min":85,"x_max":820,"o":"m 85 0 l 85 1024 l 500 1024 q 741 951 661 1024 q 820 740 820 878 q 790 605 820 661 q 716 519 760 549 q 631 485 672 488 q 711 464 673 482 q 773 406 749 445 q 797 299 797 366 q 797 202 797 250 q 797 104 797 154 q 802 41 797 70 q 818 0 808 13 l 602 0 q 588 42 593 14 q 582 104 582 70 q 582 189 582 149 q 582 274 582 230 q 551 368 582 335 q 451 401 519 401 l 238 401 l 296 469 l 296 0 l 85 0 m 296 489 l 238 567 l 453 567 q 528 586 495 567 q 580 640 560 605 q 599 721 599 674 q 559 822 599 786 q 449 858 520 858 l 233 858 l 296 928 l 296 489 m 303 1082 l 493 1226 l 665 1226 l 453 1082 l 303 1082 z "},"Ř":{"ha":885,"x_min":85,"x_max":820,"o":"m 85 0 l 85 1024 l 500 1024 q 741 951 661 1024 q 820 740 820 878 q 790 605 820 661 q 716 519 760 549 q 631 485 672 488 q 711 464 673 482 q 773 406 749 445 q 797 299 797 366 q 797 202 797 250 q 797 104 797 154 q 802 41 797 70 q 818 0 808 13 l 602 0 q 588 42 593 14 q 582 104 582 70 q 582 189 582 149 q 582 274 582 230 q 551 368 582 335 q 451 401 519 401 l 238 401 l 296 469 l 296 0 l 85 0 m 296 489 l 238 567 l 453 567 q 528 586 495 567 q 580 640 560 605 q 599 721 599 674 q 559 822 599 786 q 449 858 520 858 l 233 858 l 296 928 l 296 489 m 182 1224 l 320 1224 l 447 1113 l 390 1113 l 518 1224 l 657 1224 l 490 1081 l 349 1081 l 182 1224 z "},"Ŗ":{"ha":885,"x_min":85,"x_max":820,"o":"m 85 0 l 85 1024 l 500 1024 q 741 951 661 1024 q 820 740 820 878 q 790 605 820 661 q 716 519 760 549 q 631 485 672 488 q 711 464 673 482 q 773 406 749 445 q 797 299 797 366 q 797 202 797 250 q 797 104 797 154 q 802 41 797 70 q 818 0 808 13 l 602 0 q 588 42 593 14 q 582 104 582 70 q 582 189 582 149 q 582 274 582 230 q 551 368 582 335 q 451 401 519 401 l 238 401 l 296 469 l 296 0 l 85 0 m 296 489 l 238 567 l 453 567 q 528 586 495 567 q 580 640 560 605 q 599 721 599 674 q 559 822 599 786 q 449 858 520 858 l 233 858 l 296 928 l 296 489 m 438 -186 q 386 -169 406 -186 q 367 -122 367 -151 q 395 -70 367 -86 q 453 -55 422 -55 q 492 -63 472 -55 q 526 -89 513 -71 q 540 -140 540 -108 q 517 -227 540 -192 q 463 -284 494 -263 q 404 -316 431 -306 l 392 -283 q 435 -259 413 -274 q 473 -221 458 -244 q 489 -166 489 -198 q 469 -181 484 -176 q 438 -186 454 -186 z "},"Ȑ":{"ha":885,"x_min":85,"x_max":820,"o":"m 85 0 l 85 1024 l 500 1024 q 741 951 661 1024 q 820 740 820 878 q 790 605 820 661 q 716 519 760 549 q 631 485 672 488 q 711 464 673 482 q 773 406 749 445 q 797 299 797 366 q 797 202 797 250 q 797 104 797 154 q 802 41 797 70 q 818 0 808 13 l 602 0 q 588 42 593 14 q 582 104 582 70 q 582 189 582 149 q 582 274 582 230 q 551 368 582 335 q 451 401 519 401 l 238 401 l 296 469 l 296 0 l 85 0 m 296 489 l 238 567 l 453 567 q 528 586 495 567 q 580 640 560 605 q 599 721 599 674 q 559 822 599 786 q 449 858 520 858 l 233 858 l 296 928 l 296 489 m 596 1081 l 479 1081 l 335 1226 l 468 1226 l 596 1081 m 365 1081 l 249 1081 l 90 1226 l 222 1226 l 365 1081 z "},"Ṛ":{"ha":885,"x_min":85,"x_max":820,"o":"m 85 0 l 85 1024 l 500 1024 q 741 951 661 1024 q 820 740 820 878 q 790 605 820 661 q 716 519 760 549 q 631 485 672 488 q 711 464 673 482 q 773 406 749 445 q 797 299 797 366 q 797 202 797 250 q 797 104 797 154 q 802 41 797 70 q 818 0 808 13 l 602 0 q 588 42 593 14 q 582 104 582 70 q 582 189 582 149 q 582 274 582 230 q 551 368 582 335 q 451 401 519 401 l 238 401 l 296 469 l 296 0 l 85 0 m 296 489 l 238 567 l 453 567 q 528 586 495 567 q 580 640 560 605 q 599 721 599 674 q 559 822 599 786 q 449 858 520 858 l 233 858 l 296 928 l 296 489 m 454 -286 q 367 -260 405 -286 q 330 -185 330 -233 q 367 -110 330 -137 q 454 -84 405 -84 q 542 -110 504 -84 q 579 -185 579 -137 q 542 -260 579 -234 q 454 -286 504 -286 z "},"Ȓ":{"ha":885,"x_min":85,"x_max":820,"o":"m 85 0 l 85 1024 l 500 1024 q 741 951 661 1024 q 820 740 820 878 q 790 605 820 661 q 716 519 760 549 q 631 485 672 488 q 711 464 673 482 q 773 406 749 445 q 797 299 797 366 q 797 202 797 250 q 797 104 797 154 q 802 41 797 70 q 818 0 808 13 l 602 0 q 588 42 593 14 q 582 104 582 70 q 582 189 582 149 q 582 274 582 230 q 551 368 582 335 q 451 401 519 401 l 238 401 l 296 469 l 296 0 l 85 0 m 296 489 l 238 567 l 453 567 q 528 586 495 567 q 580 640 560 605 q 599 721 599 674 q 559 822 599 786 q 449 858 520 858 l 233 858 l 296 928 l 296 489 m 219 1078 q 276 1184 219 1144 q 420 1223 333 1223 q 564 1184 507 1223 q 622 1078 622 1144 l 496 1078 q 476 1123 496 1104 q 420 1141 456 1141 q 365 1123 385 1141 q 344 1078 344 1104 l 219 1078 z "},"Ṟ":{"ha":885,"x_min":85,"x_max":820,"o":"m 85 0 l 85 1024 l 500 1024 q 741 951 661 1024 q 820 740 820 878 q 790 605 820 661 q 716 519 760 549 q 631 485 672 488 q 711 464 673 482 q 773 406 749 445 q 797 299 797 366 q 797 202 797 250 q 797 104 797 154 q 802 41 797 70 q 818 0 808 13 l 602 0 q 588 42 593 14 q 582 104 582 70 q 582 189 582 149 q 582 274 582 230 q 551 368 582 335 q 451 401 519 401 l 238 401 l 296 469 l 296 0 l 85 0 m 296 489 l 238 567 l 453 567 q 528 586 495 567 q 580 640 560 605 q 599 721 599 674 q 559 822 599 786 q 449 858 520 858 l 233 858 l 296 928 l 296 489 m 228 -210 l 228 -121 l 681 -121 l 681 -210 l 228 -210 z "},"S":{"ha":866,"x_min":57,"x_max":808,"o":"m 432 -17 q 236 19 321 -17 q 105 125 152 54 q 57 300 57 195 q 57 320 57 311 q 57 341 57 330 l 273 341 q 273 323 273 331 q 273 304 273 315 q 313 194 273 233 q 433 156 353 156 q 556 182 513 156 q 599 265 599 207 q 566 338 599 306 q 479 393 534 369 q 353 440 424 418 q 210 503 276 464 q 104 604 144 543 q 64 755 64 665 q 112 909 64 845 q 242 1006 160 972 q 429 1040 325 1040 q 622 1006 538 1040 q 753 905 706 972 q 801 738 801 838 q 801 718 801 727 q 801 697 801 708 l 585 697 q 585 713 585 704 q 585 728 585 721 q 548 832 585 796 q 432 868 511 868 q 314 840 356 868 q 272 755 272 813 q 302 684 272 713 q 385 632 332 655 q 505 586 438 609 q 665 516 597 554 q 771 419 733 477 q 808 272 808 361 q 761 115 808 180 q 629 17 714 51 q 432 -17 544 -17 z "},"Ś":{"ha":866,"x_min":57,"x_max":808,"o":"m 432 -17 q 236 19 321 -17 q 105 125 152 54 q 57 300 57 195 q 57 320 57 311 q 57 341 57 330 l 273 341 q 273 323 273 331 q 273 304 273 315 q 313 194 273 233 q 433 156 353 156 q 556 182 513 156 q 599 265 599 207 q 566 338 599 306 q 479 393 534 369 q 353 440 424 418 q 210 503 276 464 q 104 604 144 543 q 64 755 64 665 q 112 909 64 845 q 242 1006 160 972 q 429 1040 325 1040 q 622 1006 538 1040 q 753 905 706 972 q 801 738 801 838 q 801 718 801 727 q 801 697 801 708 l 585 697 q 585 713 585 704 q 585 728 585 721 q 548 832 585 796 q 432 868 511 868 q 314 840 356 868 q 272 755 272 813 q 302 684 272 713 q 385 632 332 655 q 505 586 438 609 q 665 516 597 554 q 771 419 733 477 q 808 272 808 361 q 761 115 808 180 q 629 17 714 51 q 432 -17 544 -17 m 317 1082 l 506 1226 l 678 1226 l 467 1082 l 317 1082 z "},"Ṥ":{"ha":815,"x_min":70,"x_max":744,"o":"m 328 1073 l 508 1189 l 615 1189 l 427 1073 l 328 1073 m 408 1253 q 353 1271 376 1253 q 331 1319 331 1289 q 353 1367 331 1349 q 408 1385 376 1385 q 461 1367 438 1385 q 484 1319 484 1349 q 461 1271 484 1288 q 408 1253 438 1253 m 408 -14 q 226 20 301 -14 q 110 122 151 53 q 70 291 70 190 q 70 315 70 305 q 70 338 70 324 l 189 338 q 189 316 189 325 q 189 293 189 307 q 244 140 189 187 q 406 93 300 93 q 572 131 516 93 q 628 252 628 168 q 596 350 628 311 q 507 417 564 390 q 374 467 450 444 q 222 534 289 494 q 116 634 155 574 q 78 778 78 693 q 118 919 78 862 q 232 1007 159 977 q 401 1037 305 1037 q 579 1005 503 1037 q 695 909 654 974 q 737 748 737 845 q 737 722 737 733 q 737 696 737 711 l 618 696 q 618 719 618 709 q 618 743 618 730 q 563 887 618 844 q 403 930 508 930 q 248 894 303 930 q 193 778 193 859 q 227 679 193 718 q 319 612 260 640 q 452 560 377 585 q 609 492 543 530 q 709 398 674 454 q 744 256 744 342 q 704 110 744 171 q 588 18 663 50 q 408 -14 513 -14 z "},"Š":{"ha":866,"x_min":57,"x_max":808,"o":"m 432 -17 q 236 19 321 -17 q 105 125 152 54 q 57 300 57 195 q 57 320 57 311 q 57 341 57 330 l 273 341 q 273 323 273 331 q 273 304 273 315 q 313 194 273 233 q 433 156 353 156 q 556 182 513 156 q 599 265 599 207 q 566 338 599 306 q 479 393 534 369 q 353 440 424 418 q 210 503 276 464 q 104 604 144 543 q 64 755 64 665 q 112 909 64 845 q 242 1006 160 972 q 429 1040 325 1040 q 622 1006 538 1040 q 753 905 706 972 q 801 738 801 838 q 801 718 801 727 q 801 697 801 708 l 585 697 q 585 713 585 704 q 585 728 585 721 q 548 832 585 796 q 432 868 511 868 q 314 840 356 868 q 272 755 272 813 q 302 684 272 713 q 385 632 332 655 q 505 586 438 609 q 665 516 597 554 q 771 419 733 477 q 808 272 808 361 q 761 115 808 180 q 629 17 714 51 q 432 -17 544 -17 m 195 1224 l 333 1224 l 460 1113 l 403 1113 l 531 1224 l 670 1224 l 503 1081 l 363 1081 l 195 1224 z "},"Ṧ":{"ha":866,"x_min":57,"x_max":808,"o":"m 432 -17 q 236 19 321 -17 q 105 125 152 54 q 57 300 57 195 q 57 320 57 311 q 57 341 57 330 l 273 341 q 273 323 273 331 q 273 304 273 315 q 313 194 273 233 q 433 156 353 156 q 556 182 513 156 q 599 265 599 207 q 566 338 599 306 q 479 393 534 369 q 353 440 424 418 q 210 503 276 464 q 104 604 144 543 q 64 755 64 665 q 112 909 64 845 q 242 1006 160 972 q 429 1040 325 1040 q 622 1006 538 1040 q 753 905 706 972 q 801 738 801 838 q 801 718 801 727 q 801 697 801 708 l 585 697 q 585 713 585 704 q 585 728 585 721 q 548 832 585 796 q 432 868 511 868 q 314 840 356 868 q 272 755 272 813 q 302 684 272 713 q 385 632 332 655 q 505 586 438 609 q 665 516 597 554 q 771 419 733 477 q 808 272 808 361 q 761 115 808 180 q 629 17 714 51 q 432 -17 544 -17 m 195 1224 l 333 1224 l 460 1113 l 403 1113 l 531 1224 l 670 1224 l 503 1081 l 363 1081 l 195 1224 m 435 1285 q 348 1312 385 1285 q 310 1386 310 1338 q 348 1461 310 1435 q 435 1487 385 1487 q 522 1461 485 1487 q 559 1386 559 1435 q 522 1311 559 1338 q 435 1285 485 1285 z "},"Ş":{"ha":866,"x_min":57,"x_max":808,"o":"m 508 -51 q 556 -62 532 -51 q 597 -95 581 -72 q 614 -155 614 -117 q 586 -231 614 -201 q 514 -275 558 -260 q 422 -289 470 -289 q 334 -278 378 -289 q 272 -255 290 -267 l 313 -176 q 360 -196 327 -184 q 428 -208 393 -208 q 493 -194 467 -208 q 519 -151 519 -179 q 506 -118 519 -128 q 474 -108 493 -108 q 440 -114 457 -108 q 415 -132 424 -120 l 334 -109 l 384 0 l 476 0 l 434 -90 l 426 -88 q 454 -62 433 -72 q 508 -51 476 -51 m 432 -17 q 236 19 321 -17 q 105 125 152 54 q 57 300 57 195 q 57 320 57 311 q 57 341 57 330 l 273 341 q 273 323 273 331 q 273 304 273 315 q 313 194 273 233 q 433 156 353 156 q 556 182 513 156 q 599 265 599 207 q 566 338 599 306 q 479 393 534 369 q 353 440 424 418 q 210 503 276 464 q 104 604 144 543 q 64 755 64 665 q 112 909 64 845 q 242 1006 160 972 q 429 1040 325 1040 q 622 1006 538 1040 q 753 905 706 972 q 801 738 801 838 q 801 718 801 727 q 801 697 801 708 l 585 697 q 585 713 585 704 q 585 728 585 721 q 548 832 585 796 q 432 868 511 868 q 314 840 356 868 q 272 755 272 813 q 302 684 272 713 q 385 632 332 655 q 505 586 438 609 q 665 516 597 554 q 771 419 733 477 q 808 272 808 361 q 761 115 808 180 q 629 17 714 51 q 432 -17 544 -17 z "},"Ŝ":{"ha":866,"x_min":57,"x_max":808,"o":"m 432 -17 q 236 19 321 -17 q 105 125 152 54 q 57 300 57 195 q 57 320 57 311 q 57 341 57 330 l 273 341 q 273 323 273 331 q 273 304 273 315 q 313 194 273 233 q 433 156 353 156 q 556 182 513 156 q 599 265 599 207 q 566 338 599 306 q 479 393 534 369 q 353 440 424 418 q 210 503 276 464 q 104 604 144 543 q 64 755 64 665 q 112 909 64 845 q 242 1006 160 972 q 429 1040 325 1040 q 622 1006 538 1040 q 753 905 706 972 q 801 738 801 838 q 801 718 801 727 q 801 697 801 708 l 585 697 q 585 713 585 704 q 585 728 585 721 q 548 832 585 796 q 432 868 511 868 q 314 840 356 868 q 272 755 272 813 q 302 684 272 713 q 385 632 332 655 q 505 586 438 609 q 665 516 597 554 q 771 419 733 477 q 808 272 808 361 q 761 115 808 180 q 629 17 714 51 q 432 -17 544 -17 m 195 1081 l 363 1224 l 503 1224 l 670 1081 l 531 1081 l 403 1194 l 460 1194 l 333 1081 l 195 1081 z "},"Ș":{"ha":866,"x_min":57,"x_max":808,"o":"m 432 -17 q 236 19 321 -17 q 105 125 152 54 q 57 300 57 195 q 57 320 57 311 q 57 341 57 330 l 273 341 q 273 323 273 331 q 273 304 273 315 q 313 194 273 233 q 433 156 353 156 q 556 182 513 156 q 599 265 599 207 q 566 338 599 306 q 479 393 534 369 q 353 440 424 418 q 210 503 276 464 q 104 604 144 543 q 64 755 64 665 q 112 909 64 845 q 242 1006 160 972 q 429 1040 325 1040 q 622 1006 538 1040 q 753 905 706 972 q 801 738 801 838 q 801 718 801 727 q 801 697 801 708 l 585 697 q 585 713 585 704 q 585 728 585 721 q 548 832 585 796 q 432 868 511 868 q 314 840 356 868 q 272 755 272 813 q 302 684 272 713 q 385 632 332 655 q 505 586 438 609 q 665 516 597 554 q 771 419 733 477 q 808 272 808 361 q 761 115 808 180 q 629 17 714 51 q 432 -17 544 -17 m 416 -186 q 365 -169 384 -186 q 346 -122 346 -151 q 373 -70 346 -86 q 432 -55 401 -55 q 471 -63 451 -55 q 505 -89 491 -71 q 519 -140 519 -108 q 496 -227 519 -192 q 441 -284 473 -263 q 383 -316 410 -306 l 370 -283 q 414 -259 391 -274 q 452 -221 436 -244 q 467 -166 467 -198 q 448 -181 463 -176 q 416 -186 433 -186 z "},"Ṡ":{"ha":866,"x_min":57,"x_max":808,"o":"m 432 -17 q 236 19 321 -17 q 105 125 152 54 q 57 300 57 195 q 57 320 57 311 q 57 341 57 330 l 273 341 q 273 323 273 331 q 273 304 273 315 q 313 194 273 233 q 433 156 353 156 q 556 182 513 156 q 599 265 599 207 q 566 338 599 306 q 479 393 534 369 q 353 440 424 418 q 210 503 276 464 q 104 604 144 543 q 64 755 64 665 q 112 909 64 845 q 242 1006 160 972 q 429 1040 325 1040 q 622 1006 538 1040 q 753 905 706 972 q 801 738 801 838 q 801 718 801 727 q 801 697 801 708 l 585 697 q 585 713 585 704 q 585 728 585 721 q 548 832 585 796 q 432 868 511 868 q 314 840 356 868 q 272 755 272 813 q 302 684 272 713 q 385 632 332 655 q 505 586 438 609 q 665 516 597 554 q 771 419 733 477 q 808 272 808 361 q 761 115 808 180 q 629 17 714 51 q 432 -17 544 -17 m 435 1085 q 348 1112 385 1085 q 310 1186 310 1138 q 348 1261 310 1235 q 435 1287 385 1287 q 522 1261 485 1287 q 559 1186 559 1235 q 522 1111 559 1138 q 435 1085 485 1085 z "},"Ṣ":{"ha":866,"x_min":57,"x_max":808,"o":"m 432 -17 q 236 19 321 -17 q 105 125 152 54 q 57 300 57 195 q 57 320 57 311 q 57 341 57 330 l 273 341 q 273 323 273 331 q 273 304 273 315 q 313 194 273 233 q 433 156 353 156 q 556 182 513 156 q 599 265 599 207 q 566 338 599 306 q 479 393 534 369 q 353 440 424 418 q 210 503 276 464 q 104 604 144 543 q 64 755 64 665 q 112 909 64 845 q 242 1006 160 972 q 429 1040 325 1040 q 622 1006 538 1040 q 753 905 706 972 q 801 738 801 838 q 801 718 801 727 q 801 697 801 708 l 585 697 q 585 713 585 704 q 585 728 585 721 q 548 832 585 796 q 432 868 511 868 q 314 840 356 868 q 272 755 272 813 q 302 684 272 713 q 385 632 332 655 q 505 586 438 609 q 665 516 597 554 q 771 419 733 477 q 808 272 808 361 q 761 115 808 180 q 629 17 714 51 q 432 -17 544 -17 m 433 -286 q 346 -260 383 -286 q 308 -185 308 -233 q 346 -110 308 -137 q 433 -84 383 -84 q 520 -110 483 -84 q 558 -185 558 -137 q 520 -260 558 -234 q 433 -286 483 -286 z "},"Ṩ":{"ha":866,"x_min":57,"x_max":808,"o":"m 432 -17 q 236 19 321 -17 q 105 125 152 54 q 57 300 57 195 q 57 320 57 311 q 57 341 57 330 l 273 341 q 273 323 273 331 q 273 304 273 315 q 313 194 273 233 q 433 156 353 156 q 556 182 513 156 q 599 265 599 207 q 566 338 599 306 q 479 393 534 369 q 353 440 424 418 q 210 503 276 464 q 104 604 144 543 q 64 755 64 665 q 112 909 64 845 q 242 1006 160 972 q 429 1040 325 1040 q 622 1006 538 1040 q 753 905 706 972 q 801 738 801 838 q 801 718 801 727 q 801 697 801 708 l 585 697 q 585 713 585 704 q 585 728 585 721 q 548 832 585 796 q 432 868 511 868 q 314 840 356 868 q 272 755 272 813 q 302 684 272 713 q 385 632 332 655 q 505 586 438 609 q 665 516 597 554 q 771 419 733 477 q 808 272 808 361 q 761 115 808 180 q 629 17 714 51 q 432 -17 544 -17 m 433 -286 q 346 -260 383 -286 q 308 -185 308 -233 q 346 -110 308 -137 q 433 -84 383 -84 q 520 -110 483 -84 q 558 -185 558 -137 q 520 -260 558 -234 q 433 -286 483 -286 m 435 1085 q 348 1112 385 1085 q 310 1186 310 1138 q 348 1261 310 1235 q 435 1287 385 1287 q 522 1261 485 1287 q 559 1186 559 1235 q 522 1111 559 1138 q 435 1085 485 1085 z "},"ẞ":{"ha":942,"x_min":85,"x_max":885,"o":"m 85 0 l 85 767 q 123 913 85 856 q 226 997 161 970 q 374 1024 292 1024 l 813 1024 l 813 848 l 584 619 q 607 623 593 621 q 635 624 622 624 q 756 594 699 624 q 849 496 813 564 q 885 317 885 428 q 836 128 885 200 q 702 24 786 56 q 514 -9 618 -9 q 426 -2 463 -9 q 374 13 390 6 l 376 181 q 431 167 389 176 q 518 158 473 158 q 594 176 560 158 q 648 231 628 194 q 668 326 668 268 q 650 420 668 385 q 600 473 631 456 q 528 489 568 489 q 489 482 506 489 q 465 472 472 476 l 352 608 l 587 858 l 401 858 q 325 827 349 858 q 301 744 301 797 l 301 0 l 85 0 z "},"Ə":{"ha":921,"x_min":57,"x_max":863,"o":"m 451 -8 q 291 24 363 -8 q 166 118 219 55 q 85 276 114 181 q 57 500 57 372 q 58 553 57 533 q 59 579 58 573 l 660 579 l 660 421 l 262 421 l 270 474 q 270 460 270 468 q 270 449 270 453 q 282 319 270 374 q 318 228 294 265 q 375 175 341 192 q 451 157 409 157 q 535 178 499 157 q 596 243 571 199 q 634 353 621 286 q 647 513 647 421 q 633 682 647 614 q 594 790 619 750 q 535 848 569 831 q 458 866 500 866 q 381 851 415 866 q 324 813 347 837 q 288 759 301 788 q 273 699 275 729 l 66 699 q 97 827 68 767 q 179 933 126 887 q 302 1005 231 978 q 458 1031 373 1031 q 616 1002 542 1031 q 745 911 689 973 q 832 751 801 849 q 863 513 863 653 q 833 288 863 385 q 747 125 802 191 q 616 26 692 59 q 451 -8 541 -8 z "},"T":{"ha":811,"x_min":47,"x_max":765,"o":"m 765 858 l 426 858 l 513 960 l 513 0 l 298 0 l 298 960 l 387 858 l 47 858 l 47 1024 l 765 1024 l 765 858 z "},"Ŧ":{"ha":811,"x_min":47,"x_max":765,"o":"m 153 464 l 153 561 l 659 561 l 659 464 l 153 464 m 765 858 l 426 858 l 513 960 l 513 0 l 298 0 l 298 960 l 387 858 l 47 858 l 47 1024 l 765 1024 l 765 858 z "},"Ť":{"ha":811,"x_min":47,"x_max":765,"o":"m 765 858 l 426 858 l 513 960 l 513 0 l 298 0 l 298 960 l 387 858 l 47 858 l 47 1024 l 765 1024 l 765 858 m 168 1224 l 306 1224 l 433 1113 l 376 1113 l 504 1224 l 643 1224 l 476 1081 l 335 1081 l 168 1224 z "},"Ţ":{"ha":811,"x_min":47,"x_max":765,"o":"m 765 858 l 426 858 l 513 960 l 513 0 l 298 0 l 298 960 l 387 858 l 47 858 l 47 1024 l 765 1024 l 765 858 m 481 -51 q 530 -62 506 -51 q 571 -95 554 -72 q 588 -155 588 -117 q 560 -231 588 -201 q 488 -275 532 -260 q 395 -289 444 -289 q 307 -278 351 -289 q 245 -255 263 -267 l 287 -176 q 334 -196 301 -184 q 402 -208 367 -208 q 467 -194 441 -208 q 493 -151 493 -179 q 480 -118 493 -128 q 447 -108 467 -108 q 414 -114 431 -108 q 389 -132 397 -120 l 308 -109 l 358 0 l 449 0 l 408 -90 l 400 -88 q 428 -62 406 -72 q 481 -51 449 -51 z "},"Ț":{"ha":811,"x_min":47,"x_max":765,"o":"m 765 858 l 426 858 l 513 960 l 513 0 l 298 0 l 298 960 l 387 858 l 47 858 l 47 1024 l 765 1024 l 765 858 m 390 -186 q 339 -169 358 -186 q 319 -122 319 -151 q 347 -70 319 -86 q 406 -55 374 -55 q 444 -63 424 -55 q 478 -89 465 -71 q 492 -140 492 -108 q 469 -227 492 -192 q 415 -284 447 -263 q 356 -316 383 -306 l 344 -283 q 387 -259 365 -274 q 425 -221 410 -244 q 441 -166 441 -198 q 421 -181 436 -176 q 390 -186 406 -186 z "},"Ṭ":{"ha":811,"x_min":47,"x_max":765,"o":"m 765 858 l 426 858 l 513 960 l 513 0 l 298 0 l 298 960 l 387 858 l 47 858 l 47 1024 l 765 1024 l 765 858 m 406 -286 q 319 -260 357 -286 q 282 -185 282 -233 q 319 -110 282 -137 q 406 -84 357 -84 q 494 -110 456 -84 q 531 -185 531 -137 q 494 -260 531 -234 q 406 -286 456 -286 z "},"Ṯ":{"ha":811,"x_min":47,"x_max":765,"o":"m 765 858 l 426 858 l 513 960 l 513 0 l 298 0 l 298 960 l 387 858 l 47 858 l 47 1024 l 765 1024 l 765 858 m 180 -210 l 180 -121 l 632 -121 l 632 -210 l 180 -210 z "},"U":{"ha":938,"x_min":85,"x_max":853,"o":"m 853 370 q 750 80 853 176 q 469 -17 647 -17 q 187 80 290 -17 q 85 370 85 176 q 85 426 85 397 q 85 489 85 456 l 85 1024 l 301 1024 l 301 458 q 301 409 301 432 q 301 367 301 386 q 340 207 301 258 q 469 156 380 156 q 597 207 557 156 q 638 367 638 258 l 638 1024 l 853 1024 l 853 370 z "},"Ú":{"ha":938,"x_min":85,"x_max":853,"o":"m 853 370 q 750 80 853 176 q 469 -17 647 -17 q 187 80 290 -17 q 85 370 85 176 q 85 426 85 397 q 85 489 85 456 l 85 1024 l 301 1024 l 301 458 q 301 409 301 432 q 301 367 301 386 q 340 207 301 258 q 469 156 380 156 q 597 207 557 156 q 638 367 638 258 l 638 1024 l 853 1024 l 853 370 m 353 1082 l 542 1226 l 715 1226 l 503 1082 l 353 1082 z "},"Ŭ":{"ha":938,"x_min":85,"x_max":853,"o":"m 853 370 q 750 80 853 176 q 469 -17 647 -17 q 187 80 290 -17 q 85 370 85 176 q 85 426 85 397 q 85 489 85 456 l 85 1024 l 301 1024 l 301 458 q 301 409 301 432 q 301 367 301 386 q 340 207 301 258 q 469 156 380 156 q 597 207 557 156 q 638 367 638 258 l 638 1024 l 853 1024 l 853 370 m 267 1213 l 394 1213 q 414 1168 394 1187 q 469 1149 433 1149 q 524 1168 505 1149 q 544 1213 544 1187 l 670 1213 q 613 1107 670 1147 q 469 1066 556 1066 q 325 1107 382 1066 q 267 1213 267 1147 z "},"Ǔ":{"ha":938,"x_min":85,"x_max":853,"o":"m 853 370 q 750 80 853 176 q 469 -17 647 -17 q 187 80 290 -17 q 85 370 85 176 q 85 426 85 397 q 85 489 85 456 l 85 1024 l 301 1024 l 301 458 q 301 409 301 432 q 301 367 301 386 q 340 207 301 258 q 469 156 380 156 q 597 207 557 156 q 638 367 638 258 l 638 1024 l 853 1024 l 853 370 m 233 1311 l 369 1311 l 497 1162 l 440 1162 l 567 1311 l 704 1311 l 538 1122 l 399 1122 l 233 1311 z "},"Û":{"ha":938,"x_min":85,"x_max":853,"o":"m 853 370 q 750 80 853 176 q 469 -17 647 -17 q 187 80 290 -17 q 85 370 85 176 q 85 426 85 397 q 85 489 85 456 l 85 1024 l 301 1024 l 301 458 q 301 409 301 432 q 301 367 301 386 q 340 207 301 258 q 469 156 380 156 q 597 207 557 156 q 638 367 638 258 l 638 1024 l 853 1024 l 853 370 m 231 1081 l 399 1224 l 540 1224 l 706 1081 l 567 1081 l 440 1194 l 497 1194 l 369 1081 l 231 1081 z "},"Ȕ":{"ha":938,"x_min":85,"x_max":853,"o":"m 853 370 q 750 80 853 176 q 469 -17 647 -17 q 187 80 290 -17 q 85 370 85 176 q 85 426 85 397 q 85 489 85 456 l 85 1024 l 301 1024 l 301 458 q 301 409 301 432 q 301 367 301 386 q 340 207 301 258 q 469 156 380 156 q 597 207 557 156 q 638 367 638 258 l 638 1024 l 853 1024 l 853 370 m 645 1081 l 528 1081 l 385 1226 l 517 1226 l 645 1081 m 415 1081 l 298 1081 l 139 1226 l 272 1226 l 415 1081 z "},"Ü":{"ha":938,"x_min":85,"x_max":853,"o":"m 853 370 q 750 80 853 176 q 469 -17 647 -17 q 187 80 290 -17 q 85 370 85 176 q 85 426 85 397 q 85 489 85 456 l 85 1024 l 301 1024 l 301 458 q 301 409 301 432 q 301 367 301 386 q 340 207 301 258 q 469 156 380 156 q 597 207 557 156 q 638 367 638 258 l 638 1024 l 853 1024 l 853 370 m 302 1071 q 222 1095 256 1071 q 188 1164 188 1119 q 222 1233 188 1208 q 302 1257 256 1257 q 382 1233 347 1257 q 416 1164 416 1208 q 382 1095 416 1119 q 302 1071 347 1071 m 637 1071 q 557 1095 592 1071 q 523 1164 523 1119 q 557 1233 523 1208 q 637 1257 592 1257 q 717 1233 683 1257 q 751 1164 751 1208 q 717 1095 751 1119 q 637 1071 683 1071 z "},"Ǘ":{"ha":938,"x_min":85,"x_max":853,"o":"m 853 370 q 750 80 853 176 q 469 -17 647 -17 q 187 80 290 -17 q 85 370 85 176 q 85 426 85 397 q 85 489 85 456 l 85 1024 l 301 1024 l 301 458 q 301 409 301 432 q 301 367 301 386 q 340 207 301 258 q 469 156 380 156 q 597 207 557 156 q 638 367 638 258 l 638 1024 l 853 1024 l 853 370 m 302 1071 q 222 1095 256 1071 q 188 1164 188 1119 q 222 1233 188 1208 q 302 1257 256 1257 q 382 1233 347 1257 q 416 1164 416 1208 q 382 1095 416 1119 q 302 1071 347 1071 m 637 1071 q 557 1095 592 1071 q 523 1164 523 1119 q 557 1233 523 1208 q 637 1257 592 1257 q 717 1233 683 1257 q 751 1164 751 1208 q 717 1095 751 1119 q 637 1071 683 1071 m 353 1287 l 542 1431 l 715 1431 l 503 1287 l 353 1287 z "},"Ǚ":{"ha":938,"x_min":85,"x_max":853,"o":"m 853 370 q 750 80 853 176 q 469 -17 647 -17 q 187 80 290 -17 q 85 370 85 176 q 85 426 85 397 q 85 489 85 456 l 85 1024 l 301 1024 l 301 458 q 301 409 301 432 q 301 367 301 386 q 340 207 301 258 q 469 156 380 156 q 597 207 557 156 q 638 367 638 258 l 638 1024 l 853 1024 l 853 370 m 302 1071 q 222 1095 256 1071 q 188 1164 188 1119 q 222 1233 188 1208 q 302 1257 256 1257 q 382 1233 347 1257 q 416 1164 416 1208 q 382 1095 416 1119 q 302 1071 347 1071 m 637 1071 q 557 1095 592 1071 q 523 1164 523 1119 q 557 1233 523 1208 q 637 1257 592 1257 q 717 1233 683 1257 q 751 1164 751 1208 q 717 1095 751 1119 q 637 1071 683 1071 m 231 1429 l 369 1429 l 497 1317 l 440 1317 l 567 1429 l 706 1429 l 540 1286 l 399 1286 l 231 1429 z "},"Ǜ":{"ha":938,"x_min":85,"x_max":853,"o":"m 853 370 q 750 80 853 176 q 469 -17 647 -17 q 187 80 290 -17 q 85 370 85 176 q 85 426 85 397 q 85 489 85 456 l 85 1024 l 301 1024 l 301 458 q 301 409 301 432 q 301 367 301 386 q 340 207 301 258 q 469 156 380 156 q 597 207 557 156 q 638 367 638 258 l 638 1024 l 853 1024 l 853 370 m 302 1071 q 222 1095 256 1071 q 188 1164 188 1119 q 222 1233 188 1208 q 302 1257 256 1257 q 382 1233 347 1257 q 416 1164 416 1208 q 382 1095 416 1119 q 302 1071 347 1071 m 637 1071 q 557 1095 592 1071 q 523 1164 523 1119 q 557 1233 523 1208 q 637 1257 592 1257 q 717 1233 683 1257 q 751 1164 751 1208 q 717 1095 751 1119 q 637 1071 683 1071 m 586 1287 l 435 1287 l 224 1431 l 397 1431 l 586 1287 z "},"Ǖ":{"ha":938,"x_min":85,"x_max":853,"o":"m 853 370 q 750 80 853 176 q 469 -17 647 -17 q 187 80 290 -17 q 85 370 85 176 q 85 426 85 397 q 85 489 85 456 l 85 1024 l 301 1024 l 301 458 q 301 409 301 432 q 301 367 301 386 q 340 207 301 258 q 469 156 380 156 q 597 207 557 156 q 638 367 638 258 l 638 1024 l 853 1024 l 853 370 m 302 1071 q 222 1095 256 1071 q 188 1164 188 1119 q 222 1233 188 1208 q 302 1257 256 1257 q 382 1233 347 1257 q 416 1164 416 1208 q 382 1095 416 1119 q 302 1071 347 1071 m 637 1071 q 557 1095 592 1071 q 523 1164 523 1119 q 557 1233 523 1208 q 637 1257 592 1257 q 717 1233 683 1257 q 751 1164 751 1208 q 717 1095 751 1119 q 637 1071 683 1071 m 252 1322 l 252 1412 l 685 1412 l 685 1322 l 252 1322 z "},"Ụ":{"ha":938,"x_min":85,"x_max":853,"o":"m 853 370 q 750 80 853 176 q 469 -17 647 -17 q 187 80 290 -17 q 85 370 85 176 q 85 426 85 397 q 85 489 85 456 l 85 1024 l 301 1024 l 301 458 q 301 409 301 432 q 301 367 301 386 q 340 207 301 258 q 469 156 380 156 q 597 207 557 156 q 638 367 638 258 l 638 1024 l 853 1024 l 853 370 m 468 -286 q 381 -260 419 -286 q 344 -185 344 -233 q 381 -110 344 -137 q 468 -84 419 -84 q 556 -110 518 -84 q 593 -185 593 -137 q 556 -260 593 -234 q 468 -286 518 -286 z "},"Ù":{"ha":938,"x_min":85,"x_max":853,"o":"m 853 370 q 750 80 853 176 q 469 -17 647 -17 q 187 80 290 -17 q 85 370 85 176 q 85 426 85 397 q 85 489 85 456 l 85 1024 l 301 1024 l 301 458 q 301 409 301 432 q 301 367 301 386 q 340 207 301 258 q 469 156 380 156 q 597 207 557 156 q 638 367 638 258 l 638 1024 l 853 1024 l 853 370 m 586 1082 l 435 1082 l 224 1226 l 397 1226 l 586 1082 z "},"Ủ":{"ha":938,"x_min":85,"x_max":853,"o":"m 853 370 q 750 80 853 176 q 469 -17 647 -17 q 187 80 290 -17 q 85 370 85 176 q 85 426 85 397 q 85 489 85 456 l 85 1024 l 301 1024 l 301 458 q 301 409 301 432 q 301 367 301 386 q 340 207 301 258 q 469 156 380 156 q 597 207 557 156 q 638 367 638 258 l 638 1024 l 853 1024 l 853 370 m 319 1254 q 463 1248 397 1254 q 568 1222 528 1242 q 608 1160 608 1202 q 582 1100 608 1123 q 511 1065 556 1076 q 410 1054 466 1054 l 388 1111 q 438 1116 410 1113 q 484 1128 465 1119 q 504 1151 504 1137 q 456 1180 504 1174 q 319 1187 408 1187 l 319 1254 z "},"Ư":{"ha":996,"x_min":85,"x_max":1004,"o":"m 765 1024 q 846 1070 821 1024 q 872 1204 872 1115 l 1004 1204 q 940 989 1004 1058 q 765 920 876 920 l 765 1024 m 853 370 q 750 80 853 176 q 469 -17 647 -17 q 187 80 290 -17 q 85 370 85 176 q 85 426 85 397 q 85 489 85 456 l 85 1024 l 301 1024 l 301 458 q 301 409 301 432 q 301 367 301 386 q 340 207 301 258 q 469 156 380 156 q 597 207 557 156 q 638 367 638 258 l 638 1024 l 853 1024 l 853 370 z "},"Ứ":{"ha":1004,"x_min":85,"x_max":1004,"o":"m 765 1024 q 846 1070 821 1024 q 872 1204 872 1115 l 1004 1204 q 940 989 1004 1058 q 765 920 876 920 l 765 1024 m 853 370 q 750 80 853 176 q 469 -17 647 -17 q 187 80 290 -17 q 85 370 85 176 q 85 426 85 397 q 85 489 85 456 l 85 1024 l 301 1024 l 301 458 q 301 409 301 432 q 301 367 301 386 q 340 207 301 258 q 469 156 380 156 q 597 207 557 156 q 638 367 638 258 l 638 1024 l 853 1024 l 853 370 m 353 1082 l 542 1226 l 715 1226 l 503 1082 l 353 1082 z "},"Ự":{"ha":1004,"x_min":85,"x_max":1004,"o":"m 447 -298 q 360 -272 397 -298 q 322 -197 322 -245 q 360 -122 322 -149 q 447 -96 397 -96 q 534 -122 497 -96 q 572 -197 572 -149 q 534 -272 572 -246 q 447 -298 497 -298 m 765 1024 q 846 1070 821 1024 q 872 1204 872 1115 l 1004 1204 q 940 989 1004 1058 q 765 920 876 920 l 765 1024 m 853 370 q 750 80 853 176 q 469 -17 647 -17 q 187 80 290 -17 q 85 370 85 176 q 85 426 85 397 q 85 489 85 456 l 85 1024 l 301 1024 l 301 458 q 301 409 301 432 q 301 367 301 386 q 340 207 301 258 q 469 156 380 156 q 597 207 557 156 q 638 367 638 258 l 638 1024 l 853 1024 l 853 370 z "},"Ừ":{"ha":1004,"x_min":85,"x_max":1004,"o":"m 591 1082 l 440 1082 l 229 1226 l 401 1226 l 591 1082 m 765 1024 q 846 1070 821 1024 q 872 1204 872 1115 l 1004 1204 q 940 989 1004 1058 q 765 920 876 920 l 765 1024 m 853 370 q 750 80 853 176 q 469 -17 647 -17 q 187 80 290 -17 q 85 370 85 176 q 85 426 85 397 q 85 489 85 456 l 85 1024 l 301 1024 l 301 458 q 301 409 301 432 q 301 367 301 386 q 340 207 301 258 q 469 156 380 156 q 597 207 557 156 q 638 367 638 258 l 638 1024 l 853 1024 l 853 370 z "},"Ử":{"ha":1004,"x_min":85,"x_max":1004,"o":"m 765 1024 q 846 1070 821 1024 q 872 1204 872 1115 l 1004 1204 q 940 989 1004 1058 q 765 920 876 920 l 765 1024 m 853 370 q 750 80 853 176 q 469 -17 647 -17 q 187 80 290 -17 q 85 370 85 176 q 85 426 85 397 q 85 489 85 456 l 85 1024 l 301 1024 l 301 458 q 301 409 301 432 q 301 367 301 386 q 340 207 301 258 q 469 156 380 156 q 597 207 557 156 q 638 367 638 258 l 638 1024 l 853 1024 l 853 370 m 319 1254 q 463 1248 397 1254 q 568 1222 528 1242 q 608 1160 608 1202 q 582 1100 608 1123 q 511 1065 556 1076 q 410 1054 466 1054 l 388 1111 q 438 1116 410 1113 q 484 1128 465 1119 q 504 1151 504 1137 q 456 1180 504 1174 q 319 1187 408 1187 l 319 1254 z "},"Ữ":{"ha":1004,"x_min":85,"x_max":1004,"o":"m 711 1230 q 696 1158 711 1194 q 651 1098 681 1122 q 573 1073 621 1073 q 511 1088 536 1073 q 470 1115 486 1102 q 441 1139 455 1129 q 406 1149 426 1149 q 372 1132 383 1149 q 360 1088 360 1115 l 251 1088 q 267 1160 251 1124 q 315 1222 283 1197 q 394 1247 347 1247 q 454 1232 429 1247 q 494 1203 478 1217 q 526 1180 510 1190 q 560 1169 542 1169 q 591 1186 581 1169 q 602 1230 601 1203 l 711 1230 m 765 1024 q 846 1070 821 1024 q 872 1204 872 1115 l 1004 1204 q 940 989 1004 1058 q 765 920 876 920 l 765 1024 m 853 370 q 750 80 853 176 q 469 -17 647 -17 q 187 80 290 -17 q 85 370 85 176 q 85 426 85 397 q 85 489 85 456 l 85 1024 l 301 1024 l 301 458 q 301 409 301 432 q 301 367 301 386 q 340 207 301 258 q 469 156 380 156 q 597 207 557 156 q 638 367 638 258 l 638 1024 l 853 1024 l 853 370 z "},"Ű":{"ha":938,"x_min":85,"x_max":853,"o":"m 853 370 q 750 80 853 176 q 469 -17 647 -17 q 187 80 290 -17 q 85 370 85 176 q 85 426 85 397 q 85 489 85 456 l 85 1024 l 301 1024 l 301 458 q 301 409 301 432 q 301 367 301 386 q 340 207 301 258 q 469 156 380 156 q 597 207 557 156 q 638 367 638 258 l 638 1024 l 853 1024 l 853 370 m 285 1082 l 456 1226 l 592 1226 l 408 1082 l 285 1082 m 524 1082 l 694 1226 l 831 1226 l 647 1082 l 524 1082 z "},"Ȗ":{"ha":938,"x_min":85,"x_max":853,"o":"m 853 370 q 750 80 853 176 q 469 -17 647 -17 q 187 80 290 -17 q 85 370 85 176 q 85 426 85 397 q 85 489 85 456 l 85 1024 l 301 1024 l 301 458 q 301 409 301 432 q 301 367 301 386 q 340 207 301 258 q 469 156 380 156 q 597 207 557 156 q 638 367 638 258 l 638 1024 l 853 1024 l 853 370 m 267 1078 q 325 1184 267 1144 q 469 1223 382 1223 q 613 1184 556 1223 q 670 1078 670 1144 l 544 1078 q 525 1123 544 1104 q 469 1141 505 1141 q 413 1123 433 1141 q 393 1078 393 1104 l 267 1078 z "},"Ū":{"ha":938,"x_min":85,"x_max":853,"o":"m 853 370 q 750 80 853 176 q 469 -17 647 -17 q 187 80 290 -17 q 85 370 85 176 q 85 426 85 397 q 85 489 85 456 l 85 1024 l 301 1024 l 301 458 q 301 409 301 432 q 301 367 301 386 q 340 207 301 258 q 469 156 380 156 q 597 207 557 156 q 638 367 638 258 l 638 1024 l 853 1024 l 853 370 m 252 1117 l 252 1207 l 685 1207 l 685 1117 l 252 1117 z "},"Ṻ":{"ha":938,"x_min":85,"x_max":853,"o":"m 853 370 q 750 80 853 176 q 469 -17 647 -17 q 187 80 290 -17 q 85 370 85 176 q 85 426 85 397 q 85 489 85 456 l 85 1024 l 301 1024 l 301 458 q 301 409 301 432 q 301 367 301 386 q 340 207 301 258 q 469 156 380 156 q 597 207 557 156 q 638 367 638 258 l 638 1024 l 853 1024 l 853 370 m 252 1117 l 252 1207 l 685 1207 l 685 1117 l 252 1117 m 302 1253 q 222 1278 256 1253 q 188 1347 188 1302 q 222 1415 188 1391 q 302 1440 256 1440 q 382 1415 347 1440 q 416 1347 416 1391 q 382 1278 416 1302 q 302 1253 347 1253 m 637 1253 q 557 1278 592 1253 q 523 1347 523 1302 q 557 1415 523 1391 q 637 1440 592 1440 q 717 1415 683 1440 q 751 1347 751 1391 q 717 1278 751 1302 q 637 1253 683 1253 z "},"Ų":{"ha":938,"x_min":85,"x_max":853,"o":"m 653 -187 l 653 -290 q 623 -293 640 -292 q 588 -294 606 -294 q 501 -283 542 -294 q 435 -247 460 -272 q 409 -180 409 -222 q 434 -99 409 -138 q 491 -29 458 -60 q 548 18 524 1 l 653 18 q 605 -29 633 1 q 555 -91 576 -59 q 533 -147 533 -123 q 553 -183 533 -173 q 601 -192 573 -192 q 628 -191 614 -192 q 653 -187 642 -189 m 853 370 q 750 80 853 176 q 469 -17 647 -17 q 187 80 290 -17 q 85 370 85 176 q 85 426 85 397 q 85 489 85 456 l 85 1024 l 301 1024 l 301 458 q 301 409 301 432 q 301 367 301 386 q 340 207 301 258 q 469 156 380 156 q 597 207 557 156 q 638 367 638 258 l 638 1024 l 853 1024 l 853 370 z "},"Ů":{"ha":938,"x_min":85,"x_max":853,"o":"m 853 370 q 750 80 853 176 q 469 -17 647 -17 q 187 80 290 -17 q 85 370 85 176 q 85 426 85 397 q 85 489 85 456 l 85 1024 l 301 1024 l 301 458 q 301 409 301 432 q 301 367 301 386 q 340 207 301 258 q 469 156 380 156 q 597 207 557 156 q 638 367 638 258 l 638 1024 l 853 1024 l 853 370 m 469 1147 q 516 1166 497 1147 q 535 1213 535 1185 q 516 1260 535 1240 q 469 1279 497 1279 q 422 1260 442 1279 q 403 1213 403 1240 q 422 1166 403 1185 q 469 1147 442 1147 m 469 1053 q 389 1075 426 1053 q 331 1133 353 1097 q 310 1213 310 1169 q 331 1293 310 1257 q 389 1350 353 1328 q 469 1372 425 1372 q 549 1350 513 1372 q 606 1293 585 1328 q 628 1213 628 1257 q 606 1133 628 1169 q 549 1075 585 1097 q 469 1053 513 1053 z "},"Ũ":{"ha":938,"x_min":85,"x_max":853,"o":"m 853 370 q 750 80 853 176 q 469 -17 647 -17 q 187 80 290 -17 q 85 370 85 176 q 85 426 85 397 q 85 489 85 456 l 85 1024 l 301 1024 l 301 458 q 301 409 301 432 q 301 367 301 386 q 340 207 301 258 q 469 156 380 156 q 597 207 557 156 q 638 367 638 258 l 638 1024 l 853 1024 l 853 370 m 704 1230 q 689 1158 704 1194 q 644 1098 674 1122 q 566 1073 614 1073 q 504 1088 529 1073 q 463 1115 479 1102 q 434 1139 448 1129 q 399 1149 419 1149 q 365 1132 376 1149 q 353 1088 353 1115 l 244 1088 q 260 1160 244 1124 q 308 1222 276 1197 q 388 1247 340 1247 q 447 1232 422 1247 q 488 1203 472 1217 q 519 1180 503 1190 q 553 1169 535 1169 q 584 1186 574 1169 q 595 1230 594 1203 l 704 1230 z "},"Ṹ":{"ha":938,"x_min":85,"x_max":853,"o":"m 853 370 q 750 80 853 176 q 469 -17 647 -17 q 187 80 290 -17 q 85 370 85 176 q 85 426 85 397 q 85 489 85 456 l 85 1024 l 301 1024 l 301 458 q 301 409 301 432 q 301 367 301 386 q 340 207 301 258 q 469 156 380 156 q 597 207 557 156 q 638 367 638 258 l 638 1024 l 853 1024 l 853 370 m 704 1230 q 689 1158 704 1194 q 644 1098 674 1122 q 566 1073 614 1073 q 504 1088 529 1073 q 463 1115 479 1102 q 434 1139 448 1129 q 399 1149 419 1149 q 365 1132 376 1149 q 353 1088 353 1115 l 244 1088 q 260 1160 244 1124 q 308 1222 276 1197 q 388 1247 340 1247 q 447 1232 422 1247 q 488 1203 472 1217 q 519 1180 503 1190 q 553 1169 535 1169 q 584 1186 574 1169 q 595 1230 594 1203 l 704 1230 m 353 1305 l 542 1449 l 715 1449 l 503 1305 l 353 1305 z "},"V":{"ha":903,"x_min":38,"x_max":865,"o":"m 292 -2 l 38 1024 l 276 1024 l 457 131 l 447 131 l 626 1024 l 865 1024 l 614 -2 l 292 -2 z "},"W":{"ha":1311,"x_min":49,"x_max":1263,"o":"m 199 0 l 49 1024 l 270 1024 l 379 47 l 348 48 l 522 1024 l 790 1024 l 963 48 l 932 47 l 1041 1024 l 1263 1024 l 1113 0 l 782 0 l 645 875 l 667 875 l 529 0 l 199 0 z "},"Ẃ":{"ha":1311,"x_min":49,"x_max":1263,"o":"m 199 0 l 49 1024 l 270 1024 l 379 47 l 348 48 l 522 1024 l 790 1024 l 963 48 l 932 47 l 1041 1024 l 1263 1024 l 1113 0 l 782 0 l 645 875 l 667 875 l 529 0 l 199 0 m 542 1082 l 731 1226 l 903 1226 l 692 1082 l 542 1082 z "},"Ŵ":{"ha":1311,"x_min":49,"x_max":1263,"o":"m 199 0 l 49 1024 l 270 1024 l 379 47 l 348 48 l 522 1024 l 790 1024 l 963 48 l 932 47 l 1041 1024 l 1263 1024 l 1113 0 l 782 0 l 645 875 l 667 875 l 529 0 l 199 0 m 420 1081 l 588 1224 l 728 1224 l 895 1081 l 756 1081 l 628 1194 l 685 1194 l 558 1081 l 420 1081 z "},"Ẅ":{"ha":1311,"x_min":49,"x_max":1263,"o":"m 199 0 l 49 1024 l 270 1024 l 379 47 l 348 48 l 522 1024 l 790 1024 l 963 48 l 932 47 l 1041 1024 l 1263 1024 l 1113 0 l 782 0 l 645 875 l 667 875 l 529 0 l 199 0 m 491 1071 q 411 1095 445 1071 q 376 1164 376 1119 q 411 1233 376 1208 q 491 1257 445 1257 q 570 1233 536 1257 q 605 1164 605 1208 q 570 1095 605 1119 q 491 1071 536 1071 m 826 1071 q 746 1095 781 1071 q 712 1164 712 1119 q 746 1233 712 1208 q 826 1257 781 1257 q 906 1233 872 1257 q 940 1164 940 1208 q 906 1095 940 1119 q 826 1071 872 1071 z "},"Ẁ":{"ha":1311,"x_min":49,"x_max":1263,"o":"m 199 0 l 49 1024 l 270 1024 l 379 47 l 348 48 l 522 1024 l 790 1024 l 963 48 l 932 47 l 1041 1024 l 1263 1024 l 1113 0 l 782 0 l 645 875 l 667 875 l 529 0 l 199 0 m 775 1082 l 624 1082 l 413 1226 l 585 1226 l 775 1082 z "},"X":{"ha":921,"x_min":31,"x_max":890,"o":"m 372 594 l 371 419 l 39 1024 l 281 1024 l 503 563 l 417 563 l 637 1024 l 879 1024 l 551 419 l 549 594 l 890 0 l 647 0 l 414 450 l 506 450 l 273 0 l 31 0 l 372 594 z "},"Y":{"ha":884,"x_min":38,"x_max":846,"o":"m 846 1024 l 549 353 l 549 0 l 334 0 l 334 353 l 38 1024 l 266 1024 l 485 460 l 399 460 l 617 1024 l 846 1024 z "},"Ý":{"ha":884,"x_min":38,"x_max":846,"o":"m 846 1024 l 549 353 l 549 0 l 334 0 l 334 353 l 38 1024 l 266 1024 l 485 460 l 399 460 l 617 1024 l 846 1024 m 326 1082 l 516 1226 l 688 1226 l 476 1082 l 326 1082 z "},"Ŷ":{"ha":884,"x_min":38,"x_max":846,"o":"m 846 1024 l 549 353 l 549 0 l 334 0 l 334 353 l 38 1024 l 266 1024 l 485 460 l 399 460 l 617 1024 l 846 1024 m 205 1081 l 372 1224 l 513 1224 l 680 1081 l 541 1081 l 413 1194 l 470 1194 l 343 1081 l 205 1081 z "},"Ÿ":{"ha":884,"x_min":38,"x_max":846,"o":"m 846 1024 l 549 353 l 549 0 l 334 0 l 334 353 l 38 1024 l 266 1024 l 485 460 l 399 460 l 617 1024 l 846 1024 m 276 1071 q 195 1095 230 1071 q 161 1164 161 1119 q 195 1233 161 1208 q 276 1257 230 1257 q 355 1233 321 1257 q 390 1164 390 1208 q 355 1095 390 1119 q 276 1071 321 1071 m 610 1071 q 531 1095 565 1071 q 497 1164 497 1119 q 531 1233 497 1208 q 610 1257 565 1257 q 691 1233 656 1257 q 725 1164 725 1208 q 691 1095 725 1119 q 610 1071 656 1071 z "},"Ỵ":{"ha":884,"x_min":38,"x_max":846,"o":"m 846 1024 l 549 353 l 549 0 l 334 0 l 334 353 l 38 1024 l 266 1024 l 485 460 l 399 460 l 617 1024 l 846 1024 m 442 -286 q 356 -260 393 -286 q 318 -185 318 -233 q 356 -110 318 -137 q 442 -84 393 -84 q 530 -110 492 -84 q 567 -185 567 -137 q 530 -260 567 -234 q 442 -286 492 -286 z "},"Ỳ":{"ha":884,"x_min":38,"x_max":846,"o":"m 846 1024 l 549 353 l 549 0 l 334 0 l 334 353 l 38 1024 l 266 1024 l 485 460 l 399 460 l 617 1024 l 846 1024 m 560 1082 l 409 1082 l 198 1226 l 370 1226 l 560 1082 z "},"Ỷ":{"ha":884,"x_min":38,"x_max":846,"o":"m 846 1024 l 549 353 l 549 0 l 334 0 l 334 353 l 38 1024 l 266 1024 l 485 460 l 399 460 l 617 1024 l 846 1024 m 293 1254 q 436 1248 371 1254 q 542 1222 502 1242 q 582 1160 582 1202 q 556 1100 582 1123 q 484 1065 529 1076 q 384 1054 440 1054 l 362 1111 q 411 1116 384 1113 q 458 1128 438 1119 q 478 1151 478 1137 q 430 1180 478 1174 q 293 1187 381 1187 l 293 1254 z "},"Ȳ":{"ha":884,"x_min":38,"x_max":846,"o":"m 846 1024 l 549 353 l 549 0 l 334 0 l 334 353 l 38 1024 l 266 1024 l 485 460 l 399 460 l 617 1024 l 846 1024 m 226 1117 l 226 1207 l 658 1207 l 658 1117 l 226 1117 z "},"Ỹ":{"ha":884,"x_min":38,"x_max":846,"o":"m 846 1024 l 549 353 l 549 0 l 334 0 l 334 353 l 38 1024 l 266 1024 l 485 460 l 399 460 l 617 1024 l 846 1024 m 678 1230 q 663 1158 678 1194 q 618 1098 648 1122 q 540 1073 588 1073 q 478 1088 503 1073 q 437 1115 453 1102 q 407 1139 422 1129 q 373 1149 393 1149 q 338 1132 349 1149 q 326 1088 327 1115 l 217 1088 q 233 1160 217 1124 q 281 1222 249 1197 q 361 1247 313 1247 q 420 1232 396 1247 q 461 1203 445 1217 q 493 1180 477 1190 q 526 1169 509 1169 q 558 1186 548 1169 q 569 1230 568 1203 l 678 1230 z "},"Z":{"ha":811,"x_min":61,"x_max":751,"o":"m 302 167 l 744 167 l 744 0 l 61 0 l 61 144 l 510 859 l 512 858 l 92 858 l 92 1024 l 751 1024 l 751 882 l 302 169 l 302 167 z "},"Ź":{"ha":811,"x_min":61,"x_max":751,"o":"m 302 167 l 744 167 l 744 0 l 61 0 l 61 144 l 510 859 l 512 858 l 92 858 l 92 1024 l 751 1024 l 751 882 l 302 169 l 302 167 m 292 1082 l 482 1226 l 654 1226 l 442 1082 l 292 1082 z "},"Ž":{"ha":811,"x_min":61,"x_max":751,"o":"m 302 167 l 744 167 l 744 0 l 61 0 l 61 144 l 510 859 l 512 858 l 92 858 l 92 1024 l 751 1024 l 751 882 l 302 169 l 302 167 m 171 1224 l 309 1224 l 436 1113 l 379 1113 l 507 1224 l 646 1224 l 479 1081 l 338 1081 l 171 1224 z "},"Ż":{"ha":811,"x_min":61,"x_max":751,"o":"m 302 167 l 744 167 l 744 0 l 61 0 l 61 144 l 510 859 l 512 858 l 92 858 l 92 1024 l 751 1024 l 751 882 l 302 169 l 302 167 m 410 1085 q 323 1112 360 1085 q 286 1186 286 1138 q 323 1261 286 1235 q 410 1287 360 1287 q 498 1261 460 1287 q 535 1186 535 1235 q 498 1111 535 1138 q 410 1085 460 1085 z "},"Ẓ":{"ha":811,"x_min":61,"x_max":751,"o":"m 302 167 l 744 167 l 744 0 l 61 0 l 61 144 l 510 859 l 512 858 l 92 858 l 92 1024 l 751 1024 l 751 882 l 302 169 l 302 167 m 408 -284 q 322 -258 359 -284 q 284 -183 284 -231 q 322 -108 284 -135 q 408 -82 359 -82 q 496 -108 458 -82 q 533 -183 533 -135 q 496 -258 533 -232 q 408 -284 458 -284 z "},"a":{"ha":872,"x_min":57,"x_max":843,"o":"m 334 -15 q 191 10 253 -15 q 92 85 128 36 q 57 203 57 133 q 100 331 57 281 q 214 406 143 380 q 369 440 285 432 q 536 462 490 452 q 583 496 583 472 q 583 496 583 496 q 583 497 583 497 q 543 562 583 538 q 434 585 504 585 q 320 559 360 585 q 281 477 281 532 l 69 477 q 118 627 69 566 q 249 720 166 688 q 435 751 331 751 q 615 722 533 751 q 748 633 698 692 q 799 483 799 574 q 799 455 799 469 q 799 426 799 440 l 799 165 q 800 110 799 136 q 808 63 802 84 q 826 22 815 38 q 843 0 836 6 l 631 0 q 616 20 626 5 q 599 56 606 35 q 587 105 591 80 q 583 163 583 129 l 628 132 q 565 53 608 86 q 462 2 522 20 q 334 -15 403 -15 m 392 146 q 486 164 442 146 q 558 222 531 183 q 586 326 586 262 l 586 400 l 640 348 q 534 320 594 331 q 414 303 474 310 q 308 280 343 297 q 273 222 273 263 q 303 165 273 184 q 392 146 333 146 z "},"á":{"ha":872,"x_min":57,"x_max":843,"o":"m 334 -15 q 191 10 253 -15 q 92 85 128 36 q 57 203 57 133 q 100 331 57 281 q 214 406 143 380 q 369 440 285 432 q 536 462 490 452 q 583 496 583 472 q 583 496 583 496 q 583 497 583 497 q 543 562 583 538 q 434 585 504 585 q 320 559 360 585 q 281 477 281 532 l 69 477 q 118 627 69 566 q 249 720 166 688 q 435 751 331 751 q 615 722 533 751 q 748 633 698 692 q 799 483 799 574 q 799 455 799 469 q 799 426 799 440 l 799 165 q 800 110 799 136 q 808 63 802 84 q 826 22 815 38 q 843 0 836 6 l 631 0 q 616 20 626 5 q 599 56 606 35 q 587 105 591 80 q 583 163 583 129 l 628 132 q 565 53 608 86 q 462 2 522 20 q 334 -15 403 -15 m 392 146 q 486 164 442 146 q 558 222 531 183 q 586 326 586 262 l 586 400 l 640 348 q 534 320 594 331 q 414 303 474 310 q 308 280 343 297 q 273 222 273 263 q 303 165 273 184 q 392 146 333 146 m 331 835 l 497 1024 l 661 1024 l 473 835 l 331 835 z "},"ă":{"ha":872,"x_min":57,"x_max":843,"o":"m 334 -15 q 191 10 253 -15 q 92 85 128 36 q 57 203 57 133 q 100 331 57 281 q 214 406 143 380 q 369 440 285 432 q 536 462 490 452 q 583 496 583 472 q 583 496 583 496 q 583 497 583 497 q 543 562 583 538 q 434 585 504 585 q 320 559 360 585 q 281 477 281 532 l 69 477 q 118 627 69 566 q 249 720 166 688 q 435 751 331 751 q 615 722 533 751 q 748 633 698 692 q 799 483 799 574 q 799 455 799 469 q 799 426 799 440 l 799 165 q 800 110 799 136 q 808 63 802 84 q 826 22 815 38 q 843 0 836 6 l 631 0 q 616 20 626 5 q 599 56 606 35 q 587 105 591 80 q 583 163 583 129 l 628 132 q 565 53 608 86 q 462 2 522 20 q 334 -15 403 -15 m 392 146 q 486 164 442 146 q 558 222 531 183 q 586 326 586 262 l 586 400 l 640 348 q 534 320 594 331 q 414 303 474 310 q 308 280 343 297 q 273 222 273 263 q 303 165 273 184 q 392 146 333 146 m 245 1038 l 371 1038 q 391 969 371 997 q 447 941 411 941 q 502 969 483 941 q 522 1038 522 997 l 648 1038 q 591 906 648 953 q 447 858 533 858 q 302 906 360 858 q 245 1038 245 953 z "},"ắ":{"ha":872,"x_min":57,"x_max":843,"o":"m 334 -15 q 191 10 253 -15 q 92 85 128 36 q 57 203 57 133 q 100 331 57 281 q 214 406 143 380 q 369 440 285 432 q 536 462 490 452 q 583 496 583 472 q 583 496 583 496 q 583 497 583 497 q 543 562 583 538 q 434 585 504 585 q 320 559 360 585 q 281 477 281 532 l 69 477 q 118 627 69 566 q 249 720 166 688 q 435 751 331 751 q 615 722 533 751 q 748 633 698 692 q 799 483 799 574 q 799 455 799 469 q 799 426 799 440 l 799 165 q 800 110 799 136 q 808 63 802 84 q 826 22 815 38 q 843 0 836 6 l 631 0 q 616 20 626 5 q 599 56 606 35 q 587 105 591 80 q 583 163 583 129 l 628 132 q 565 53 608 86 q 462 2 522 20 q 334 -15 403 -15 m 392 146 q 486 164 442 146 q 558 222 531 183 q 586 326 586 262 l 586 400 l 640 348 q 534 320 594 331 q 414 303 474 310 q 308 280 343 297 q 273 222 273 263 q 303 165 273 184 q 392 146 333 146 m 245 1038 l 371 1038 q 391 969 371 997 q 447 941 411 941 q 502 969 483 941 q 522 1038 522 997 l 648 1038 q 591 906 648 953 q 447 858 533 858 q 302 906 360 858 q 245 1038 245 953 m 365 1060 l 555 1204 l 726 1204 l 515 1060 l 365 1060 z "},"ặ":{"ha":872,"x_min":57,"x_max":843,"o":"m 334 -15 q 191 10 253 -15 q 92 85 128 36 q 57 203 57 133 q 100 331 57 281 q 214 406 143 380 q 369 440 285 432 q 536 462 490 452 q 583 496 583 472 q 583 496 583 496 q 583 497 583 497 q 543 562 583 538 q 434 585 504 585 q 320 559 360 585 q 281 477 281 532 l 69 477 q 118 627 69 566 q 249 720 166 688 q 435 751 331 751 q 615 722 533 751 q 748 633 698 692 q 799 483 799 574 q 799 455 799 469 q 799 426 799 440 l 799 165 q 800 110 799 136 q 808 63 802 84 q 826 22 815 38 q 843 0 836 6 l 631 0 q 616 20 626 5 q 599 56 606 35 q 587 105 591 80 q 583 163 583 129 l 628 132 q 565 53 608 86 q 462 2 522 20 q 334 -15 403 -15 m 392 146 q 486 164 442 146 q 558 222 531 183 q 586 326 586 262 l 586 400 l 640 348 q 534 320 594 331 q 414 303 474 310 q 308 280 343 297 q 273 222 273 263 q 303 165 273 184 q 392 146 333 146 m 424 -285 q 337 -259 374 -285 q 299 -184 299 -232 q 337 -110 299 -136 q 424 -83 374 -83 q 511 -110 474 -83 q 549 -184 549 -136 q 511 -259 549 -233 q 424 -285 474 -285 m 245 1038 l 371 1038 q 391 969 371 997 q 447 941 411 941 q 502 969 483 941 q 522 1038 522 997 l 648 1038 q 591 906 648 953 q 447 858 533 858 q 302 906 360 858 q 245 1038 245 953 z "},"ằ":{"ha":872,"x_min":57,"x_max":843,"o":"m 334 -15 q 191 10 253 -15 q 92 85 128 36 q 57 203 57 133 q 100 331 57 281 q 214 406 143 380 q 369 440 285 432 q 536 462 490 452 q 583 496 583 472 q 583 496 583 496 q 583 497 583 497 q 543 562 583 538 q 434 585 504 585 q 320 559 360 585 q 281 477 281 532 l 69 477 q 118 627 69 566 q 249 720 166 688 q 435 751 331 751 q 615 722 533 751 q 748 633 698 692 q 799 483 799 574 q 799 455 799 469 q 799 426 799 440 l 799 165 q 800 110 799 136 q 808 63 802 84 q 826 22 815 38 q 843 0 836 6 l 631 0 q 616 20 626 5 q 599 56 606 35 q 587 105 591 80 q 583 163 583 129 l 628 132 q 565 53 608 86 q 462 2 522 20 q 334 -15 403 -15 m 392 146 q 486 164 442 146 q 558 222 531 183 q 586 326 586 262 l 586 400 l 640 348 q 534 320 594 331 q 414 303 474 310 q 308 280 343 297 q 273 222 273 263 q 303 165 273 184 q 392 146 333 146 m 244 1038 l 370 1038 q 390 969 370 997 q 446 941 410 941 q 501 969 482 941 q 521 1038 521 997 l 647 1038 q 590 906 647 953 q 446 858 532 858 q 302 906 359 858 q 244 1038 244 953 m 533 1060 l 383 1060 l 172 1204 l 344 1204 l 533 1060 z "},"ẳ":{"ha":872,"x_min":57,"x_max":843,"o":"m 334 -15 q 191 10 253 -15 q 92 85 128 36 q 57 203 57 133 q 100 331 57 281 q 214 406 143 380 q 369 440 285 432 q 536 462 490 452 q 583 496 583 472 q 583 496 583 496 q 583 497 583 497 q 543 562 583 538 q 434 585 504 585 q 320 559 360 585 q 281 477 281 532 l 69 477 q 118 627 69 566 q 249 720 166 688 q 435 751 331 751 q 615 722 533 751 q 748 633 698 692 q 799 483 799 574 q 799 455 799 469 q 799 426 799 440 l 799 165 q 800 110 799 136 q 808 63 802 84 q 826 22 815 38 q 843 0 836 6 l 631 0 q 616 20 626 5 q 599 56 606 35 q 587 105 591 80 q 583 163 583 129 l 628 132 q 565 53 608 86 q 462 2 522 20 q 334 -15 403 -15 m 392 146 q 486 164 442 146 q 558 222 531 183 q 586 326 586 262 l 586 400 l 640 348 q 534 320 594 331 q 414 303 474 310 q 308 280 343 297 q 273 222 273 263 q 303 165 273 184 q 392 146 333 146 m 245 1038 l 371 1038 q 391 969 371 997 q 447 941 411 941 q 502 969 483 941 q 522 1038 522 997 l 648 1038 q 591 906 648 953 q 447 858 533 858 q 302 906 360 858 q 245 1038 245 953 m 337 1283 q 480 1277 415 1283 q 586 1251 546 1272 q 626 1189 626 1231 q 599 1129 626 1152 q 528 1094 573 1106 q 427 1083 483 1083 l 406 1140 q 455 1145 428 1142 q 502 1157 482 1149 q 522 1181 522 1166 q 473 1209 522 1203 q 337 1216 424 1216 l 337 1283 z "},"ẵ":{"ha":872,"x_min":57,"x_max":843,"o":"m 334 -15 q 191 10 253 -15 q 92 85 128 36 q 57 203 57 133 q 100 331 57 281 q 214 406 143 380 q 369 440 285 432 q 536 462 490 452 q 583 496 583 472 q 583 496 583 496 q 583 497 583 497 q 543 562 583 538 q 434 585 504 585 q 320 559 360 585 q 281 477 281 532 l 69 477 q 118 627 69 566 q 249 720 166 688 q 435 751 331 751 q 615 722 533 751 q 748 633 698 692 q 799 483 799 574 q 799 455 799 469 q 799 426 799 440 l 799 165 q 800 110 799 136 q 808 63 802 84 q 826 22 815 38 q 843 0 836 6 l 631 0 q 616 20 626 5 q 599 56 606 35 q 587 105 591 80 q 583 163 583 129 l 628 132 q 565 53 608 86 q 462 2 522 20 q 334 -15 403 -15 m 392 146 q 486 164 442 146 q 558 222 531 183 q 586 326 586 262 l 586 400 l 640 348 q 534 320 594 331 q 414 303 474 310 q 308 280 343 297 q 273 222 273 263 q 303 165 273 184 q 392 146 333 146 m 245 1038 l 371 1038 q 391 969 371 997 q 447 941 410 941 q 502 969 483 941 q 522 1038 522 997 l 648 1038 q 590 906 648 953 q 447 858 533 858 q 302 906 360 858 q 245 1038 245 953 m 682 1244 q 667 1172 682 1208 q 622 1111 652 1136 q 544 1087 592 1087 q 481 1101 506 1087 q 441 1129 456 1115 q 413 1153 426 1144 q 378 1163 399 1163 q 343 1146 355 1163 q 331 1101 331 1129 l 221 1101 q 238 1174 222 1138 q 285 1235 253 1210 q 365 1260 317 1260 q 425 1246 400 1260 q 465 1217 449 1231 q 497 1193 481 1203 q 531 1183 513 1183 q 562 1200 552 1183 q 573 1244 572 1217 l 682 1244 z "},"ǎ":{"ha":872,"x_min":57,"x_max":843,"o":"m 334 -15 q 191 10 253 -15 q 92 85 128 36 q 57 203 57 133 q 100 331 57 281 q 214 406 143 380 q 369 440 285 432 q 536 462 490 452 q 583 496 583 472 q 583 496 583 496 q 583 497 583 497 q 543 562 583 538 q 434 585 504 585 q 320 559 360 585 q 281 477 281 532 l 69 477 q 118 627 69 566 q 249 720 166 688 q 435 751 331 751 q 615 722 533 751 q 748 633 698 692 q 799 483 799 574 q 799 455 799 469 q 799 426 799 440 l 799 165 q 800 110 799 136 q 808 63 802 84 q 826 22 815 38 q 843 0 836 6 l 631 0 q 616 20 626 5 q 599 56 606 35 q 587 105 591 80 q 583 163 583 129 l 628 132 q 565 53 608 86 q 462 2 522 20 q 334 -15 403 -15 m 392 146 q 486 164 442 146 q 558 222 531 183 q 586 326 586 262 l 586 400 l 640 348 q 534 320 594 331 q 414 303 474 310 q 308 280 343 297 q 273 222 273 263 q 303 165 273 184 q 392 146 333 146 m 210 1024 l 347 1024 l 474 875 l 417 875 l 545 1024 l 682 1024 l 516 835 l 377 835 l 210 1024 z "},"â":{"ha":872,"x_min":57,"x_max":843,"o":"m 334 -15 q 191 10 253 -15 q 92 85 128 36 q 57 203 57 133 q 100 331 57 281 q 214 406 143 380 q 369 440 285 432 q 536 462 490 452 q 583 496 583 472 q 583 496 583 496 q 583 497 583 497 q 543 562 583 538 q 434 585 504 585 q 320 559 360 585 q 281 477 281 532 l 69 477 q 118 627 69 566 q 249 720 166 688 q 435 751 331 751 q 615 722 533 751 q 748 633 698 692 q 799 483 799 574 q 799 455 799 469 q 799 426 799 440 l 799 165 q 800 110 799 136 q 808 63 802 84 q 826 22 815 38 q 843 0 836 6 l 631 0 q 616 20 626 5 q 599 56 606 35 q 587 105 591 80 q 583 163 583 129 l 628 132 q 565 53 608 86 q 462 2 522 20 q 334 -15 403 -15 m 392 146 q 486 164 442 146 q 558 222 531 183 q 586 326 586 262 l 586 400 l 640 348 q 534 320 594 331 q 414 303 474 310 q 308 280 343 297 q 273 222 273 263 q 303 165 273 184 q 392 146 333 146 m 210 835 l 377 1024 l 516 1024 l 682 835 l 545 835 l 417 985 l 474 985 l 347 835 l 210 835 z "},"ấ":{"ha":872,"x_min":57,"x_max":843,"o":"m 334 -15 q 191 10 253 -15 q 92 85 128 36 q 57 203 57 133 q 100 331 57 281 q 214 406 143 380 q 369 440 285 432 q 536 462 490 452 q 583 496 583 472 q 583 496 583 496 q 583 497 583 497 q 543 562 583 538 q 434 585 504 585 q 320 559 360 585 q 281 477 281 532 l 69 477 q 118 627 69 566 q 249 720 166 688 q 435 751 331 751 q 615 722 533 751 q 748 633 698 692 q 799 483 799 574 q 799 455 799 469 q 799 426 799 440 l 799 165 q 800 110 799 136 q 808 63 802 84 q 826 22 815 38 q 843 0 836 6 l 631 0 q 616 20 626 5 q 599 56 606 35 q 587 105 591 80 q 583 163 583 129 l 628 132 q 565 53 608 86 q 462 2 522 20 q 334 -15 403 -15 m 392 146 q 486 164 442 146 q 558 222 531 183 q 586 326 586 262 l 586 400 l 640 348 q 534 320 594 331 q 414 303 474 310 q 308 280 343 297 q 273 222 273 263 q 303 165 273 184 q 392 146 333 146 m 210 835 l 377 1024 l 516 1024 l 682 835 l 545 835 l 417 985 l 474 985 l 347 835 l 210 835 m 563 995 l 697 1183 l 838 1183 l 688 995 l 563 995 z "},"ậ":{"ha":872,"x_min":57,"x_max":843,"o":"m 334 -15 q 191 10 253 -15 q 92 85 128 36 q 57 203 57 133 q 100 331 57 281 q 214 406 143 380 q 369 440 285 432 q 536 462 490 452 q 583 496 583 472 q 583 496 583 496 q 583 497 583 497 q 543 562 583 538 q 434 585 504 585 q 320 559 360 585 q 281 477 281 532 l 69 477 q 118 627 69 566 q 249 720 166 688 q 435 751 331 751 q 615 722 533 751 q 748 633 698 692 q 799 483 799 574 q 799 455 799 469 q 799 426 799 440 l 799 165 q 800 110 799 136 q 808 63 802 84 q 826 22 815 38 q 843 0 836 6 l 631 0 q 616 20 626 5 q 599 56 606 35 q 587 105 591 80 q 583 163 583 129 l 628 132 q 565 53 608 86 q 462 2 522 20 q 334 -15 403 -15 m 392 146 q 486 164 442 146 q 558 222 531 183 q 586 326 586 262 l 586 400 l 640 348 q 534 320 594 331 q 414 303 474 310 q 308 280 343 297 q 273 222 273 263 q 303 165 273 184 q 392 146 333 146 m 424 -285 q 337 -259 374 -285 q 299 -184 299 -232 q 337 -110 299 -136 q 424 -83 374 -83 q 511 -110 474 -83 q 549 -184 549 -136 q 511 -259 549 -233 q 424 -285 474 -285 m 210 835 l 377 1024 l 516 1024 l 682 835 l 545 835 l 417 985 l 474 985 l 347 835 l 210 835 z "},"ầ":{"ha":872,"x_min":57,"x_max":843,"o":"m 334 -15 q 191 10 253 -15 q 92 85 128 36 q 57 203 57 133 q 100 331 57 281 q 214 406 143 380 q 369 440 285 432 q 536 462 490 452 q 583 496 583 472 q 583 496 583 496 q 583 497 583 497 q 543 562 583 538 q 434 585 504 585 q 320 559 360 585 q 281 477 281 532 l 69 477 q 118 627 69 566 q 249 720 166 688 q 435 751 331 751 q 615 722 533 751 q 748 633 698 692 q 799 483 799 574 q 799 455 799 469 q 799 426 799 440 l 799 165 q 800 110 799 136 q 808 63 802 84 q 826 22 815 38 q 843 0 836 6 l 631 0 q 616 20 626 5 q 599 56 606 35 q 587 105 591 80 q 583 163 583 129 l 628 132 q 565 53 608 86 q 462 2 522 20 q 334 -15 403 -15 m 392 146 q 486 164 442 146 q 558 222 531 183 q 586 326 586 262 l 586 400 l 640 348 q 534 320 594 331 q 414 303 474 310 q 308 280 343 297 q 273 222 273 263 q 303 165 273 184 q 392 146 333 146 m 212 835 l 378 1024 l 517 1024 l 683 835 l 547 835 l 419 985 l 476 985 l 348 835 l 212 835 m 743 995 l 618 995 l 467 1183 l 608 1183 l 743 995 z "},"ẩ":{"ha":872,"x_min":57,"x_max":843,"o":"m 334 -15 q 191 10 253 -15 q 92 85 128 36 q 57 203 57 133 q 100 331 57 281 q 214 406 143 380 q 369 440 285 432 q 536 462 490 452 q 583 496 583 472 q 583 496 583 496 q 583 497 583 497 q 543 562 583 538 q 434 585 504 585 q 320 559 360 585 q 281 477 281 532 l 69 477 q 118 627 69 566 q 249 720 166 688 q 435 751 331 751 q 615 722 533 751 q 748 633 698 692 q 799 483 799 574 q 799 455 799 469 q 799 426 799 440 l 799 165 q 800 110 799 136 q 808 63 802 84 q 826 22 815 38 q 843 0 836 6 l 631 0 q 616 20 626 5 q 599 56 606 35 q 587 105 591 80 q 583 163 583 129 l 628 132 q 565 53 608 86 q 462 2 522 20 q 334 -15 403 -15 m 392 146 q 486 164 442 146 q 558 222 531 183 q 586 326 586 262 l 586 400 l 640 348 q 534 320 594 331 q 414 303 474 310 q 308 280 343 297 q 273 222 273 263 q 303 165 273 184 q 392 146 333 146 m 210 835 l 377 1024 l 516 1024 l 682 835 l 545 835 l 417 985 l 474 985 l 347 835 l 210 835 m 613 992 l 593 1042 q 638 1046 613 1043 q 680 1057 662 1049 q 697 1077 697 1064 q 653 1103 697 1098 q 532 1109 610 1109 l 532 1169 q 660 1163 601 1169 q 753 1140 718 1158 q 789 1085 789 1122 q 766 1032 789 1053 q 702 1001 742 1011 q 613 992 663 992 z "},"ẫ":{"ha":872,"x_min":57,"x_max":843,"o":"m 334 -15 q 191 10 253 -15 q 92 85 128 36 q 57 203 57 133 q 100 331 57 281 q 214 406 143 380 q 369 440 285 432 q 536 462 490 452 q 583 496 583 472 q 583 496 583 496 q 583 497 583 497 q 543 562 583 538 q 434 585 504 585 q 320 559 360 585 q 281 477 281 532 l 69 477 q 118 627 69 566 q 249 720 166 688 q 435 751 331 751 q 615 722 533 751 q 748 633 698 692 q 799 483 799 574 q 799 455 799 469 q 799 426 799 440 l 799 165 q 800 110 799 136 q 808 63 802 84 q 826 22 815 38 q 843 0 836 6 l 631 0 q 616 20 626 5 q 599 56 606 35 q 587 105 591 80 q 583 163 583 129 l 628 132 q 565 53 608 86 q 462 2 522 20 q 334 -15 403 -15 m 392 146 q 486 164 442 146 q 558 222 531 183 q 586 326 586 262 l 586 400 l 640 348 q 534 320 594 331 q 414 303 474 310 q 308 280 343 297 q 273 222 273 263 q 303 165 273 184 q 392 146 333 146 m 210 835 l 377 1024 l 516 1024 l 682 835 l 545 835 l 417 985 l 474 985 l 347 835 l 210 835 m 541 1078 q 478 1092 503 1078 q 438 1120 453 1106 q 409 1145 424 1135 q 376 1155 395 1155 q 340 1138 352 1155 q 328 1092 328 1120 l 218 1092 q 234 1166 219 1129 q 282 1227 250 1202 q 363 1251 314 1251 q 422 1237 397 1251 q 462 1209 447 1223 q 494 1185 478 1195 q 527 1175 510 1175 q 559 1191 549 1175 q 570 1235 569 1208 l 679 1235 q 664 1164 678 1200 q 619 1102 649 1127 q 541 1078 588 1078 z "},"ȁ":{"ha":872,"x_min":57,"x_max":843,"o":"m 334 -15 q 191 10 253 -15 q 92 85 128 36 q 57 203 57 133 q 100 331 57 281 q 214 406 143 380 q 369 440 285 432 q 536 462 490 452 q 583 496 583 472 q 583 496 583 496 q 583 497 583 497 q 543 562 583 538 q 434 585 504 585 q 320 559 360 585 q 281 477 281 532 l 69 477 q 118 627 69 566 q 249 720 166 688 q 435 751 331 751 q 615 722 533 751 q 748 633 698 692 q 799 483 799 574 q 799 455 799 469 q 799 426 799 440 l 799 165 q 800 110 799 136 q 808 63 802 84 q 826 22 815 38 q 843 0 836 6 l 631 0 q 616 20 626 5 q 599 56 606 35 q 587 105 591 80 q 583 163 583 129 l 628 132 q 565 53 608 86 q 462 2 522 20 q 334 -15 403 -15 m 392 146 q 486 164 442 146 q 558 222 531 183 q 586 326 586 262 l 586 400 l 640 348 q 534 320 594 331 q 414 303 474 310 q 308 280 343 297 q 273 222 273 263 q 303 165 273 184 q 392 146 333 146 m 626 835 l 512 835 l 389 1024 l 522 1024 l 626 835 m 396 835 l 281 835 l 142 1024 l 276 1024 l 396 835 z "},"ä":{"ha":872,"x_min":57,"x_max":843,"o":"m 334 -15 q 191 10 253 -15 q 92 85 128 36 q 57 203 57 133 q 100 331 57 281 q 214 406 143 380 q 369 440 285 432 q 536 462 490 452 q 583 496 583 472 q 583 496 583 496 q 583 497 583 497 q 543 562 583 538 q 434 585 504 585 q 320 559 360 585 q 281 477 281 532 l 69 477 q 118 627 69 566 q 249 720 166 688 q 435 751 331 751 q 615 722 533 751 q 748 633 698 692 q 799 483 799 574 q 799 455 799 469 q 799 426 799 440 l 799 165 q 800 110 799 136 q 808 63 802 84 q 826 22 815 38 q 843 0 836 6 l 631 0 q 616 20 626 5 q 599 56 606 35 q 587 105 591 80 q 583 163 583 129 l 628 132 q 565 53 608 86 q 462 2 522 20 q 334 -15 403 -15 m 392 146 q 486 164 442 146 q 558 222 531 183 q 586 326 586 262 l 586 400 l 640 348 q 534 320 594 331 q 414 303 474 310 q 308 280 343 297 q 273 222 273 263 q 303 165 273 184 q 392 146 333 146 m 278 853 q 198 877 233 853 q 164 946 164 901 q 198 1015 164 990 q 278 1039 233 1039 q 358 1015 324 1039 q 392 946 392 990 q 358 877 392 901 q 278 853 324 853 m 613 853 q 534 877 568 853 q 499 946 499 901 q 534 1015 499 990 q 613 1039 568 1039 q 693 1015 659 1039 q 728 946 728 990 q 693 877 728 901 q 613 853 659 853 z "},"ǟ":{"ha":872,"x_min":57,"x_max":843,"o":"m 334 -15 q 191 10 253 -15 q 92 85 128 36 q 57 203 57 133 q 100 331 57 281 q 214 406 143 380 q 369 440 285 432 q 536 462 490 452 q 583 496 583 472 q 583 496 583 496 q 583 497 583 497 q 543 562 583 538 q 434 585 504 585 q 320 559 360 585 q 281 477 281 532 l 69 477 q 118 627 69 566 q 249 720 166 688 q 435 751 331 751 q 615 722 533 751 q 748 633 698 692 q 799 483 799 574 q 799 455 799 469 q 799 426 799 440 l 799 165 q 800 110 799 136 q 808 63 802 84 q 826 22 815 38 q 843 0 836 6 l 631 0 q 616 20 626 5 q 599 56 606 35 q 587 105 591 80 q 583 163 583 129 l 628 132 q 565 53 608 86 q 462 2 522 20 q 334 -15 403 -15 m 392 146 q 486 164 442 146 q 558 222 531 183 q 586 326 586 262 l 586 400 l 640 348 q 534 320 594 331 q 414 303 474 310 q 308 280 343 297 q 273 222 273 263 q 303 165 273 184 q 392 146 333 146 m 278 853 q 198 877 233 853 q 164 946 164 901 q 198 1015 164 990 q 278 1039 233 1039 q 358 1015 324 1039 q 392 946 392 990 q 358 877 392 901 q 278 853 324 853 m 613 853 q 534 877 568 853 q 499 946 499 901 q 534 1015 499 990 q 613 1039 568 1039 q 693 1015 659 1039 q 728 946 728 990 q 693 877 728 901 q 613 853 659 853 m 229 1132 l 229 1222 l 662 1222 l 662 1132 l 229 1132 z "},"ạ":{"ha":872,"x_min":57,"x_max":843,"o":"m 334 -15 q 191 10 253 -15 q 92 85 128 36 q 57 203 57 133 q 100 331 57 281 q 214 406 143 380 q 369 440 285 432 q 536 462 490 452 q 583 496 583 472 q 583 496 583 496 q 583 497 583 497 q 543 562 583 538 q 434 585 504 585 q 320 559 360 585 q 281 477 281 532 l 69 477 q 118 627 69 566 q 249 720 166 688 q 435 751 331 751 q 615 722 533 751 q 748 633 698 692 q 799 483 799 574 q 799 455 799 469 q 799 426 799 440 l 799 165 q 800 110 799 136 q 808 63 802 84 q 826 22 815 38 q 843 0 836 6 l 631 0 q 616 20 626 5 q 599 56 606 35 q 587 105 591 80 q 583 163 583 129 l 628 132 q 565 53 608 86 q 462 2 522 20 q 334 -15 403 -15 m 392 146 q 486 164 442 146 q 558 222 531 183 q 586 326 586 262 l 586 400 l 640 348 q 534 320 594 331 q 414 303 474 310 q 308 280 343 297 q 273 222 273 263 q 303 165 273 184 q 392 146 333 146 m 424 -285 q 337 -259 374 -285 q 299 -184 299 -232 q 337 -110 299 -136 q 424 -83 374 -83 q 511 -110 474 -83 q 549 -184 549 -136 q 511 -259 549 -233 q 424 -285 474 -285 z "},"à":{"ha":872,"x_min":57,"x_max":843,"o":"m 334 -15 q 191 10 253 -15 q 92 85 128 36 q 57 203 57 133 q 100 331 57 281 q 214 406 143 380 q 369 440 285 432 q 536 462 490 452 q 583 496 583 472 q 583 496 583 496 q 583 497 583 497 q 543 562 583 538 q 434 585 504 585 q 320 559 360 585 q 281 477 281 532 l 69 477 q 118 627 69 566 q 249 720 166 688 q 435 751 331 751 q 615 722 533 751 q 748 633 698 692 q 799 483 799 574 q 799 455 799 469 q 799 426 799 440 l 799 165 q 800 110 799 136 q 808 63 802 84 q 826 22 815 38 q 843 0 836 6 l 631 0 q 616 20 626 5 q 599 56 606 35 q 587 105 591 80 q 583 163 583 129 l 628 132 q 565 53 608 86 q 462 2 522 20 q 334 -15 403 -15 m 392 146 q 486 164 442 146 q 558 222 531 183 q 586 326 586 262 l 586 400 l 640 348 q 534 320 594 331 q 414 303 474 310 q 308 280 343 297 q 273 222 273 263 q 303 165 273 184 q 392 146 333 146 m 559 832 l 417 832 l 228 1021 l 394 1021 l 559 832 z "},"ả":{"ha":872,"x_min":57,"x_max":843,"o":"m 334 -15 q 191 10 253 -15 q 92 85 128 36 q 57 203 57 133 q 100 331 57 281 q 214 406 143 380 q 369 440 285 432 q 536 462 490 452 q 583 496 583 472 q 583 496 583 496 q 583 497 583 497 q 543 562 583 538 q 434 585 504 585 q 320 559 360 585 q 281 477 281 532 l 69 477 q 118 627 69 566 q 249 720 166 688 q 435 751 331 751 q 615 722 533 751 q 748 633 698 692 q 799 483 799 574 q 799 455 799 469 q 799 426 799 440 l 799 165 q 800 110 799 136 q 808 63 802 84 q 826 22 815 38 q 843 0 836 6 l 631 0 q 616 20 626 5 q 599 56 606 35 q 587 105 591 80 q 583 163 583 129 l 628 132 q 565 53 608 86 q 462 2 522 20 q 334 -15 403 -15 m 392 146 q 486 164 442 146 q 558 222 531 183 q 586 326 586 262 l 586 400 l 640 348 q 534 320 594 331 q 414 303 474 310 q 308 280 343 297 q 273 222 273 263 q 303 165 273 184 q 392 146 333 146 m 300 1048 q 443 1042 378 1048 q 549 1016 509 1036 q 589 953 589 996 q 563 894 589 917 q 491 860 536 871 q 391 849 447 849 l 369 905 q 418 910 391 906 q 465 922 445 914 q 485 945 485 931 q 436 974 485 968 q 300 981 388 981 l 300 1048 z "},"ȃ":{"ha":872,"x_min":57,"x_max":843,"o":"m 334 -15 q 191 10 253 -15 q 92 85 128 36 q 57 203 57 133 q 100 331 57 281 q 214 406 143 380 q 369 440 285 432 q 536 462 490 452 q 583 496 583 472 q 583 496 583 496 q 583 497 583 497 q 543 562 583 538 q 434 585 504 585 q 320 559 360 585 q 281 477 281 532 l 69 477 q 118 627 69 566 q 249 720 166 688 q 435 751 331 751 q 615 722 533 751 q 748 633 698 692 q 799 483 799 574 q 799 455 799 469 q 799 426 799 440 l 799 165 q 800 110 799 136 q 808 63 802 84 q 826 22 815 38 q 843 0 836 6 l 631 0 q 616 20 626 5 q 599 56 606 35 q 587 105 591 80 q 583 163 583 129 l 628 132 q 565 53 608 86 q 462 2 522 20 q 334 -15 403 -15 m 392 146 q 486 164 442 146 q 558 222 531 183 q 586 326 586 262 l 586 400 l 640 348 q 534 320 594 331 q 414 303 474 310 q 308 280 343 297 q 273 222 273 263 q 303 165 273 184 q 392 146 333 146 m 244 862 q 302 991 244 948 q 447 1033 359 1033 q 590 991 533 1033 q 647 862 647 948 l 522 862 q 502 927 522 904 q 447 951 483 951 q 391 927 410 951 q 371 862 371 904 l 244 862 z "},"ā":{"ha":872,"x_min":57,"x_max":843,"o":"m 334 -15 q 191 10 253 -15 q 92 85 128 36 q 57 203 57 133 q 100 331 57 281 q 214 406 143 380 q 369 440 285 432 q 536 462 490 452 q 583 496 583 472 q 583 496 583 496 q 583 497 583 497 q 543 562 583 538 q 434 585 504 585 q 320 559 360 585 q 281 477 281 532 l 69 477 q 118 627 69 566 q 249 720 166 688 q 435 751 331 751 q 615 722 533 751 q 748 633 698 692 q 799 483 799 574 q 799 455 799 469 q 799 426 799 440 l 799 165 q 800 110 799 136 q 808 63 802 84 q 826 22 815 38 q 843 0 836 6 l 631 0 q 616 20 626 5 q 599 56 606 35 q 587 105 591 80 q 583 163 583 129 l 628 132 q 565 53 608 86 q 462 2 522 20 q 334 -15 403 -15 m 392 146 q 486 164 442 146 q 558 222 531 183 q 586 326 586 262 l 586 400 l 640 348 q 534 320 594 331 q 414 303 474 310 q 308 280 343 297 q 273 222 273 263 q 303 165 273 184 q 392 146 333 146 m 230 894 l 230 983 l 663 983 l 663 894 l 230 894 z "},"ą":{"ha":872,"x_min":57,"x_max":843,"o":"m 334 -15 q 191 10 253 -15 q 92 85 128 36 q 57 203 57 133 q 100 331 57 281 q 214 406 143 380 q 369 440 285 432 q 536 462 490 452 q 583 496 583 472 q 583 496 583 496 q 583 497 583 497 q 543 562 583 538 q 434 585 504 585 q 320 559 360 585 q 281 477 281 532 l 69 477 q 118 627 69 566 q 249 720 166 688 q 435 751 331 751 q 615 722 533 751 q 748 633 698 692 q 799 483 799 574 q 799 455 799 469 q 799 426 799 440 l 799 165 q 800 110 799 136 q 808 63 802 84 q 826 22 815 38 q 843 0 836 6 l 631 0 q 616 20 626 5 q 599 56 606 35 q 587 105 591 80 q 583 163 583 129 l 628 132 q 565 53 608 86 q 462 2 522 20 q 334 -15 403 -15 m 392 146 q 486 164 442 146 q 558 222 531 183 q 586 326 586 262 l 586 400 l 640 348 q 534 320 594 331 q 414 303 474 310 q 308 280 343 297 q 273 222 273 263 q 303 165 273 184 q 392 146 333 146 m 842 -206 l 842 -308 q 812 -311 828 -310 q 778 -312 795 -312 q 692 -300 731 -312 q 630 -262 653 -288 q 606 -194 606 -235 q 629 -118 606 -156 q 683 -48 651 -80 q 737 0 714 -17 l 842 0 q 794 -47 822 -17 q 744 -109 766 -77 q 723 -165 723 -141 q 742 -201 723 -191 q 790 -210 762 -210 q 817 -209 803 -210 q 842 -206 831 -207 z "},"å":{"ha":872,"x_min":57,"x_max":843,"o":"m 334 -15 q 191 10 253 -15 q 92 85 128 36 q 57 203 57 133 q 100 331 57 281 q 214 406 143 380 q 369 440 285 432 q 536 462 490 452 q 583 496 583 472 q 583 496 583 496 q 583 497 583 497 q 543 562 583 538 q 434 585 504 585 q 320 559 360 585 q 281 477 281 532 l 69 477 q 118 627 69 566 q 249 720 166 688 q 435 751 331 751 q 615 722 533 751 q 748 633 698 692 q 799 483 799 574 q 799 455 799 469 q 799 426 799 440 l 799 165 q 800 110 799 136 q 808 63 802 84 q 826 22 815 38 q 843 0 836 6 l 631 0 q 616 20 626 5 q 599 56 606 35 q 587 105 591 80 q 583 163 583 129 l 628 132 q 565 53 608 86 q 462 2 522 20 q 334 -15 403 -15 m 392 146 q 486 164 442 146 q 558 222 531 183 q 586 326 586 262 l 586 400 l 640 348 q 534 320 594 331 q 414 303 474 310 q 308 280 343 297 q 273 222 273 263 q 303 165 273 184 q 392 146 333 146 m 447 886 q 493 905 474 886 q 513 952 513 924 q 493 999 513 980 q 447 1018 474 1018 q 400 999 419 1018 q 381 952 381 980 q 400 905 381 924 q 447 886 419 886 m 447 793 q 367 815 403 793 q 309 872 331 836 q 288 952 288 908 q 309 1032 288 996 q 367 1090 331 1068 q 447 1111 403 1111 q 527 1090 491 1111 q 584 1032 563 1068 q 606 952 606 996 q 584 872 606 908 q 527 815 563 836 q 447 793 491 793 z "},"ǻ":{"ha":872,"x_min":57,"x_max":843,"o":"m 334 -15 q 191 10 253 -15 q 92 85 128 36 q 57 203 57 133 q 100 331 57 281 q 214 406 143 380 q 369 440 285 432 q 536 462 490 452 q 583 496 583 472 q 583 496 583 496 q 583 497 583 497 q 543 562 583 538 q 434 585 504 585 q 320 559 360 585 q 281 477 281 532 l 69 477 q 118 627 69 566 q 249 720 166 688 q 435 751 331 751 q 615 722 533 751 q 748 633 698 692 q 799 483 799 574 q 799 455 799 469 q 799 426 799 440 l 799 165 q 800 110 799 136 q 808 63 802 84 q 826 22 815 38 q 843 0 836 6 l 631 0 q 616 20 626 5 q 599 56 606 35 q 587 105 591 80 q 583 163 583 129 l 628 132 q 565 53 608 86 q 462 2 522 20 q 334 -15 403 -15 m 392 146 q 486 164 442 146 q 558 222 531 183 q 586 326 586 262 l 586 400 l 640 348 q 534 320 594 331 q 414 303 474 310 q 308 280 343 297 q 273 222 273 263 q 303 165 273 184 q 392 146 333 146 m 447 886 q 493 905 474 886 q 513 952 513 924 q 493 999 513 980 q 447 1018 474 1018 q 400 999 419 1018 q 381 952 381 980 q 400 905 381 924 q 447 886 419 886 m 447 793 q 367 815 403 793 q 309 872 331 836 q 288 952 288 908 q 309 1032 288 996 q 367 1090 331 1068 q 447 1111 403 1111 q 527 1090 491 1111 q 584 1032 563 1068 q 606 952 606 996 q 584 872 606 908 q 527 815 563 836 q 447 793 491 793 m 335 1181 l 501 1369 l 665 1369 l 477 1181 l 335 1181 z "},"ã":{"ha":872,"x_min":57,"x_max":843,"o":"m 334 -15 q 191 10 253 -15 q 92 85 128 36 q 57 203 57 133 q 100 331 57 281 q 214 406 143 380 q 369 440 285 432 q 536 462 490 452 q 583 496 583 472 q 583 496 583 496 q 583 497 583 497 q 543 562 583 538 q 434 585 504 585 q 320 559 360 585 q 281 477 281 532 l 69 477 q 118 627 69 566 q 249 720 166 688 q 435 751 331 751 q 615 722 533 751 q 748 633 698 692 q 799 483 799 574 q 799 455 799 469 q 799 426 799 440 l 799 165 q 800 110 799 136 q 808 63 802 84 q 826 22 815 38 q 843 0 836 6 l 631 0 q 616 20 626 5 q 599 56 606 35 q 587 105 591 80 q 583 163 583 129 l 628 132 q 565 53 608 86 q 462 2 522 20 q 334 -15 403 -15 m 392 146 q 486 164 442 146 q 558 222 531 183 q 586 326 586 262 l 586 400 l 640 348 q 534 320 594 331 q 414 303 474 310 q 308 280 343 297 q 273 222 273 263 q 303 165 273 184 q 392 146 333 146 m 676 1011 q 661 939 676 976 q 616 878 647 903 q 538 853 586 853 q 476 868 501 853 q 435 897 451 883 q 406 920 420 910 q 372 931 392 931 q 337 913 348 931 q 325 868 326 896 l 216 868 q 232 941 216 905 q 280 1002 248 978 q 360 1027 312 1027 q 419 1013 394 1027 q 460 985 444 999 q 492 961 476 971 q 525 951 508 951 q 557 967 547 951 q 567 1011 567 983 l 676 1011 z "},"æ":{"ha":1482,"x_min":57,"x_max":1432,"o":"m 399 -17 q 147 50 237 -17 q 57 226 57 117 q 84 325 57 285 q 159 389 112 365 q 268 423 206 413 q 398 434 330 434 q 536 436 488 434 q 603 447 585 438 q 622 474 622 455 q 622 480 622 476 q 622 487 622 483 q 577 561 622 535 q 461 588 532 588 q 372 576 412 588 q 309 541 332 565 q 286 481 286 518 l 74 481 q 105 598 74 548 q 190 683 135 649 q 315 734 244 717 q 463 751 385 751 q 628 723 552 751 q 752 639 705 695 q 769 620 761 630 q 784 601 777 611 l 705 603 q 842 712 758 673 q 1033 751 926 751 q 1245 702 1156 751 q 1383 564 1335 652 q 1432 358 1432 475 q 1432 326 1432 341 q 1430 304 1431 312 l 744 304 l 835 378 q 835 355 835 367 q 837 333 836 344 q 866 233 842 275 q 932 167 889 190 q 1038 144 975 144 q 1114 152 1082 144 q 1166 175 1145 161 q 1197 204 1186 188 q 1210 233 1208 219 l 1422 233 q 1390 143 1417 188 q 1313 63 1362 99 q 1193 5 1263 26 q 1033 -17 1122 -17 q 886 5 953 -17 q 767 66 819 26 q 683 161 716 106 l 749 171 q 668 60 724 101 q 540 1 612 19 q 399 -17 469 -17 m 409 149 q 482 159 444 149 q 552 193 519 169 q 605 259 585 217 q 626 365 626 301 q 626 377 626 372 q 626 390 626 383 l 683 323 q 559 308 628 312 q 427 304 490 304 q 311 288 349 304 q 273 231 273 272 q 310 169 273 190 q 409 149 347 149 m 844 442 l 1215 442 q 1215 450 1215 446 q 1213 459 1215 454 q 1186 524 1208 494 q 1127 574 1165 555 q 1035 593 1090 593 q 946 575 985 593 q 881 523 907 557 q 844 442 854 490 z "},"ǽ":{"ha":1482,"x_min":57,"x_max":1432,"o":"m 399 -17 q 147 50 237 -17 q 57 226 57 117 q 84 325 57 285 q 159 389 112 365 q 268 423 206 413 q 398 434 330 434 q 536 436 488 434 q 603 447 585 438 q 622 474 622 455 q 622 480 622 476 q 622 487 622 483 q 577 561 622 535 q 461 588 532 588 q 372 576 412 588 q 309 541 332 565 q 286 481 286 518 l 74 481 q 105 598 74 548 q 190 683 135 649 q 315 734 244 717 q 463 751 385 751 q 628 723 552 751 q 752 639 705 695 q 769 620 761 630 q 784 601 777 611 l 705 603 q 842 712 758 673 q 1033 751 926 751 q 1245 702 1156 751 q 1383 564 1335 652 q 1432 358 1432 475 q 1432 326 1432 341 q 1430 304 1431 312 l 744 304 l 835 378 q 835 355 835 367 q 837 333 836 344 q 866 233 842 275 q 932 167 889 190 q 1038 144 975 144 q 1114 152 1082 144 q 1166 175 1145 161 q 1197 204 1186 188 q 1210 233 1208 219 l 1422 233 q 1390 143 1417 188 q 1313 63 1362 99 q 1193 5 1263 26 q 1033 -17 1122 -17 q 886 5 953 -17 q 767 66 819 26 q 683 161 716 106 l 749 171 q 668 60 724 101 q 540 1 612 19 q 399 -17 469 -17 m 409 149 q 482 159 444 149 q 552 193 519 169 q 605 259 585 217 q 626 365 626 301 q 626 377 626 372 q 626 390 626 383 l 683 323 q 559 308 628 312 q 427 304 490 304 q 311 288 349 304 q 273 231 273 272 q 310 169 273 190 q 409 149 347 149 m 844 442 l 1215 442 q 1215 450 1215 446 q 1213 459 1215 454 q 1186 524 1208 494 q 1127 574 1165 555 q 1035 593 1090 593 q 946 575 985 593 q 881 523 907 557 q 844 442 854 490 m 635 835 l 800 1024 l 965 1024 l 776 835 l 635 835 z "},"b":{"ha":919,"x_min":84,"x_max":869,"o":"m 528 -16 q 367 31 440 -16 q 251 157 294 77 q 207 335 207 236 q 207 341 207 338 q 207 347 207 343 l 300 349 q 300 344 300 347 q 300 340 300 342 q 325 250 300 289 q 390 191 350 212 q 472 170 429 170 q 595 219 543 170 q 648 372 648 268 q 596 524 648 476 q 472 572 544 572 q 390 551 429 572 q 325 493 350 531 q 300 403 300 456 l 207 409 q 251 586 207 509 q 367 707 294 663 q 528 751 440 751 q 695 707 617 751 q 821 578 773 663 q 869 372 869 494 q 822 159 869 245 q 697 28 775 72 q 528 -16 619 -16 m 84 0 l 84 1085 l 300 1085 l 300 0 l 84 0 z "},"c":{"ha":880,"x_min":50,"x_max":830,"o":"m 456 -17 q 242 32 334 -17 q 100 169 151 81 q 50 371 50 256 q 100 572 50 487 q 242 704 151 657 q 456 751 334 751 q 617 725 547 751 q 734 654 687 698 q 806 558 781 610 q 830 455 830 506 q 830 452 830 454 q 830 449 830 451 l 617 449 q 616 457 617 453 q 615 465 616 461 q 590 520 609 494 q 538 562 572 546 q 454 578 504 578 q 359 555 401 578 q 292 485 317 531 q 268 371 268 439 q 292 256 268 304 q 359 182 317 208 q 454 156 401 156 q 544 173 509 156 q 596 219 578 190 q 617 283 613 248 l 830 283 q 806 178 830 231 q 735 81 782 125 q 618 10 688 38 q 456 -17 548 -17 z "},"ć":{"ha":880,"x_min":50,"x_max":830,"o":"m 456 -17 q 242 32 334 -17 q 100 169 151 81 q 50 371 50 256 q 100 572 50 487 q 242 704 151 657 q 456 751 334 751 q 617 725 547 751 q 734 654 687 698 q 806 558 781 610 q 830 455 830 506 q 830 452 830 454 q 830 449 830 451 l 617 449 q 616 457 617 453 q 615 465 616 461 q 590 520 609 494 q 538 562 572 546 q 454 578 504 578 q 359 555 401 578 q 292 485 317 531 q 268 371 268 439 q 292 256 268 304 q 359 182 317 208 q 454 156 401 156 q 544 173 509 156 q 596 219 578 190 q 617 283 613 248 l 830 283 q 806 178 830 231 q 735 81 782 125 q 618 10 688 38 q 456 -17 548 -17 m 328 835 l 494 1024 l 658 1024 l 470 835 l 328 835 z "},"č":{"ha":880,"x_min":50,"x_max":830,"o":"m 456 -17 q 242 32 334 -17 q 100 169 151 81 q 50 371 50 256 q 100 572 50 487 q 242 704 151 657 q 456 751 334 751 q 617 725 547 751 q 734 654 687 698 q 806 558 781 610 q 830 455 830 506 q 830 452 830 454 q 830 449 830 451 l 617 449 q 616 457 617 453 q 615 465 616 461 q 590 520 609 494 q 538 562 572 546 q 454 578 504 578 q 359 555 401 578 q 292 485 317 531 q 268 371 268 439 q 292 256 268 304 q 359 182 317 208 q 454 156 401 156 q 544 173 509 156 q 596 219 578 190 q 617 283 613 248 l 830 283 q 806 178 830 231 q 735 81 782 125 q 618 10 688 38 q 456 -17 548 -17 m 207 1024 l 343 1024 l 471 875 l 414 875 l 542 1024 l 678 1024 l 513 835 l 374 835 l 207 1024 z "},"ç":{"ha":880,"x_min":50,"x_max":830,"o":"m 531 -51 q 580 -62 556 -51 q 621 -95 604 -72 q 638 -155 638 -117 q 610 -231 638 -201 q 538 -275 582 -260 q 445 -289 494 -289 q 357 -278 401 -289 q 295 -255 313 -267 l 337 -176 q 383 -196 351 -184 q 452 -208 416 -208 q 517 -194 491 -208 q 543 -151 543 -179 q 530 -118 543 -128 q 497 -108 517 -108 q 464 -114 481 -108 q 438 -132 447 -120 l 356 -109 l 406 0 l 500 0 l 459 -90 l 447 -88 q 476 -62 453 -72 q 531 -51 499 -51 m 456 -17 q 242 32 334 -17 q 100 169 151 81 q 50 371 50 256 q 100 572 50 487 q 242 704 151 657 q 456 751 334 751 q 617 725 547 751 q 734 654 687 698 q 806 558 781 610 q 830 455 830 506 q 830 452 830 454 q 830 449 830 451 l 617 449 q 616 457 617 453 q 615 465 616 461 q 590 520 609 494 q 538 562 572 546 q 454 578 504 578 q 359 555 401 578 q 292 485 317 531 q 268 371 268 439 q 292 256 268 304 q 359 182 317 208 q 454 156 401 156 q 544 173 509 156 q 596 219 578 190 q 617 283 613 248 l 830 283 q 806 178 830 231 q 735 81 782 125 q 618 10 688 38 q 456 -17 548 -17 z "},"ḉ":{"ha":880,"x_min":50,"x_max":830,"o":"m 531 -51 q 580 -62 556 -51 q 621 -95 604 -72 q 638 -155 638 -117 q 610 -231 638 -201 q 538 -275 582 -260 q 445 -289 494 -289 q 357 -278 401 -289 q 295 -255 313 -267 l 337 -176 q 383 -196 351 -184 q 452 -208 416 -208 q 517 -194 491 -208 q 543 -151 543 -179 q 530 -118 543 -128 q 497 -108 517 -108 q 464 -114 481 -108 q 438 -132 447 -120 l 356 -109 l 406 0 l 500 0 l 459 -90 l 447 -88 q 476 -62 453 -72 q 531 -51 499 -51 m 456 -17 q 242 32 334 -17 q 100 169 151 81 q 50 371 50 256 q 100 572 50 487 q 242 704 151 657 q 456 751 334 751 q 617 725 547 751 q 734 654 687 698 q 806 558 781 610 q 830 455 830 506 q 830 452 830 454 q 830 449 830 451 l 617 449 q 616 457 617 453 q 615 465 616 461 q 590 520 609 494 q 538 562 572 546 q 454 578 504 578 q 359 555 401 578 q 292 485 317 531 q 268 371 268 439 q 292 256 268 304 q 359 182 317 208 q 454 156 401 156 q 544 173 509 156 q 596 219 578 190 q 617 283 613 248 l 830 283 q 806 178 830 231 q 735 81 782 125 q 618 10 688 38 q 456 -17 548 -17 m 328 835 l 494 1024 l 658 1024 l 470 835 l 328 835 z "},"ĉ":{"ha":880,"x_min":50,"x_max":830,"o":"m 456 -17 q 242 32 334 -17 q 100 169 151 81 q 50 371 50 256 q 100 572 50 487 q 242 704 151 657 q 456 751 334 751 q 617 725 547 751 q 734 654 687 698 q 806 558 781 610 q 830 455 830 506 q 830 452 830 454 q 830 449 830 451 l 617 449 q 616 457 617 453 q 615 465 616 461 q 590 520 609 494 q 538 562 572 546 q 454 578 504 578 q 359 555 401 578 q 292 485 317 531 q 268 371 268 439 q 292 256 268 304 q 359 182 317 208 q 454 156 401 156 q 544 173 509 156 q 596 219 578 190 q 617 283 613 248 l 830 283 q 806 178 830 231 q 735 81 782 125 q 618 10 688 38 q 456 -17 548 -17 m 207 835 l 374 1024 l 513 1024 l 678 835 l 542 835 l 414 985 l 471 985 l 343 835 l 207 835 z "},"ċ":{"ha":880,"x_min":50,"x_max":830,"o":"m 456 -17 q 242 32 334 -17 q 100 169 151 81 q 50 371 50 256 q 100 572 50 487 q 242 704 151 657 q 456 751 334 751 q 617 725 547 751 q 734 654 687 698 q 806 558 781 610 q 830 455 830 506 q 830 452 830 454 q 830 449 830 451 l 617 449 q 616 457 617 453 q 615 465 616 461 q 590 520 609 494 q 538 562 572 546 q 454 578 504 578 q 359 555 401 578 q 292 485 317 531 q 268 371 268 439 q 292 256 268 304 q 359 182 317 208 q 454 156 401 156 q 544 173 509 156 q 596 219 578 190 q 617 283 613 248 l 830 283 q 806 178 830 231 q 735 81 782 125 q 618 10 688 38 q 456 -17 548 -17 m 443 857 q 356 884 393 857 q 319 958 319 910 q 356 1033 319 1007 q 443 1059 393 1059 q 530 1033 493 1059 q 567 958 567 1007 q 530 883 567 910 q 443 857 493 857 z "},"d":{"ha":916,"x_min":50,"x_max":835,"o":"m 392 -17 q 222 27 300 -17 q 97 158 144 72 q 50 372 50 245 q 98 578 50 494 q 225 707 147 663 q 392 751 303 751 q 552 707 480 751 q 669 586 625 663 q 713 409 713 509 q 713 402 713 406 q 713 396 713 399 l 619 394 q 619 399 619 397 q 619 403 619 401 q 594 493 619 456 q 530 551 569 531 q 447 572 490 572 q 324 524 376 572 q 272 372 272 476 q 324 219 272 268 q 447 170 376 170 q 531 191 492 170 q 595 251 571 213 q 619 343 619 290 l 713 338 q 670 159 713 239 q 555 31 627 78 q 392 -17 482 -17 m 619 0 l 619 1085 l 835 1085 l 835 0 l 619 0 z "},"ð":{"ha":938,"x_min":50,"x_max":857,"o":"m 313 867 l 560 1094 l 685 1024 l 440 799 l 313 867 m 655 369 q 624 645 655 535 q 539 822 594 755 q 409 926 483 888 q 248 986 335 963 l 347 1090 q 546 1011 453 1064 q 709 872 639 958 q 818 662 778 786 q 857 369 857 538 l 655 369 m 453 -16 q 243 33 334 -16 q 101 169 152 82 q 50 369 50 256 q 101 568 50 481 q 243 702 152 654 q 453 751 334 751 q 664 702 573 751 q 806 568 755 654 q 857 369 857 481 q 806 169 857 256 q 664 33 755 82 q 453 -16 573 -16 m 453 153 q 552 180 510 153 q 617 256 594 207 q 641 369 641 304 q 617 481 641 433 q 552 555 594 528 q 453 581 510 581 q 356 555 398 581 q 290 481 313 528 q 266 369 266 433 q 290 256 266 304 q 356 180 313 207 q 453 153 398 153 z "},"ď":{"ha":1047,"x_min":50,"x_max":1044,"o":"m 392 -17 q 222 27 300 -17 q 97 158 144 72 q 50 372 50 245 q 98 578 50 494 q 225 707 147 663 q 392 751 303 751 q 552 707 480 751 q 669 586 625 663 q 713 409 713 509 q 713 402 713 406 q 713 396 713 399 l 619 394 q 619 399 619 397 q 619 403 619 401 q 594 493 619 456 q 530 551 569 531 q 447 572 490 572 q 324 524 376 572 q 272 372 272 476 q 324 219 272 268 q 447 170 376 170 q 531 191 492 170 q 595 251 571 213 q 619 343 619 290 l 713 338 q 670 159 713 239 q 555 31 627 78 q 392 -17 482 -17 m 619 0 l 619 1085 l 835 1085 l 835 0 l 619 0 m 1044 1085 q 1036 965 1044 1024 q 1019 859 1028 905 q 1006 794 1010 814 l 906 794 q 917 860 911 815 q 926 964 922 905 q 930 1085 930 1023 l 1044 1085 z "},"đ":{"ha":923,"x_min":50,"x_max":915,"o":"m 360 863 l 360 973 l 915 973 l 915 863 l 360 863 m 392 -17 q 222 27 300 -17 q 97 158 144 72 q 50 372 50 245 q 98 578 50 494 q 225 707 147 663 q 392 751 303 751 q 552 707 480 751 q 669 586 625 663 q 713 409 713 509 q 713 402 713 406 q 713 396 713 399 l 619 394 q 619 399 619 397 q 619 403 619 401 q 594 493 619 456 q 530 551 569 531 q 447 572 490 572 q 324 524 376 572 q 272 372 272 476 q 324 219 272 268 q 447 170 376 170 q 531 191 492 170 q 595 251 571 213 q 619 343 619 290 l 713 338 q 670 159 713 239 q 555 31 627 78 q 392 -17 482 -17 m 619 0 l 619 1085 l 835 1085 l 835 0 l 619 0 z "},"ḍ":{"ha":916,"x_min":50,"x_max":835,"o":"m 392 -17 q 222 27 300 -17 q 97 158 144 72 q 50 372 50 245 q 98 578 50 494 q 225 707 147 663 q 392 751 303 751 q 552 707 480 751 q 669 586 625 663 q 713 409 713 509 q 713 402 713 406 q 713 396 713 399 l 619 394 q 619 399 619 397 q 619 403 619 401 q 594 493 619 456 q 530 551 569 531 q 447 572 490 572 q 324 524 376 572 q 272 372 272 476 q 324 219 272 268 q 447 170 376 170 q 531 191 492 170 q 595 251 571 213 q 619 343 619 290 l 713 338 q 670 159 713 239 q 555 31 627 78 q 392 -17 482 -17 m 619 0 l 619 1085 l 835 1085 l 835 0 l 619 0 m 510 -295 q 424 -268 461 -295 q 386 -194 386 -242 q 424 -119 386 -146 q 510 -93 461 -93 q 598 -119 560 -93 q 635 -194 635 -146 q 598 -269 635 -242 q 510 -295 560 -295 z "},"ḏ":{"ha":916,"x_min":50,"x_max":835,"o":"m 392 -17 q 222 27 300 -17 q 97 158 144 72 q 50 372 50 245 q 98 578 50 494 q 225 707 147 663 q 392 751 303 751 q 552 707 480 751 q 669 586 625 663 q 713 409 713 509 q 713 402 713 406 q 713 396 713 399 l 619 394 q 619 399 619 397 q 619 403 619 401 q 594 493 619 456 q 530 551 569 531 q 447 572 490 572 q 324 524 376 572 q 272 372 272 476 q 324 219 272 268 q 447 170 376 170 q 531 191 492 170 q 595 251 571 213 q 619 343 619 290 l 713 338 q 670 159 713 239 q 555 31 627 78 q 392 -17 482 -17 m 619 0 l 619 1085 l 835 1085 l 835 0 l 619 0 m 310 -220 l 310 -131 l 706 -131 l 706 -220 l 310 -220 z "},"ǆ":{"ha":1631,"x_min":50,"x_max":1588,"o":"m 392 -17 q 222 27 300 -17 q 97 158 144 72 q 50 372 50 245 q 98 578 50 494 q 225 707 147 663 q 392 751 303 751 q 552 707 480 751 q 669 586 625 663 q 713 409 713 509 q 713 402 713 406 q 713 396 713 399 l 619 394 q 619 399 619 397 q 619 403 619 401 q 594 493 619 456 q 530 551 569 531 q 447 572 490 572 q 324 524 376 572 q 272 372 272 476 q 324 219 272 268 q 447 170 376 170 q 531 191 492 170 q 595 251 571 213 q 619 343 619 290 l 713 338 q 670 159 713 239 q 555 31 627 78 q 392 -17 482 -17 m 619 0 l 619 1085 l 835 1085 l 835 0 l 619 0 m 1188 169 l 1588 169 l 1588 0 l 958 0 l 958 160 l 1348 577 l 1353 569 l 972 569 l 972 738 l 1580 738 l 1580 578 l 1193 162 l 1188 169 m 1040 1024 l 1176 1024 l 1304 875 l 1247 875 l 1375 1024 l 1512 1024 l 1346 835 l 1207 835 l 1040 1024 z "},"e":{"ha":904,"x_min":50,"x_max":854,"o":"m 167 304 l 167 447 l 656 447 l 635 410 q 635 421 635 416 q 635 431 635 426 q 616 507 635 471 q 558 567 597 544 q 458 590 519 590 q 352 564 397 590 q 285 490 308 538 q 262 372 262 441 q 284 251 262 301 q 352 174 307 201 q 463 147 397 147 q 538 155 506 147 q 589 175 569 163 q 619 203 608 188 q 631 233 629 218 l 844 233 q 812 141 840 186 q 735 61 784 97 q 615 4 685 25 q 454 -17 544 -17 q 241 32 332 -17 q 100 168 150 81 q 50 367 50 254 q 101 568 50 482 q 243 703 152 655 q 455 751 335 751 q 667 702 578 751 q 806 566 757 653 q 854 361 854 478 q 853 328 854 344 q 851 304 853 312 l 167 304 z "},"é":{"ha":904,"x_min":50,"x_max":854,"o":"m 167 304 l 167 447 l 656 447 l 635 410 q 635 421 635 416 q 635 431 635 426 q 616 507 635 471 q 558 567 597 544 q 458 590 519 590 q 352 564 397 590 q 285 490 308 538 q 262 372 262 441 q 284 251 262 301 q 352 174 307 201 q 463 147 397 147 q 538 155 506 147 q 589 175 569 163 q 619 203 608 188 q 631 233 629 218 l 844 233 q 812 141 840 186 q 735 61 784 97 q 615 4 685 25 q 454 -17 544 -17 q 241 32 332 -17 q 100 168 150 81 q 50 367 50 254 q 101 568 50 482 q 243 703 152 655 q 455 751 335 751 q 667 702 578 751 q 806 566 757 653 q 854 361 854 478 q 853 328 854 344 q 851 304 853 312 l 167 304 m 339 835 l 504 1024 l 669 1024 l 481 835 l 339 835 z "},"ĕ":{"ha":904,"x_min":50,"x_max":854,"o":"m 167 304 l 167 447 l 656 447 l 635 410 q 635 421 635 416 q 635 431 635 426 q 616 507 635 471 q 558 567 597 544 q 458 590 519 590 q 352 564 397 590 q 285 490 308 538 q 262 372 262 441 q 284 251 262 301 q 352 174 307 201 q 463 147 397 147 q 538 155 506 147 q 589 175 569 163 q 619 203 608 188 q 631 233 629 218 l 844 233 q 812 141 840 186 q 735 61 784 97 q 615 4 685 25 q 454 -17 544 -17 q 241 32 332 -17 q 100 168 150 81 q 50 367 50 254 q 101 568 50 482 q 243 703 152 655 q 455 751 335 751 q 667 702 578 751 q 806 566 757 653 q 854 361 854 478 q 853 328 854 344 q 851 304 853 312 l 167 304 m 252 1038 l 378 1038 q 398 969 378 997 q 453 941 418 941 q 509 969 490 941 q 529 1038 529 997 l 655 1038 q 598 906 655 953 q 453 858 540 858 q 309 906 367 858 q 252 1038 252 953 z "},"ě":{"ha":904,"x_min":50,"x_max":854,"o":"m 167 304 l 167 447 l 656 447 l 635 410 q 635 421 635 416 q 635 431 635 426 q 616 507 635 471 q 558 567 597 544 q 458 590 519 590 q 352 564 397 590 q 285 490 308 538 q 262 372 262 441 q 284 251 262 301 q 352 174 307 201 q 463 147 397 147 q 538 155 506 147 q 589 175 569 163 q 619 203 608 188 q 631 233 629 218 l 844 233 q 812 141 840 186 q 735 61 784 97 q 615 4 685 25 q 454 -17 544 -17 q 241 32 332 -17 q 100 168 150 81 q 50 367 50 254 q 101 568 50 482 q 243 703 152 655 q 455 751 335 751 q 667 702 578 751 q 806 566 757 653 q 854 361 854 478 q 853 328 854 344 q 851 304 853 312 l 167 304 m 217 1024 l 353 1024 l 481 875 l 424 875 l 552 1024 l 689 1024 l 523 835 l 384 835 l 217 1024 z "},"ȩ":{"ha":899,"x_min":50,"x_max":854,"o":"m 536 -51 q 585 -62 560 -51 q 626 -95 609 -72 q 642 -155 642 -117 q 615 -231 642 -201 q 543 -275 587 -260 q 450 -289 499 -289 q 362 -278 406 -289 q 300 -255 318 -267 l 342 -176 q 388 -196 356 -184 q 457 -208 421 -208 q 522 -194 496 -208 q 548 -151 548 -179 q 535 -118 548 -128 q 502 -108 522 -108 q 469 -114 485 -108 q 443 -132 452 -120 l 361 -109 l 411 0 l 505 0 l 464 -90 l 451 -88 q 481 -62 458 -72 q 536 -51 504 -51 m 167 304 l 167 447 l 656 447 l 635 410 q 635 421 635 416 q 635 431 635 426 q 616 507 635 471 q 558 567 597 544 q 458 590 519 590 q 352 564 397 590 q 285 490 308 538 q 262 372 262 441 q 284 251 262 301 q 352 174 307 201 q 463 147 397 147 q 538 155 506 147 q 589 175 569 163 q 619 203 608 188 q 631 233 629 218 l 844 233 q 812 141 840 186 q 735 61 784 97 q 615 4 685 25 q 454 -17 544 -17 q 241 32 332 -17 q 100 168 150 81 q 50 367 50 254 q 101 568 50 482 q 243 703 152 655 q 455 751 335 751 q 667 702 578 751 q 806 566 757 653 q 854 361 854 478 q 853 328 854 344 q 851 304 853 312 l 167 304 z "},"ḝ":{"ha":899,"x_min":50,"x_max":854,"o":"m 536 -51 q 585 -62 560 -51 q 626 -95 609 -72 q 642 -155 642 -117 q 615 -231 642 -201 q 543 -275 587 -260 q 450 -289 499 -289 q 362 -278 406 -289 q 300 -255 318 -267 l 342 -176 q 388 -196 356 -184 q 457 -208 421 -208 q 522 -194 496 -208 q 548 -151 548 -179 q 535 -118 548 -128 q 502 -108 522 -108 q 469 -114 485 -108 q 443 -132 452 -120 l 361 -109 l 411 0 l 505 0 l 464 -90 l 451 -88 q 481 -62 458 -72 q 536 -51 504 -51 m 167 304 l 167 447 l 656 447 l 635 410 q 635 421 635 416 q 635 431 635 426 q 616 507 635 471 q 558 567 597 544 q 458 590 519 590 q 352 564 397 590 q 285 490 308 538 q 262 372 262 441 q 284 251 262 301 q 352 174 307 201 q 463 147 397 147 q 538 155 506 147 q 589 175 569 163 q 619 203 608 188 q 631 233 629 218 l 844 233 q 812 141 840 186 q 735 61 784 97 q 615 4 685 25 q 454 -17 544 -17 q 241 32 332 -17 q 100 168 150 81 q 50 367 50 254 q 101 568 50 482 q 243 703 152 655 q 455 751 335 751 q 667 702 578 751 q 806 566 757 653 q 854 361 854 478 q 853 328 854 344 q 851 304 853 312 l 167 304 m 252 1038 l 378 1038 q 398 969 378 997 q 453 941 418 941 q 509 969 490 941 q 529 1038 529 997 l 655 1038 q 598 906 655 953 q 453 858 540 858 q 309 906 367 858 q 252 1038 252 953 z "},"ê":{"ha":904,"x_min":50,"x_max":854,"o":"m 167 304 l 167 447 l 656 447 l 635 410 q 635 421 635 416 q 635 431 635 426 q 616 507 635 471 q 558 567 597 544 q 458 590 519 590 q 352 564 397 590 q 285 490 308 538 q 262 372 262 441 q 284 251 262 301 q 352 174 307 201 q 463 147 397 147 q 538 155 506 147 q 589 175 569 163 q 619 203 608 188 q 631 233 629 218 l 844 233 q 812 141 840 186 q 735 61 784 97 q 615 4 685 25 q 454 -17 544 -17 q 241 32 332 -17 q 100 168 150 81 q 50 367 50 254 q 101 568 50 482 q 243 703 152 655 q 455 751 335 751 q 667 702 578 751 q 806 566 757 653 q 854 361 854 478 q 853 328 854 344 q 851 304 853 312 l 167 304 m 217 835 l 384 1024 l 523 1024 l 689 835 l 552 835 l 424 985 l 481 985 l 353 835 l 217 835 z "},"ế":{"ha":904,"x_min":50,"x_max":854,"o":"m 167 304 l 167 447 l 656 447 l 635 410 q 635 421 635 416 q 635 431 635 426 q 616 507 635 471 q 558 567 597 544 q 458 590 519 590 q 352 564 397 590 q 285 490 308 538 q 262 372 262 441 q 284 251 262 301 q 352 174 307 201 q 463 147 397 147 q 538 155 506 147 q 589 175 569 163 q 619 203 608 188 q 631 233 629 218 l 844 233 q 812 141 840 186 q 735 61 784 97 q 615 4 685 25 q 454 -17 544 -17 q 241 32 332 -17 q 100 168 150 81 q 50 367 50 254 q 101 568 50 482 q 243 703 152 655 q 455 751 335 751 q 667 702 578 751 q 806 566 757 653 q 854 361 854 478 q 853 328 854 344 q 851 304 853 312 l 167 304 m 217 835 l 384 1024 l 523 1024 l 689 835 l 552 835 l 424 985 l 481 985 l 353 835 l 217 835 m 569 995 l 704 1183 l 845 1183 l 695 995 l 569 995 z "},"ệ":{"ha":904,"x_min":50,"x_max":854,"o":"m 167 304 l 167 447 l 656 447 l 635 410 q 635 421 635 416 q 635 431 635 426 q 616 507 635 471 q 558 567 597 544 q 458 590 519 590 q 352 564 397 590 q 285 490 308 538 q 262 372 262 441 q 284 251 262 301 q 352 174 307 201 q 463 147 397 147 q 538 155 506 147 q 589 175 569 163 q 619 203 608 188 q 631 233 629 218 l 844 233 q 812 141 840 186 q 735 61 784 97 q 615 4 685 25 q 454 -17 544 -17 q 241 32 332 -17 q 100 168 150 81 q 50 367 50 254 q 101 568 50 482 q 243 703 152 655 q 455 751 335 751 q 667 702 578 751 q 806 566 757 653 q 854 361 854 478 q 853 328 854 344 q 851 304 853 312 l 167 304 m 460 -285 q 374 -259 411 -285 q 336 -184 336 -232 q 374 -110 336 -136 q 460 -83 411 -83 q 548 -110 510 -83 q 585 -184 585 -136 q 548 -259 585 -233 q 460 -285 510 -285 m 217 835 l 384 1024 l 523 1024 l 689 835 l 552 835 l 424 985 l 481 985 l 353 835 l 217 835 z "},"ề":{"ha":904,"x_min":50,"x_max":854,"o":"m 167 304 l 167 447 l 656 447 l 635 410 q 635 421 635 416 q 635 431 635 426 q 616 507 635 471 q 558 567 597 544 q 458 590 519 590 q 352 564 397 590 q 285 490 308 538 q 262 372 262 441 q 284 251 262 301 q 352 174 307 201 q 463 147 397 147 q 538 155 506 147 q 589 175 569 163 q 619 203 608 188 q 631 233 629 218 l 844 233 q 812 141 840 186 q 735 61 784 97 q 615 4 685 25 q 454 -17 544 -17 q 241 32 332 -17 q 100 168 150 81 q 50 367 50 254 q 101 568 50 482 q 243 703 152 655 q 455 751 335 751 q 667 702 578 751 q 806 566 757 653 q 854 361 854 478 q 853 328 854 344 q 851 304 853 312 l 167 304 m 219 835 l 385 1024 l 524 1024 l 690 835 l 553 835 l 426 985 l 483 985 l 355 835 l 219 835 m 750 995 l 625 995 l 474 1183 l 615 1183 l 750 995 z "},"ể":{"ha":904,"x_min":50,"x_max":854,"o":"m 167 304 l 167 447 l 656 447 l 635 410 q 635 421 635 416 q 635 431 635 426 q 616 507 635 471 q 558 567 597 544 q 458 590 519 590 q 352 564 397 590 q 285 490 308 538 q 262 372 262 441 q 284 251 262 301 q 352 174 307 201 q 463 147 397 147 q 538 155 506 147 q 589 175 569 163 q 619 203 608 188 q 631 233 629 218 l 844 233 q 812 141 840 186 q 735 61 784 97 q 615 4 685 25 q 454 -17 544 -17 q 241 32 332 -17 q 100 168 150 81 q 50 367 50 254 q 101 568 50 482 q 243 703 152 655 q 455 751 335 751 q 667 702 578 751 q 806 566 757 653 q 854 361 854 478 q 853 328 854 344 q 851 304 853 312 l 167 304 m 217 835 l 384 1024 l 523 1024 l 689 835 l 552 835 l 424 985 l 481 985 l 353 835 l 217 835 m 619 992 l 600 1042 q 644 1046 620 1043 q 686 1057 669 1049 q 704 1077 704 1064 q 660 1103 704 1098 q 539 1109 617 1109 l 539 1169 q 667 1163 608 1169 q 760 1140 725 1158 q 796 1085 796 1122 q 773 1032 796 1053 q 709 1001 749 1011 q 619 992 669 992 z "},"ễ":{"ha":904,"x_min":50,"x_max":854,"o":"m 167 304 l 167 447 l 656 447 l 635 410 q 635 421 635 416 q 635 431 635 426 q 616 507 635 471 q 558 567 597 544 q 458 590 519 590 q 352 564 397 590 q 285 490 308 538 q 262 372 262 441 q 284 251 262 301 q 352 174 307 201 q 463 147 397 147 q 538 155 506 147 q 589 175 569 163 q 619 203 608 188 q 631 233 629 218 l 844 233 q 812 141 840 186 q 735 61 784 97 q 615 4 685 25 q 454 -17 544 -17 q 241 32 332 -17 q 100 168 150 81 q 50 367 50 254 q 101 568 50 482 q 243 703 152 655 q 455 751 335 751 q 667 702 578 751 q 806 566 757 653 q 854 361 854 478 q 853 328 854 344 q 851 304 853 312 l 167 304 m 217 835 l 384 1024 l 523 1024 l 689 835 l 552 835 l 424 985 l 481 985 l 353 835 l 217 835 m 548 1078 q 485 1092 510 1078 q 445 1120 460 1106 q 416 1145 431 1135 q 383 1155 402 1155 q 347 1138 359 1155 q 335 1092 335 1120 l 225 1092 q 241 1166 226 1129 q 289 1227 257 1202 q 369 1251 321 1251 q 428 1237 403 1251 q 469 1209 453 1223 q 501 1185 485 1195 q 534 1175 517 1175 q 566 1191 556 1175 q 577 1235 576 1208 l 686 1235 q 671 1164 685 1200 q 626 1102 656 1127 q 548 1078 595 1078 z "},"ȅ":{"ha":904,"x_min":50,"x_max":854,"o":"m 167 304 l 167 447 l 656 447 l 635 410 q 635 421 635 416 q 635 431 635 426 q 616 507 635 471 q 558 567 597 544 q 458 590 519 590 q 352 564 397 590 q 285 490 308 538 q 262 372 262 441 q 284 251 262 301 q 352 174 307 201 q 463 147 397 147 q 538 155 506 147 q 589 175 569 163 q 619 203 608 188 q 631 233 629 218 l 844 233 q 812 141 840 186 q 735 61 784 97 q 615 4 685 25 q 454 -17 544 -17 q 241 32 332 -17 q 100 168 150 81 q 50 367 50 254 q 101 568 50 482 q 243 703 152 655 q 455 751 335 751 q 667 702 578 751 q 806 566 757 653 q 854 361 854 478 q 853 328 854 344 q 851 304 853 312 l 167 304 m 633 835 l 519 835 l 396 1024 l 528 1024 l 633 835 m 403 835 l 288 835 l 149 1024 l 283 1024 l 403 835 z "},"ë":{"ha":904,"x_min":50,"x_max":854,"o":"m 167 304 l 167 447 l 656 447 l 635 410 q 635 421 635 416 q 635 431 635 426 q 616 507 635 471 q 558 567 597 544 q 458 590 519 590 q 352 564 397 590 q 285 490 308 538 q 262 372 262 441 q 284 251 262 301 q 352 174 307 201 q 463 147 397 147 q 538 155 506 147 q 589 175 569 163 q 619 203 608 188 q 631 233 629 218 l 844 233 q 812 141 840 186 q 735 61 784 97 q 615 4 685 25 q 454 -17 544 -17 q 241 32 332 -17 q 100 168 150 81 q 50 367 50 254 q 101 568 50 482 q 243 703 152 655 q 455 751 335 751 q 667 702 578 751 q 806 566 757 653 q 854 361 854 478 q 853 328 854 344 q 851 304 853 312 l 167 304 m 285 853 q 205 877 240 853 q 171 946 171 901 q 205 1015 171 990 q 285 1039 240 1039 q 365 1015 331 1039 q 399 946 399 990 q 365 877 399 901 q 285 853 331 853 m 620 853 q 541 877 575 853 q 506 946 506 901 q 541 1015 506 990 q 620 1039 575 1039 q 700 1015 666 1039 q 735 946 735 990 q 700 877 735 901 q 620 853 666 853 z "},"ė":{"ha":904,"x_min":50,"x_max":854,"o":"m 167 304 l 167 447 l 656 447 l 635 410 q 635 421 635 416 q 635 431 635 426 q 616 507 635 471 q 558 567 597 544 q 458 590 519 590 q 352 564 397 590 q 285 490 308 538 q 262 372 262 441 q 284 251 262 301 q 352 174 307 201 q 463 147 397 147 q 538 155 506 147 q 589 175 569 163 q 619 203 608 188 q 631 233 629 218 l 844 233 q 812 141 840 186 q 735 61 784 97 q 615 4 685 25 q 454 -17 544 -17 q 241 32 332 -17 q 100 168 150 81 q 50 367 50 254 q 101 568 50 482 q 243 703 152 655 q 455 751 335 751 q 667 702 578 751 q 806 566 757 653 q 854 361 854 478 q 853 328 854 344 q 851 304 853 312 l 167 304 m 453 857 q 366 884 403 857 q 329 958 329 910 q 366 1033 329 1007 q 453 1059 403 1059 q 541 1033 503 1059 q 578 958 578 1007 q 541 883 578 910 q 453 857 503 857 z "},"ẹ":{"ha":904,"x_min":50,"x_max":854,"o":"m 167 304 l 167 447 l 656 447 l 635 410 q 635 421 635 416 q 635 431 635 426 q 616 507 635 471 q 558 567 597 544 q 458 590 519 590 q 352 564 397 590 q 285 490 308 538 q 262 372 262 441 q 284 251 262 301 q 352 174 307 201 q 463 147 397 147 q 538 155 506 147 q 589 175 569 163 q 619 203 608 188 q 631 233 629 218 l 844 233 q 812 141 840 186 q 735 61 784 97 q 615 4 685 25 q 454 -17 544 -17 q 241 32 332 -17 q 100 168 150 81 q 50 367 50 254 q 101 568 50 482 q 243 703 152 655 q 455 751 335 751 q 667 702 578 751 q 806 566 757 653 q 854 361 854 478 q 853 328 854 344 q 851 304 853 312 l 167 304 m 460 -285 q 374 -259 411 -285 q 336 -184 336 -232 q 374 -110 336 -136 q 460 -83 411 -83 q 548 -110 510 -83 q 585 -184 585 -136 q 548 -259 585 -233 q 460 -285 510 -285 z "},"è":{"ha":904,"x_min":50,"x_max":854,"o":"m 167 304 l 167 447 l 656 447 l 635 410 q 635 421 635 416 q 635 431 635 426 q 616 507 635 471 q 558 567 597 544 q 458 590 519 590 q 352 564 397 590 q 285 490 308 538 q 262 372 262 441 q 284 251 262 301 q 352 174 307 201 q 463 147 397 147 q 538 155 506 147 q 589 175 569 163 q 619 203 608 188 q 631 233 629 218 l 844 233 q 812 141 840 186 q 735 61 784 97 q 615 4 685 25 q 454 -17 544 -17 q 241 32 332 -17 q 100 168 150 81 q 50 367 50 254 q 101 568 50 482 q 243 703 152 655 q 455 751 335 751 q 667 702 578 751 q 806 566 757 653 q 854 361 854 478 q 853 328 854 344 q 851 304 853 312 l 167 304 m 566 832 l 424 832 l 235 1021 l 401 1021 l 566 832 z "},"ẻ":{"ha":904,"x_min":50,"x_max":854,"o":"m 167 304 l 167 447 l 656 447 l 635 410 q 635 421 635 416 q 635 431 635 426 q 616 507 635 471 q 558 567 597 544 q 458 590 519 590 q 352 564 397 590 q 285 490 308 538 q 262 372 262 441 q 284 251 262 301 q 352 174 307 201 q 463 147 397 147 q 538 155 506 147 q 589 175 569 163 q 619 203 608 188 q 631 233 629 218 l 844 233 q 812 141 840 186 q 735 61 784 97 q 615 4 685 25 q 454 -17 544 -17 q 241 32 332 -17 q 100 168 150 81 q 50 367 50 254 q 101 568 50 482 q 243 703 152 655 q 455 751 335 751 q 667 702 578 751 q 806 566 757 653 q 854 361 854 478 q 853 328 854 344 q 851 304 853 312 l 167 304 m 307 1048 q 450 1042 385 1048 q 556 1016 516 1036 q 596 953 596 996 q 569 894 596 917 q 498 860 543 871 q 398 849 453 849 l 376 905 q 425 910 398 906 q 472 922 452 914 q 492 945 492 931 q 443 974 492 968 q 307 981 395 981 l 307 1048 z "},"ȇ":{"ha":904,"x_min":50,"x_max":854,"o":"m 167 304 l 167 447 l 656 447 l 635 410 q 635 421 635 416 q 635 431 635 426 q 616 507 635 471 q 558 567 597 544 q 458 590 519 590 q 352 564 397 590 q 285 490 308 538 q 262 372 262 441 q 284 251 262 301 q 352 174 307 201 q 463 147 397 147 q 538 155 506 147 q 589 175 569 163 q 619 203 608 188 q 631 233 629 218 l 844 233 q 812 141 840 186 q 735 61 784 97 q 615 4 685 25 q 454 -17 544 -17 q 241 32 332 -17 q 100 168 150 81 q 50 367 50 254 q 101 568 50 482 q 243 703 152 655 q 455 751 335 751 q 667 702 578 751 q 806 566 757 653 q 854 361 854 478 q 853 328 854 344 q 851 304 853 312 l 167 304 m 252 862 q 309 991 252 948 q 454 1033 367 1033 q 598 991 540 1033 q 655 862 655 948 l 529 862 q 510 927 529 904 q 454 951 490 951 q 398 927 418 951 q 378 862 378 904 l 252 862 z "},"ē":{"ha":904,"x_min":50,"x_max":854,"o":"m 167 304 l 167 447 l 656 447 l 635 410 q 635 421 635 416 q 635 431 635 426 q 616 507 635 471 q 558 567 597 544 q 458 590 519 590 q 352 564 397 590 q 285 490 308 538 q 262 372 262 441 q 284 251 262 301 q 352 174 307 201 q 463 147 397 147 q 538 155 506 147 q 589 175 569 163 q 619 203 608 188 q 631 233 629 218 l 844 233 q 812 141 840 186 q 735 61 784 97 q 615 4 685 25 q 454 -17 544 -17 q 241 32 332 -17 q 100 168 150 81 q 50 367 50 254 q 101 568 50 482 q 243 703 152 655 q 455 751 335 751 q 667 702 578 751 q 806 566 757 653 q 854 361 854 478 q 853 328 854 344 q 851 304 853 312 l 167 304 m 237 894 l 237 983 l 669 983 l 669 894 l 237 894 z "},"ḗ":{"ha":904,"x_min":50,"x_max":854,"o":"m 167 304 l 167 447 l 656 447 l 635 410 q 635 421 635 416 q 635 431 635 426 q 616 507 635 471 q 558 567 597 544 q 458 590 519 590 q 352 564 397 590 q 285 490 308 538 q 262 372 262 441 q 284 251 262 301 q 352 174 307 201 q 463 147 397 147 q 538 155 506 147 q 589 175 569 163 q 619 203 608 188 q 631 233 629 218 l 844 233 q 812 141 840 186 q 735 61 784 97 q 615 4 685 25 q 454 -17 544 -17 q 241 32 332 -17 q 100 168 150 81 q 50 367 50 254 q 101 568 50 482 q 243 703 152 655 q 455 751 335 751 q 667 702 578 751 q 806 566 757 653 q 854 361 854 478 q 853 328 854 344 q 851 304 853 312 l 167 304 m 237 894 l 237 983 l 669 983 l 669 894 l 237 894 m 339 1081 l 504 1269 l 669 1269 l 481 1081 l 339 1081 z "},"ḕ":{"ha":904,"x_min":50,"x_max":854,"o":"m 167 304 l 167 447 l 656 447 l 635 410 q 635 421 635 416 q 635 431 635 426 q 616 507 635 471 q 558 567 597 544 q 458 590 519 590 q 352 564 397 590 q 285 490 308 538 q 262 372 262 441 q 284 251 262 301 q 352 174 307 201 q 463 147 397 147 q 538 155 506 147 q 589 175 569 163 q 619 203 608 188 q 631 233 629 218 l 844 233 q 812 141 840 186 q 735 61 784 97 q 615 4 685 25 q 454 -17 544 -17 q 241 32 332 -17 q 100 168 150 81 q 50 367 50 254 q 101 568 50 482 q 243 703 152 655 q 455 751 335 751 q 667 702 578 751 q 806 566 757 653 q 854 361 854 478 q 853 328 854 344 q 851 304 853 312 l 167 304 m 237 894 l 237 983 l 669 983 l 669 894 l 237 894 m 566 1077 l 424 1077 l 235 1266 l 401 1266 l 566 1077 z "},"ę":{"ha":904,"x_min":50,"x_max":854,"o":"m 640 -190 l 640 -293 q 608 -295 625 -294 q 574 -297 592 -297 q 489 -285 528 -297 q 427 -247 450 -273 q 403 -178 403 -220 q 426 -102 403 -140 q 480 -32 449 -64 q 534 16 510 -1 l 640 16 q 591 -32 619 -1 q 541 -93 563 -62 q 519 -149 519 -125 q 539 -185 519 -175 q 587 -194 559 -194 q 614 -193 599 -194 q 640 -190 628 -192 m 167 304 l 167 447 l 656 447 l 635 410 q 635 421 635 416 q 635 431 635 426 q 616 507 635 471 q 558 567 597 544 q 458 590 519 590 q 352 564 397 590 q 285 490 308 538 q 262 372 262 441 q 284 251 262 301 q 352 174 307 201 q 463 147 397 147 q 538 155 506 147 q 589 175 569 163 q 619 203 608 188 q 631 233 629 218 l 844 233 q 812 141 840 186 q 735 61 784 97 q 615 4 685 25 q 454 -17 544 -17 q 241 32 332 -17 q 100 168 150 81 q 50 367 50 254 q 101 568 50 482 q 243 703 152 655 q 455 751 335 751 q 667 702 578 751 q 806 566 757 653 q 854 361 854 478 q 853 328 854 344 q 851 304 853 312 l 167 304 z "},"ẽ":{"ha":904,"x_min":50,"x_max":854,"o":"m 167 304 l 167 447 l 656 447 l 635 410 q 635 421 635 416 q 635 431 635 426 q 616 507 635 471 q 558 567 597 544 q 458 590 519 590 q 352 564 397 590 q 285 490 308 538 q 262 372 262 441 q 284 251 262 301 q 352 174 307 201 q 463 147 397 147 q 538 155 506 147 q 589 175 569 163 q 619 203 608 188 q 631 233 629 218 l 844 233 q 812 141 840 186 q 735 61 784 97 q 615 4 685 25 q 454 -17 544 -17 q 241 32 332 -17 q 100 168 150 81 q 50 367 50 254 q 101 568 50 482 q 243 703 152 655 q 455 751 335 751 q 667 702 578 751 q 806 566 757 653 q 854 361 854 478 q 853 328 854 344 q 851 304 853 312 l 167 304 m 683 1011 q 668 939 683 976 q 623 878 653 903 q 545 853 593 853 q 483 868 508 853 q 442 897 458 883 q 413 920 427 910 q 378 931 399 931 q 344 913 355 931 q 332 868 333 896 l 223 868 q 239 941 223 905 q 287 1002 255 978 q 367 1027 319 1027 q 426 1013 401 1027 q 467 985 451 999 q 499 961 483 971 q 532 951 515 951 q 564 967 553 951 q 574 1011 574 983 l 683 1011 z "},"ə":{"ha":904,"x_min":50,"x_max":854,"o":"m 449 -17 q 237 32 326 -17 q 99 168 147 81 q 50 373 50 256 q 51 406 50 390 q 52 430 51 422 l 704 430 l 704 288 l 249 288 l 269 324 q 269 313 269 319 q 269 303 269 308 q 288 227 269 264 q 347 167 307 190 q 447 144 386 144 q 554 169 510 144 q 623 243 599 194 q 647 362 647 292 q 626 484 647 434 q 559 561 605 535 q 440 588 514 588 q 370 580 400 588 q 319 560 340 573 q 288 533 299 548 q 273 501 276 517 l 60 501 q 92 593 65 549 q 169 673 120 638 q 289 730 219 709 q 450 751 360 751 q 663 702 572 751 q 804 567 754 653 q 854 367 854 481 q 803 166 854 252 q 661 31 752 79 q 449 -17 570 -17 z "},"ʒ":{"ha":867,"x_min":74,"x_max":783,"o":"m 433 -303 q 259 -276 328 -303 q 149 -200 190 -248 q 91 -89 108 -151 q 74 42 74 -27 q 74 44 74 43 q 74 45 74 44 l 290 45 q 290 44 290 44 q 290 42 290 43 q 329 -99 290 -61 q 435 -136 368 -136 q 531 -103 494 -136 q 567 14 567 -69 q 548 102 567 69 q 484 149 529 135 q 363 163 440 163 l 287 163 l 535 571 l 110 571 l 110 738 l 755 738 l 755 583 l 567 289 q 684 257 636 289 q 758 166 733 224 q 783 32 783 108 q 747 -140 783 -65 q 632 -260 710 -216 q 433 -303 555 -303 z "}}}
